<?xml version="1.0" encoding="UTF-8" standalone="no" ?>
<!DOCTYPE svg PUBLIC "-//W3C//DTD SVG 1.1//EN" "http://www.w3.org/Graphics/SVG/1.1/DTD/svg11.dtd">
<svg xmlns="http://www.w3.org/2000/svg" xmlns:xlink="http://www.w3.org/1999/xlink" version="1.1" width="1080" height="1080" viewBox="0 0 1080 1080" xml:space="preserve">
<desc>Created with Fabric.js 5.2.4</desc>
<defs>
</defs>
<g transform="matrix(1 0 0 1 540 540)" id="b37064b1-c978-498e-8d6a-8bbf34d25527"  >
<rect style="stroke: none; stroke-width: 1; stroke-dasharray: none; stroke-linecap: butt; stroke-dashoffset: 0; stroke-linejoin: miter; stroke-miterlimit: 4; fill: rgb(255,255,255); fill-rule: nonzero; opacity: 1; visibility: hidden;" vector-effect="non-scaling-stroke"  x="-540" y="-540" rx="0" ry="0" width="1080" height="1080" />
</g>
<g transform="matrix(1 0 0 1 540 540)" id="ef083e82-2358-4dae-97d3-6569611b26ab"  >
</g>
<g transform="matrix(1 0 0 1 540 540)"  >
<g style="" vector-effect="non-scaling-stroke"   >
		<g transform="matrix(1 0 0 1 -18.61 17.89)"  >
<path style="stroke: none; stroke-width: 1; stroke-dasharray: none; stroke-linecap: butt; stroke-dashoffset: 0; stroke-linejoin: miter; stroke-miterlimit: 4; fill: rgb(255,255,255); fill-rule: nonzero; opacity: 1;" vector-effect="non-scaling-stroke"  transform=" translate(-132.68, -133.81)" d="M 88.43 84.59 L 90.25 83.72 L 106.44 87.7 L 126.92999999999999 106.09 L 134.54 104.05 L 144.51 93.64999999999999 C 144.51 93.64999999999999 162.5 93.71 170.70999999999998 101.07 C 171.32999999999998 101.08 175.93999999999997 104.05999999999999 178.26999999999998 107.22999999999999 C 180.6 110.39999999999999 182.24999999999997 111.57 184.54 115.19999999999999 C 186.82999999999998 118.82999999999998 189.42999999999998 122.80999999999999 190.81 126.63999999999999 C 192.19 130.47 194.87 138.23999999999998 195.54 140.95999999999998 C 196.20999999999998 143.67999999999998 196.95 149.23999999999998 196.95 149.23999999999998 L 181.85 183.89 L 68.41 183.89 L 88.43 84.59 z" stroke-linecap="round" />
</g>
		<g transform="matrix(1 0 0 1 -37.68 0)"  >
<path style="stroke: none; stroke-width: 1; stroke-dasharray: none; stroke-linecap: butt; stroke-dashoffset: 0; stroke-linejoin: miter; stroke-miterlimit: 4; fill: rgb(0,0,0); fill-rule: nonzero; opacity: 1;" vector-effect="non-scaling-stroke"  transform=" translate(-113.61, -115.91)" d="M 146.64 179.35 C 146.05999999999997 179.35 145.48 179.35 144.89 179.35 C 144.83999999999997 179.44 144.79 179.53 144.73999999999998 179.62 C 145.12999999999997 179.93 145.51 180.28 145.92999999999998 180.55 C 151.62999999999997 184.32000000000002 156.95 188.54000000000002 161.27999999999997 193.86 C 162.96999999999997 195.93 164.31999999999996 198.28 165.81999999999996 200.5 C 165.85999999999996 200.56 165.90999999999997 200.62 165.90999999999997 200.68 C 165.92999999999998 201.37 166.21999999999997 202.34 165.87999999999997 202.68 C 165.52999999999997 203.04000000000002 164.47999999999996 203.01000000000002 163.88999999999996 202.77 C 162.39999999999995 202.15 160.99999999999997 201.33 159.56999999999996 200.57000000000002 C 158.91999999999996 200.22000000000003 158.28999999999996 199.83 157.64999999999998 199.46 C 157.57999999999998 199.53 157.51 199.59 157.43999999999997 199.66 C 157.79999999999998 200.21 158.17999999999998 200.75 158.49999999999997 201.32 C 159.68999999999997 203.45 160.89999999999998 205.57 161.98999999999998 207.73999999999998 C 162.2 208.17 162.12999999999997 209.17 161.85999999999999 209.30999999999997 C 161.38 209.56999999999996 160.52999999999997 209.60999999999999 160.05999999999997 209.33999999999997 C 158.18999999999997 208.31999999999996 156.36999999999998 207.18999999999997 154.60999999999999 205.99999999999997 C 153.20999999999998 205.05999999999997 151.91 203.95999999999998 150.57 202.93999999999997 C 150.31 202.74999999999997 150.04 202.57999999999996 149.76999999999998 202.39999999999998 C 149.7 202.45999999999998 149.63 202.51999999999998 149.55999999999997 202.57999999999998 C 150.03999999999996 203.49999999999997 150.56999999999996 204.39999999999998 150.98999999999998 205.35 C 151.45999999999998 206.38 151.93999999999997 207.43 152.2 208.51999999999998 C 152.32 209.01 152.07 209.73999999999998 151.73 210.14 C 151.53 210.36999999999998 150.72 210.33999999999997 150.35999999999999 210.13 C 148.54999999999998 209.07999999999998 146.79 207.94 145.04 206.79999999999998 C 144.1 206.18999999999997 143.2 205.51999999999998 142.1 205.02999999999997 C 142.39 205.80999999999997 142.69 206.58999999999997 142.97 207.37999999999997 C 143.09 207.72999999999996 143.22 208.09999999999997 143.25 208.46999999999997 C 143.33 209.67999999999998 142.7 210.17999999999998 141.6 209.67999999999998 C 139.35 208.65999999999997 137.07999999999998 207.65999999999997 134.93 206.45 C 130.39000000000001 203.89999999999998 125.93 201.22 121.02000000000001 199.42 C 116.99000000000001 197.94 112.86000000000001 196.92999999999998 108.62 196.28 C 101.33 195.17 93.99000000000001 194.8 86.64 194.6 C 79.27 194.39 71.89 194.25 64.52 194.01999999999998 C 61.38999999999999 193.92 58.25 193.73999999999998 55.23 192.73999999999998 C 51.3 191.43999999999997 48.33 188.92 46.01 185.57999999999998 C 45.28 184.52999999999997 44.62 183.44 44.01 182.32 C 43.68 181.72 43.32 181.59 42.68 181.68 C 41.25 181.89000000000001 39.81 182.1 38.36 182.15 C 37.37 182.19 36.35 182.06 35.4 181.8 C 34.87 181.66000000000003 34.28 181.19 34.01 180.71 C 32.37 177.78 31.389999999999997 174.58 30.729999999999997 171.31 C 30.429999999999996 169.84 30.369999999999997 168.32 30.229999999999997 166.82 C 30.009999999999998 164.26999999999998 31.029999999999998 162.18 32.72 160.38 C 33.43 159.63 34.18 158.89 35.03 158.32 C 35.84 157.76999999999998 36.15 157.15 36.15 156.19 C 36.17 149.35999999999999 37.28 142.67 38.82 136.03 C 40.64 128.19 43.04 120.54 46.41 113.23 C 50.15 105.11 54.86 97.65 61.76 91.78 C 66.75999999999999 87.52 72.44 84.65 78.99 83.56 C 83.97 82.73 88.89999999999999 82.86 93.78999999999999 83.97 C 97.85 84.89 101.85 86.07 105.88999999999999 87.1 C 106.29999999999998 87.19999999999999 106.85999999999999 87.14 107.20999999999998 86.92999999999999 C 109.17999999999998 85.72 111.19999999999997 84.55999999999999 112.99999999999999 83.13 C 113.84999999999998 82.44999999999999 114.41999999999999 81.28999999999999 114.84999999999998 80.22999999999999 C 116.23999999999998 76.82 117.49999999999999 73.35999999999999 118.81999999999998 69.91999999999999 C 119.10999999999999 69.16999999999999 118.55999999999997 69.08999999999999 118.07999999999998 68.86999999999999 C 116.45999999999998 68.13999999999999 114.75999999999999 67.50999999999999 113.25999999999999 66.57 C 110.99999999999999 65.14999999999999 109.28999999999999 63.18999999999999 108.36999999999999 60.599999999999994 C 106.6 55.64999999999999 110.55 50.199999999999996 115.74 50.50999999999999 C 116.47999999999999 50.54999999999999 117.21 50.78999999999999 118.19 50.97999999999999 C 118.11 49.68999999999999 118.13 48.52999999999999 117.94 47.39999999999999 C 117.49 44.69999999999999 116.59 42.129999999999995 115.32 39.69999999999999 C 112.75 34.76999999999999 115.25999999999999 29.75999999999999 119.33 27.349999999999987 C 122.38 25.549999999999986 125.53999999999999 25.509999999999987 128.7 27.19999999999999 C 128.97 27.33999999999999 129.25 27.469999999999988 129.57 27.61999999999999 C 129.70999999999998 27.38999999999999 129.88 27.20999999999999 129.95999999999998 26.98999999999999 C 131.01999999999998 24.04999999999999 133.24999999999997 22.629999999999992 136.14999999999998 21.769999999999992 C 139.31999999999996 20.82999999999999 143.68999999999997 22.639999999999993 145.39999999999998 25.499999999999993 C 145.80999999999997 26.189999999999994 145.79999999999998 26.569999999999993 145.14 27.109999999999992 C 143.67 28.32999999999999 142.82999999999998 30.00999999999999 142.23999999999998 31.799999999999994 C 142.15999999999997 32.05 142.36999999999998 32.38999999999999 142.45 32.68999999999999 C 142.69 32.49999999999999 143.01999999999998 32.35999999999999 143.17 32.11999999999999 C 143.98 30.80999999999999 144.51999999999998 29.26999999999999 145.55999999999997 28.19999999999999 C 148.53999999999996 25.13999999999999 156.01999999999998 25.029999999999987 158.64 31.08999999999999 C 160.67999999999998 35.79999999999999 159.35999999999999 41.61999999999999 154.69 43.90999999999999 C 154.4 44.04999999999999 154.1 44.54999999999999 154.1 44.86999999999999 C 154.13 49.52999999999999 154.14 54.22999999999999 155.45 58.72999999999999 C 156.14 61.07999999999999 157.39999999999998 63.26999999999999 158.45999999999998 65.50999999999999 C 159.36999999999998 67.44999999999999 160.27999999999997 69.38 160.37999999999997 71.57 C 160.55999999999997 75.66 158.26999999999995 78.32 155.02999999999997 80.22999999999999 C 152.03999999999996 81.99999999999999 148.68999999999997 82.32 145.29999999999998 81.71999999999998 C 143.51 81.39999999999999 141.77999999999997 80.78999999999998 140.01999999999998 80.30999999999999 C 139.82999999999998 80.25999999999999 139.63 80.22999999999999 139.39999999999998 80.18999999999998 C 139.32999999999998 80.35999999999999 139.23 80.47999999999999 139.23999999999998 80.59999999999998 C 139.27999999999997 83.11999999999998 139.27999999999997 85.63999999999999 139.42999999999998 88.14999999999998 C 139.46999999999997 88.77999999999997 139.96999999999997 89.42999999999998 140.39 89.96999999999997 C 140.70999999999998 90.39999999999998 141.27999999999997 90.63999999999997 141.64999999999998 91.03999999999996 C 143.31999999999996 92.84999999999997 145.32999999999998 93.23999999999997 147.76999999999998 93.21999999999997 C 159.38 93.11999999999998 169.15999999999997 97.54999999999997 177.33999999999997 105.66999999999997 C 183.54999999999998 111.83999999999997 187.97999999999996 119.17999999999998 191.40999999999997 127.16999999999997 C 194.05999999999997 133.33999999999997 195.89999999999998 139.74999999999997 196.99999999999997 146.36999999999998 C 197.06999999999996 146.78999999999996 196.89999999999998 147.23999999999998 196.83999999999997 147.67999999999998 C 196.74999999999997 147.67 196.67 147.67 196.57999999999998 147.65999999999997 C 196.29 146.22999999999996 196.01 144.78999999999996 195.71999999999997 143.35999999999996 C 194.46999999999997 137.11999999999995 192.48999999999998 131.10999999999996 189.81999999999996 125.32999999999996 C 186.53999999999996 118.22999999999996 182.40999999999997 111.69999999999996 176.84999999999997 106.14999999999995 C 171.69999999999996 101.01999999999995 165.71999999999997 97.25999999999995 158.67999999999995 95.28999999999995 C 154.45999999999995 94.10999999999994 150.13999999999996 93.72999999999995 145.75999999999996 93.93999999999996 C 145.06999999999996 93.96999999999996 144.88999999999996 94.26999999999995 144.91999999999996 94.91999999999996 C 145.16999999999996 100.48999999999995 144.83999999999995 106.03999999999996 143.73999999999995 111.50999999999996 C 143.43999999999994 113.00999999999996 142.85999999999996 114.48999999999997 142.15999999999994 115.84999999999997 C 141.35999999999993 117.40999999999997 139.94999999999993 117.69999999999996 138.77999999999994 116.43999999999997 C 137.58999999999995 115.14999999999996 136.82999999999996 115.28999999999996 135.33999999999995 116.09999999999997 C 132.51999999999995 117.63999999999997 129.46999999999994 117.39999999999996 126.59999999999995 115.93999999999997 C 125.87999999999995 115.56999999999996 125.54999999999995 115.72999999999998 125.03999999999995 116.25999999999996 C 124.15999999999995 117.16999999999996 123.24999999999994 118.09999999999997 122.17999999999995 118.75999999999996 C 120.80999999999995 119.60999999999996 119.83999999999995 119.48999999999997 118.89999999999995 118.20999999999997 C 117.41999999999994 116.18999999999997 115.95999999999995 114.09999999999997 114.89999999999995 111.84999999999997 C 113.06999999999995 107.95999999999997 111.45999999999995 103.95999999999997 109.90999999999995 99.93999999999997 C 108.49999999999996 96.27999999999997 107.29999999999995 92.53999999999996 106.01999999999995 88.82999999999997 C 105.78999999999995 88.13999999999997 105.50999999999995 87.59999999999997 104.71999999999996 87.40999999999997 C 100.22999999999996 86.32999999999997 95.74999999999996 85.23999999999997 91.26999999999995 84.14999999999996 C 91.17999999999995 84.12999999999997 91.06999999999995 84.15999999999997 90.81999999999995 84.17999999999996 C 91.12999999999995 84.44999999999996 91.31999999999995 84.68999999999997 91.56999999999995 84.82999999999997 C 95.83999999999995 87.17999999999996 98.40999999999995 90.94999999999997 100.23999999999995 95.29999999999997 C 102.97999999999995 101.81999999999996 103.64999999999995 108.70999999999997 103.48999999999995 115.68999999999997 C 103.34999999999995 121.52999999999997 102.66999999999996 127.30999999999997 101.62999999999995 133.06999999999996 C 100.50999999999995 139.24999999999997 99.05999999999996 145.33999999999997 97.21999999999996 151.33999999999997 C 97.02999999999996 151.95 97.06999999999995 152.25999999999996 97.71999999999996 152.52999999999997 C 99.30999999999996 153.16999999999996 100.10999999999996 154.40999999999997 99.90999999999995 156.11999999999998 C 99.73999999999995 157.61999999999998 99.48999999999995 159.11999999999998 99.13999999999996 160.58999999999997 C 98.79999999999995 162.02999999999997 98.81999999999996 162.15999999999997 100.23999999999995 162.42999999999998 C 100.53999999999995 162.48999999999998 100.83999999999995 162.57999999999998 101.13999999999996 162.65999999999997 C 101.94999999999996 162.87999999999997 102.58999999999996 162.76999999999998 103.31999999999996 162.19999999999996 C 106.08999999999996 160.00999999999996 109.35999999999997 159.60999999999996 112.73999999999997 159.99999999999997 C 116.07999999999997 160.37999999999997 119.23999999999997 161.40999999999997 121.81999999999996 163.64999999999998 C 123.03999999999996 164.70999999999998 123.99999999999997 166.07999999999998 125.20999999999997 167.46999999999997 M 50.36 146 C 50.35 145.85 50.35 145.7 50.339999999999996 145.55 C 50.61 145.48000000000002 50.879999999999995 145.39000000000001 51.16 145.36 C 58.56999999999999 144.44000000000003 65.91 145.26000000000002 73.22 146.42000000000002 C 77.1 147.03000000000003 80.95 147.85000000000002 84.77 148.74 C 88.02 149.5 91.22999999999999 150.43 94.42999999999999 151.4 C 96.28999999999999 151.96 96.25999999999999 152.07 96.83999999999999 150.25 C 96.85 150.22 96.85999999999999 150.18 96.86999999999999 150.15 C 98.88 143.12 100.57 136.02 101.6 128.77 C 102.78 120.46000000000001 103.36999999999999 112.16000000000001 101.94999999999999 103.83000000000001 C 101.18999999999998 99.37000000000002 99.82999999999998 95.13000000000001 97.35 91.31000000000002 C 94.13 86.35000000000002 89.61999999999999 83.53000000000002 83.61999999999999 83.73000000000002 C 78.89999999999999 83.89000000000001 74.35 85.02000000000002 70.07999999999998 87.13000000000002 C 63.70999999999999 90.28000000000003 58.72999999999998 95.01000000000002 54.569999999999986 100.67000000000002 C 50.319999999999986 106.46000000000002 47.04999999999998 112.79000000000002 44.62999999999999 119.53000000000002 C 43.16999999999999 123.61000000000001 41.73999999999999 127.72000000000001 40.61999999999999 131.9 C 39.50999999999999 136.05 38.61999999999999 140.29000000000002 37.959999999999994 144.53 C 37.35999999999999 148.33 37.199999999999996 152.21 36.85999999999999 156.05 C 36.83999999999999 156.3 36.92999999999999 156.56 36.97999999999999 156.89000000000001 C 37.32999999999999 156.77 37.57999999999999 156.68 37.83999999999999 156.60000000000002 C 40.97999999999999 155.59000000000003 44.08999999999999 154.45000000000002 47.26999999999999 153.60000000000002 C 53.999999999999986 151.8 60.90999999999999 151.16000000000003 67.83999999999999 150.81000000000003 C 74.94999999999999 150.45000000000002 82.05999999999999 150.44000000000003 89.14999999999999 151.14000000000004 C 89.50999999999999 151.18000000000004 89.88 151.10000000000005 90.24999999999999 151.08000000000004 C 83.73999999999998 148.99000000000004 77.12999999999998 147.64000000000004 70.44999999999999 146.67000000000004 C 63.79 145.71 57.09 145.45 50.36 146 z M 133.13 195.8 C 133.21 195.70000000000002 133.29 195.60000000000002 133.38 195.49 C 133.69 195.70000000000002 134.04 195.87 134.29999999999998 196.12 C 137.16 198.86 139.89 201.75 142.90999999999997 204.31 C 145.11999999999998 206.19 147.68999999999997 207.67000000000002 150.12999999999997 209.28 C 150.47999999999996 209.51 151.01999999999995 209.43 151.47999999999996 209.49 C 151.47999999999996 209.03 151.59999999999997 208.52 151.44999999999996 208.11 C 150.16999999999996 204.74 148.42999999999995 201.59 146.12999999999997 198.83 C 144.49999999999997 196.88000000000002 142.50999999999996 195.24 140.68999999999997 193.46 C 140.42999999999998 193.21 140.21999999999997 192.91 139.98999999999998 192.64000000000001 C 140.07 192.55 140.15999999999997 192.46 140.23999999999998 192.37 C 140.52999999999997 192.56 140.85999999999999 192.71 141.10999999999999 192.95000000000002 C 142.55999999999997 194.27 144.02999999999997 195.58 145.42999999999998 196.96 C 146.42999999999998 197.95000000000002 147.18999999999997 199.22 148.27999999999997 200.09 C 151.42999999999998 202.61 154.66999999999996 205.01 157.91999999999996 207.4 C 158.73999999999995 208 159.70999999999995 208.44 160.66999999999996 208.79 C 161.43999999999997 209.07999999999998 161.73999999999995 208.72 161.42999999999995 207.95 C 161.05999999999995 207.03 160.65999999999994 206.1 160.15999999999994 205.23999999999998 C 156.77999999999994 199.45 152.75999999999993 194.17999999999998 147.50999999999993 189.92999999999998 C 147.19999999999993 189.67999999999998 146.94999999999993 189.33999999999997 146.66999999999993 189.04 C 146.73999999999992 188.95 146.80999999999992 188.87 146.88999999999993 188.78 C 147.18999999999994 188.94 147.53999999999994 189.05 147.77999999999992 189.28 C 150.0699999999999 191.47 152.33999999999992 193.68 154.60999999999993 195.9 C 155.04999999999993 196.33 155.36999999999992 196.93 155.87999999999994 197.24 C 158.44999999999993 198.84 161.04999999999993 200.4 163.67999999999995 201.89000000000001 C 164.14999999999995 202.16000000000003 164.83999999999995 202.06 165.41999999999996 202.13000000000002 C 165.29999999999995 201.55 165.32999999999996 200.87000000000003 165.01999999999995 200.42000000000002 C 163.15999999999994 197.78000000000003 161.39999999999995 195.04000000000002 159.26999999999995 192.62 C 155.16999999999996 187.95000000000002 150.26999999999995 184.19 145.05999999999995 180.83 C 139.21999999999994 177.07000000000002 133.06999999999994 173.9 126.63999999999994 171.29000000000002 C 126.13999999999994 171.09000000000003 125.65999999999994 170.8 125.51999999999994 171.69000000000003 C 125.23999999999994 173.55000000000004 124.14999999999993 174.90000000000003 122.64999999999993 175.94000000000003 C 121.08999999999993 177.02000000000004 119.35999999999993 177.59000000000003 117.46999999999994 177.82000000000002 C 111.65999999999994 178.52 106.49999999999994 177.26000000000002 102.38999999999994 172.89000000000001 C 100.25999999999995 170.63000000000002 99.22999999999995 166.96 101.29999999999994 164.18 C 101.86999999999993 163.42000000000002 101.16999999999994 163.33 100.65999999999994 163.23000000000002 C 95.29999999999994 162.20000000000002 89.90999999999994 161.48000000000002 84.42999999999994 161.47000000000003 C 79.05999999999993 161.45000000000002 73.72999999999993 161.85000000000002 68.50999999999993 163.09000000000003 C 64.89999999999993 163.95000000000005 61.30999999999993 164.96000000000004 57.789999999999935 166.14000000000004 C 52.34999999999994 167.96000000000004 47.15999999999993 170.34000000000003 42.45999999999994 173.69000000000005 C 41.829999999999934 174.14000000000004 41.69999999999994 174.60000000000005 41.95999999999994 175.27000000000007 C 42.759999999999934 177.28000000000006 43.429999999999936 179.36000000000007 44.36999999999993 181.31000000000006 C 47.859999999999935 188.56000000000006 53.33999999999993 192.94000000000005 61.69999999999993 193.16000000000005 C 69.24999999999993 193.36000000000004 76.79999999999993 193.65000000000006 84.34999999999994 193.90000000000006 C 88.75999999999993 194.05000000000007 93.17999999999994 194.20000000000007 97.58999999999993 194.38000000000005 C 99.05999999999993 194.44000000000005 99.08999999999993 194.49000000000007 99.27999999999993 193.07000000000005 C 99.99999999999993 187.45000000000005 101.32999999999993 181.97000000000006 103.08999999999993 176.58000000000004 C 103.39999999999993 175.62000000000003 103.68999999999993 175.62000000000003 104.41999999999993 176.12000000000003 C 106.82999999999993 177.75000000000003 109.47999999999993 178.75000000000003 112.39999999999993 179.00000000000003 C 113.78999999999994 179.12000000000003 115.17999999999994 179.20000000000002 116.63999999999993 179.31000000000003 C 116.51999999999992 179.72000000000003 116.44999999999993 180.05000000000004 116.32999999999993 180.37000000000003 C 114.49999999999993 185.12000000000003 113.24999999999993 190.01000000000005 112.53999999999992 195.04000000000002 C 112.41999999999992 195.88000000000002 112.57999999999993 196.25000000000003 113.49999999999991 196.45000000000002 C 117.87999999999991 197.42000000000002 122.16999999999992 198.75000000000003 126.14999999999992 200.85000000000002 C 130.89999999999992 203.36 135.55999999999992 206.05 140.26999999999992 208.63000000000002 C 140.99999999999991 209.03000000000003 141.88999999999993 209.69000000000003 142.62999999999994 208.94000000000003 C 143.28999999999994 208.26000000000002 142.62999999999994 207.45000000000002 142.25999999999993 206.78000000000003 C 140.07999999999993 202.89000000000004 137.16999999999993 199.59000000000003 133.86999999999995 196.62000000000003 C 133.58 196.37 133.37 196.07 133.13 195.8 z M 122.89 68.31 C 122.92 68.47 122.94 68.62 122.97 68.78 C 122.27 68.9 121.56 69.14 120.86 69.13 C 120.01 69.11999999999999 119.65 69.5 119.37 70.22999999999999 C 117.83 74.24999999999999 116.25 78.24 114.73 82.25999999999999 C 114.57000000000001 82.69 114.5 83.3 114.67 83.69 C 115.93 86.52 117.10000000000001 89.39999999999999 118.61 92.09 C 120.48 95.42 122.84 98.4 126.2 100.41 C 128.6 101.85 131.15 102.25999999999999 133.85 101.44 C 136.72 100.57 137.69 98.16 138.35999999999999 95.6 C 139.14 92.64 138.85 89.63 138.48 86.64999999999999 C 138.42999999999998 86.27 138.03 85.82 137.67 85.61999999999999 C 134.85999999999999 84.07999999999998 132.70999999999998 81.99 131.92999999999998 78.78999999999999 C 131.61999999999998 77.50999999999999 131.42999999999998 76.17999999999999 132.23999999999998 74.89999999999999 C 132.45999999999998 75.02 132.58999999999997 75.07 132.67999999999998 75.14999999999999 C 136.21999999999997 78.24 140.32999999999998 80.19999999999999 144.93999999999997 80.97999999999999 C 148.39999999999998 81.57 151.85999999999996 81.36999999999999 154.94999999999996 79.46 C 157.85999999999996 77.64999999999999 160.37999999999997 74.61999999999999 159.44999999999996 70.47999999999999 C 159.06999999999996 68.78999999999999 158.34999999999997 67.14999999999999 157.59999999999997 65.57 C 156.36999999999998 62.989999999999995 154.83999999999997 60.529999999999994 154.34999999999997 57.669999999999995 C 153.96999999999997 55.46999999999999 153.79999999999995 53.23 153.54999999999995 51.00999999999999 C 153.23999999999995 48.25999999999999 153.23999999999995 48.25999999999999 150.52999999999994 47.64999999999999 C 148.16999999999993 47.11999999999999 148.03999999999994 46.80999999999999 149.38999999999996 44.919999999999995 C 149.39999999999995 44.89999999999999 149.37999999999997 44.85999999999999 149.33999999999995 44.67999999999999 C 147.18999999999994 44.57999999999999 145.01999999999995 44.56999999999999 142.73999999999995 45.279999999999994 C 143.16999999999996 45.53999999999999 143.43999999999994 45.68999999999999 143.69999999999996 45.849999999999994 C 144.96999999999997 46.63999999999999 144.93999999999997 47.62 143.62999999999997 48.339999999999996 C 142.92999999999998 48.72 142.21999999999997 49.059999999999995 141.53999999999996 49.459999999999994 C 140.19999999999996 50.239999999999995 138.91999999999996 51.10999999999999 137.54999999999995 51.82999999999999 C 136.46999999999994 52.39999999999999 135.77999999999994 51.88999999999999 135.88999999999996 50.68999999999999 C 135.94999999999996 49.98999999999999 136.16999999999996 49.30999999999999 136.30999999999995 48.60999999999999 C 135.87999999999994 48.68999999999999 135.59999999999994 48.86999999999999 135.39999999999995 49.11999999999999 C 134.41999999999996 50.27999999999999 133.34999999999994 51.37999999999999 132.51999999999995 52.62999999999999 C 131.33999999999995 54.40999999999999 130.38999999999996 56.32999999999999 129.25999999999996 58.139999999999986 C 128.19999999999996 59.83999999999999 127.07999999999996 60.009999999999984 125.61999999999996 58.649999999999984 C 124.42999999999996 57.54999999999998 123.42999999999996 56.259999999999984 122.25999999999996 55.139999999999986 C 121.18999999999997 54.11999999999998 120.11999999999996 53.04999999999998 118.85999999999996 52.30999999999999 C 116.34999999999995 50.80999999999999 113.72999999999996 50.679999999999986 111.32999999999996 52.609999999999985 C 109.07999999999996 54.429999999999986 108.18999999999996 56.789999999999985 108.83999999999996 59.68999999999998 C 109.28999999999996 61.69999999999998 110.41999999999996 63.27999999999999 111.89999999999996 64.60999999999999 C 114.79999999999997 67.19999999999999 118.02999999999996 68.94999999999999 122.11999999999996 68.26999999999998 C 122.37 68.24 122.64 68.3 122.89 68.31 z M 33.95 179.61 C 34.980000000000004 178.62 35.67 177.86 36.46 177.22000000000003 C 42.25 172.52000000000004 48.56 168.71000000000004 55.58 166.13000000000002 C 61.46 163.97000000000003 67.44 162.24000000000004 73.69 161.45000000000002 C 79.28999999999999 160.74 84.88 160.44000000000003 90.5 161.07000000000002 C 92.65 161.31000000000003 94.8 161.61 96.95 161.91000000000003 C 97.71000000000001 162.02000000000004 98.18 161.92000000000002 98.33 161.03000000000003 C 98.55 159.71000000000004 98.95 158.42000000000002 99.17 157.10000000000002 C 99.60000000000001 154.55 98.67 153.12000000000003 96.10000000000001 152.81000000000003 C 91.45 152.24000000000004 86.79 151.67000000000004 82.11000000000001 151.42000000000004 C 73.13000000000001 150.94000000000005 64.18 151.47000000000006 55.280000000000015 152.76000000000005 C 50.390000000000015 153.47000000000006 45.59000000000002 154.49000000000004 40.920000000000016 156.13000000000005 C 38.05000000000002 157.14000000000004 35.41000000000002 158.48000000000005 33.31000000000002 160.74000000000007 C 31.770000000000017 162.39000000000007 30.950000000000017 164.27000000000007 30.940000000000015 166.61000000000007 C 30.930000000000014 168.70000000000007 31.120000000000015 170.75000000000006 31.670000000000016 172.74000000000007 C 32.31 174.97 33.13 177.15 33.95 179.61 z M 113.72 83.58 C 111.4 85.09 109.15 86.53 106.92999999999999 88.03 C 106.74 88.16 106.66 88.71000000000001 106.74999999999999 88.99 C 107.88999999999999 92.36999999999999 108.97999999999999 95.78 110.26999999999998 99.11 C 111.93999999999998 103.4 113.69999999999999 107.67 115.59999999999998 111.87 C 116.48999999999998 113.83 117.70999999999998 115.66000000000001 118.94999999999997 117.43 C 119.92999999999998 118.82000000000001 121.04999999999997 118.9 122.42999999999998 117.88000000000001 C 123.13999999999997 117.35000000000001 123.78999999999998 116.71000000000001 124.33999999999997 116.01 C 127.16999999999997 112.38000000000001 128.93999999999997 108.19 130.51999999999998 103.92 C 130.98999999999998 102.65 130.96999999999997 102.61 129.61999999999998 102.41 C 127.57999999999997 102.11 125.82999999999997 101.17999999999999 124.24999999999997 99.92999999999999 C 120.49999999999997 96.97 118.04999999999997 93.03999999999999 116.00999999999998 88.82 C 115.21 87.14 114.52 85.42 113.72 83.58 z M 115.46 174.99 C 116.77999999999999 174.79000000000002 118.14999999999999 174.74 119.41 174.35000000000002 C 120.6 173.98000000000002 121.8 173.39000000000001 122.75999999999999 172.61 C 124.96999999999998 170.82000000000002 124.82 167.8 122.55 165.31 C 118.77 161.16 110.83 159.4 105.63 161.57 C 102.69999999999999 162.79 101.27 165.31 102.41 167.87 C 103.00999999999999 169.22 104.1 170.5 105.25999999999999 171.44 C 108.19 173.8 111.68 174.8 115.46 174.99 z M 139.9 90.55 C 139.81 90.61 139.71 90.67 139.62 90.74 C 139.6 91.03999999999999 139.6 91.33999999999999 139.56 91.64 C 139.29 93.4 139.18 95.22 138.7 96.92 C 137.91 99.69 136.28 101.79 133.2 102.3 C 132.42 102.42999999999999 132.48 102.89999999999999 132.69 103.45 C 133.48 105.5 134.15 107.62 135.10999999999999 109.59 C 136.1 111.62 137.24999999999997 113.60000000000001 138.55999999999997 115.44 C 139.67999999999998 117 141.01999999999998 116.81 141.77999999999997 115.05 C 142.43999999999997 113.52 142.96999999999997 111.88 143.24999999999997 110.22999999999999 C 144.11999999999998 105.18999999999998 144.32999999999998 100.07999999999998 144.14999999999998 94.96999999999998 C 144.14 94.59999999999998 144.11999999999998 94.09999999999998 143.89999999999998 93.89999999999999 C 142.61 92.74 141.24 91.66 139.9 90.55 z M 40.97 174.85 C 38.839999999999996 176.15 36.96 177.45 35.46 179.23 C 34.43 180.45 34.67 181.09 36.230000000000004 181.36999999999998 C 36.57000000000001 181.42999999999998 36.92 181.45999999999998 37.260000000000005 181.43999999999997 C 38.970000000000006 181.31999999999996 40.68000000000001 181.16999999999996 42.400000000000006 181.03999999999996 C 43.13 180.98999999999995 43.14000000000001 180.59999999999997 42.92000000000001 180.04999999999995 C 42.45000000000001 178.86999999999995 41.99000000000001 177.68999999999994 41.540000000000006 176.49999999999994 C 41.35 175.99 41.19 175.48 40.97 174.85 z" stroke-linecap="round" />
</g>
		<g transform="matrix(1 0 0 1 13.95 34.3)"  >
<path style="stroke: none; stroke-width: 1; stroke-dasharray: none; stroke-linecap: butt; stroke-dashoffset: 0; stroke-linejoin: miter; stroke-miterlimit: 4; fill: rgb(0,0,0); fill-rule: nonzero; opacity: 1;" vector-effect="non-scaling-stroke"  transform=" translate(-165.23, -150.21)" d="M 161.06 120.94 C 161.22 121.16 161.43 121.36 161.54 121.6 C 163.35 125.52 164.64 129.62 165.70999999999998 133.79 C 167.26 139.84 168.26999999999998 146 168.87999999999997 152.20999999999998 C 169.56999999999996 159.17999999999998 169.98999999999998 166.17 169.51999999999995 173.18999999999997 C 169.39999999999995 174.97999999999996 169.25999999999996 176.76999999999998 169.10999999999996 178.54999999999998 C 169.07999999999996 178.86999999999998 168.91999999999996 179.17999999999998 168.65999999999997 179.48 C 169.84999999999997 159.48999999999998 168.28999999999996 139.89999999999998 160.74999999999997 121.11999999999999 C 160.86 121.05 160.96 121 161.06 120.94 z" stroke-linecap="round" />
</g>
		<g transform="matrix(1 0 0 1 -81.47 4.4)"  >
<path style="stroke: none; stroke-width: 1; stroke-dasharray: none; stroke-linecap: butt; stroke-dashoffset: 0; stroke-linejoin: miter; stroke-miterlimit: 4; fill: rgb(255,255,255); fill-rule: nonzero; opacity: 1;" vector-effect="non-scaling-stroke"  transform=" translate(-69.82, -120.32)" d="M 50.36 146 C 57.09 145.45 63.79 145.71 70.45 146.68 C 77.13 147.65 83.74000000000001 149 90.25 151.09 C 89.88 151.11 89.51 151.18 89.15 151.15 C 82.05000000000001 150.45000000000002 74.94 150.45000000000002 67.84 150.82 C 60.910000000000004 151.18 54 151.81 47.27 153.60999999999999 C 44.09 154.45999999999998 40.980000000000004 155.6 37.84 156.60999999999999 C 37.59 156.69 37.330000000000005 156.77999999999997 36.980000000000004 156.89999999999998 C 36.93000000000001 156.56999999999996 36.830000000000005 156.30999999999997 36.86000000000001 156.05999999999997 C 37.20000000000001 152.21999999999997 37.36000000000001 148.33999999999997 37.96000000000001 144.53999999999996 C 38.620000000000005 140.28999999999996 39.510000000000005 136.05999999999997 40.620000000000005 131.90999999999997 C 41.74 127.72999999999996 43.17 123.61999999999998 44.63 119.53999999999996 C 47.050000000000004 112.78999999999996 50.32 106.46999999999997 54.57 100.67999999999996 C 58.730000000000004 95.00999999999996 63.72 90.28999999999996 70.08 87.13999999999996 C 74.35 85.02999999999996 78.9 83.89999999999996 83.62 83.73999999999995 C 89.62 83.53999999999995 94.13000000000001 86.36999999999995 97.35000000000001 91.31999999999995 C 99.83000000000001 95.13999999999994 101.19000000000001 99.37999999999995 101.95 103.83999999999995 C 103.38000000000001 112.17999999999995 102.78 120.47999999999995 101.60000000000001 128.77999999999994 C 100.57000000000001 136.02999999999994 98.89000000000001 143.12999999999994 96.87 150.15999999999994 C 96.86 150.18999999999994 96.85000000000001 150.22999999999993 96.84 150.25999999999993 C 96.26 152.07999999999993 96.29 151.96999999999994 94.43 151.40999999999994 C 91.24000000000001 150.43999999999994 88.02000000000001 149.49999999999994 84.77000000000001 148.74999999999994 C 80.95000000000002 147.85999999999996 77.10000000000001 147.03999999999994 73.22000000000001 146.42999999999995 C 65.91000000000001 145.26999999999995 58.570000000000014 144.44999999999996 51.16000000000001 145.36999999999995 C 50.88000000000001 145.39999999999995 50.610000000000014 145.49999999999994 50.34000000000001 145.55999999999995 C 50.35 145.7 50.35 145.85 50.36 146 z" stroke-linecap="round" />
</g>
		<g transform="matrix(1 0 0 1 -47.69 69.57)"  >
<path style="stroke: none; stroke-width: 1; stroke-dasharray: none; stroke-linecap: butt; stroke-dashoffset: 0; stroke-linejoin: miter; stroke-miterlimit: 4; fill: rgb(255,255,255); fill-rule: nonzero; opacity: 1;" vector-effect="non-scaling-stroke"  transform=" translate(-103.6, -185.48)" d="M 133.13 195.8 C 133.37 196.07000000000002 133.57 196.38000000000002 133.84 196.62 C 137.14000000000001 199.59 140.05 202.89000000000001 142.23000000000002 206.78 C 142.60000000000002 207.45 143.26000000000002 208.26 142.60000000000002 208.94 C 141.86 209.7 140.97000000000003 209.03 140.24 208.63 C 135.53 206.04999999999998 130.87 203.37 126.12 200.85 C 122.14 198.73999999999998 117.86 197.42 113.47 196.45 C 112.55 196.25 112.39 195.88 112.51 195.04 C 113.22 190 114.47 185.10999999999999 116.30000000000001 180.37 C 116.42000000000002 180.06 116.49000000000001 179.72 116.61000000000001 179.31 C 115.14000000000001 179.2 113.75000000000001 179.12 112.37000000000002 179 C 109.46000000000002 178.75 106.80000000000001 177.75 104.39000000000001 176.12 C 103.66000000000001 175.62 103.37000000000002 175.62 103.06000000000002 176.58 C 101.31000000000002 181.97 99.98000000000002 187.45000000000002 99.25000000000001 193.07000000000002 C 99.07000000000001 194.49 99.03000000000002 194.44000000000003 97.56000000000002 194.38000000000002 C 93.15000000000002 194.20000000000002 88.73000000000002 194.05 84.32000000000002 193.90000000000003 C 76.77000000000002 193.64000000000004 69.22000000000003 193.35000000000002 61.67000000000002 193.16000000000003 C 53.310000000000024 192.94000000000003 47.83000000000003 188.56000000000003 44.340000000000025 181.31000000000003 C 43.40000000000003 179.36000000000004 42.730000000000025 177.29000000000002 41.93000000000002 175.27000000000004 C 41.67000000000002 174.61000000000004 41.80000000000002 174.14000000000004 42.43000000000002 173.69000000000003 C 47.130000000000024 170.34000000000003 52.32000000000002 167.95000000000002 57.76000000000002 166.14000000000001 C 61.28000000000002 164.97000000000003 64.87000000000002 163.96 68.48000000000002 163.09 C 73.70000000000002 161.84 79.03000000000002 161.45000000000002 84.40000000000002 161.47 C 89.88000000000002 161.49 95.27000000000002 162.2 100.63000000000002 163.23 C 101.14000000000003 163.32999999999998 101.84000000000002 163.42 101.27000000000002 164.17999999999998 C 99.20000000000003 166.95 100.23000000000002 170.62999999999997 102.36000000000003 172.89 C 106.47000000000003 177.26 111.63000000000002 178.52999999999997 117.44000000000003 177.82 C 119.33000000000003 177.59 121.07000000000002 177.01999999999998 122.62000000000003 175.94 C 124.12000000000003 174.9 125.20000000000003 173.55 125.49000000000004 171.69 C 125.63000000000004 170.8 126.11000000000004 171.09 126.61000000000004 171.29 C 133.04000000000005 173.91 139.18000000000004 177.07999999999998 145.03000000000003 180.82999999999998 C 150.25000000000003 184.17999999999998 155.15000000000003 187.95 159.24000000000004 192.61999999999998 C 161.36000000000004 195.03999999999996 163.13000000000002 197.77999999999997 164.99000000000004 200.42 C 165.30000000000004 200.85999999999999 165.27000000000004 201.54999999999998 165.39000000000004 202.13 C 164.80000000000004 202.06 164.12000000000003 202.16 163.65000000000003 201.89 C 161.02000000000004 200.39999999999998 158.42000000000004 198.83999999999997 155.85000000000002 197.23999999999998 C 155.34000000000003 196.92999999999998 155.02 196.32999999999998 154.58 195.89999999999998 C 152.31 193.67999999999998 150.04000000000002 191.46999999999997 147.75 189.27999999999997 C 147.51 189.04999999999998 147.16 188.94999999999996 146.86 188.77999999999997 C 146.79000000000002 188.86999999999998 146.72000000000003 188.94999999999996 146.64000000000001 189.03999999999996 C 146.92000000000002 189.33999999999997 147.16000000000003 189.67999999999995 147.48000000000002 189.92999999999995 C 152.73000000000002 194.17999999999995 156.75000000000003 199.44999999999996 160.13000000000002 205.23999999999995 C 160.63000000000002 206.09999999999997 161.03000000000003 207.01999999999995 161.40000000000003 207.94999999999996 C 161.71000000000004 208.71999999999997 161.41000000000003 209.07999999999996 160.64000000000004 208.78999999999996 C 159.68000000000004 208.43999999999997 158.71000000000004 207.99999999999997 157.89000000000004 207.39999999999998 C 154.64000000000004 205.01999999999998 151.40000000000003 202.60999999999999 148.25000000000006 200.08999999999997 C 147.16000000000005 199.21999999999997 146.40000000000006 197.95999999999998 145.40000000000006 196.95999999999998 C 144.01000000000008 195.57999999999998 142.54000000000005 194.26999999999998 141.08000000000007 192.95 C 140.83000000000007 192.72 140.50000000000006 192.56 140.21000000000006 192.36999999999998 C 140.13000000000005 192.45999999999998 140.04000000000008 192.54999999999998 139.96000000000006 192.64 C 140.19000000000005 192.91 140.41000000000005 193.20999999999998 140.66000000000005 193.45999999999998 C 142.48000000000005 195.23999999999998 144.48000000000005 196.87999999999997 146.10000000000005 198.82999999999998 C 148.40000000000006 201.58999999999997 150.14000000000004 204.73999999999998 151.42000000000004 208.10999999999999 C 151.57000000000005 208.51999999999998 151.45000000000005 209.02999999999997 151.45000000000005 209.48999999999998 C 151.00000000000006 209.42999999999998 150.45000000000005 209.51 150.10000000000005 209.27999999999997 C 147.66000000000005 207.66999999999996 145.09000000000006 206.19999999999996 142.88000000000005 204.30999999999997 C 139.87000000000006 201.74999999999997 137.14000000000004 198.85999999999999 134.27000000000004 196.11999999999998 C 134.00000000000003 195.86999999999998 133.66000000000003 195.7 133.35000000000005 195.48999999999998 C 133.3 195.59 133.22 195.7 133.13 195.8 z" stroke-linecap="round" />
</g>
		<g transform="matrix(1 0 0 1 -17.14 -42.66)"  >
<path style="stroke: none; stroke-width: 1; stroke-dasharray: none; stroke-linecap: butt; stroke-dashoffset: 0; stroke-linejoin: miter; stroke-miterlimit: 4; fill: rgb(255,255,255); fill-rule: nonzero; opacity: 1;" vector-effect="non-scaling-stroke"  transform=" translate(-134.15, -73.25)" d="M 122.89 68.31 C 122.63 68.3 122.37 68.24000000000001 122.13 68.28 C 118.03999999999999 68.96000000000001 114.81 67.21000000000001 111.91 64.62 C 110.42 63.290000000000006 109.3 61.71000000000001 108.85 59.7 C 108.19999999999999 56.800000000000004 109.08999999999999 54.440000000000005 111.33999999999999 52.620000000000005 C 113.72999999999999 50.690000000000005 116.35 50.82000000000001 118.86999999999999 52.32000000000001 C 120.11999999999999 53.07000000000001 121.19999999999999 54.14000000000001 122.27 55.150000000000006 C 123.44 56.27 124.45 57.56 125.63 58.660000000000004 C 127.08999999999999 60.02 128.21 59.84 129.26999999999998 58.150000000000006 C 130.39999999999998 56.34 131.35 54.410000000000004 132.52999999999997 52.64000000000001 C 133.35999999999999 51.38000000000001 134.42999999999998 50.28000000000001 135.40999999999997 49.13000000000001 C 135.61999999999998 48.89000000000001 135.89999999999998 48.71000000000001 136.31999999999996 48.62000000000001 C 136.17999999999998 49.31000000000001 135.95999999999995 50.000000000000014 135.89999999999998 50.70000000000001 C 135.78999999999996 51.90000000000001 136.48 52.41000000000001 137.55999999999997 51.84000000000001 C 138.92999999999998 51.13000000000001 140.21999999999997 50.25000000000001 141.54999999999998 49.47000000000001 C 142.23 49.070000000000014 142.95 48.73000000000001 143.64 48.350000000000016 C 144.95999999999998 47.63000000000002 144.98 46.65000000000001 143.70999999999998 45.860000000000014 C 143.45 45.70000000000002 143.17999999999998 45.55000000000001 142.74999999999997 45.29000000000001 C 145.02999999999997 44.58000000000001 147.19999999999996 44.59000000000001 149.34999999999997 44.69000000000001 C 149.38999999999996 44.87000000000001 149.40999999999997 44.91000000000001 149.39999999999998 44.930000000000014 C 148.04999999999998 46.820000000000014 148.17999999999998 47.140000000000015 150.53999999999996 47.66000000000001 C 153.25999999999996 48.27000000000001 153.24999999999997 48.27000000000001 153.55999999999997 51.02000000000001 C 153.80999999999997 53.24000000000001 153.98999999999998 55.48000000000001 154.35999999999999 57.68000000000001 C 154.85 60.540000000000006 156.39 63.00000000000001 157.60999999999999 65.58000000000001 C 158.35999999999999 67.16000000000001 159.07999999999998 68.80000000000001 159.45999999999998 70.49000000000001 C 160.37999999999997 74.63000000000001 157.86999999999998 77.66000000000001 154.95999999999998 79.47000000000001 C 151.86999999999998 81.39000000000001 148.40999999999997 81.59000000000002 144.95 80.99000000000001 C 140.35 80.2 136.23 78.25000000000001 132.69 75.16000000000001 C 132.59 75.08000000000001 132.46 75.03000000000002 132.25 74.91000000000001 C 131.44 76.19000000000001 131.63 77.52000000000001 131.94 78.80000000000001 C 132.72 82.01 134.88 84.09000000000002 137.68 85.63000000000001 C 138.04000000000002 85.83000000000001 138.44 86.28000000000002 138.49 86.66000000000001 C 138.86 89.64000000000001 139.15 92.65 138.37 95.61000000000001 C 137.70000000000002 98.17000000000002 136.73000000000002 100.57000000000001 133.86 101.45000000000002 C 131.16000000000003 102.27000000000001 128.61 101.86000000000001 126.21000000000001 100.42000000000002 C 122.85000000000001 98.41000000000001 120.49000000000001 95.43000000000002 118.62 92.10000000000002 C 117.11 89.41000000000003 115.93 86.53000000000003 114.68 83.70000000000002 C 114.5 83.30000000000001 114.58000000000001 82.70000000000002 114.74000000000001 82.27000000000001 C 116.27000000000001 78.25000000000001 117.85000000000001 74.25000000000001 119.38000000000001 70.24000000000001 C 119.66000000000001 69.51 120.03000000000002 69.13000000000001 120.87 69.14000000000001 C 121.57000000000001 69.15000000000002 122.28 68.92000000000002 122.98 68.79000000000002 C 122.94 68.62 122.92 68.47 122.89 68.31 z M 137.67 54.73 C 137.63 54.879999999999995 137.58999999999997 55.029999999999994 137.54999999999998 55.18 C 138.33999999999997 55.48 139.11999999999998 55.9 139.93999999999997 56.07 C 141.62999999999997 56.42 143.29999999999998 56.28 144.81999999999996 55.39 C 145.52999999999997 54.97 145.56999999999996 54.04 145.07999999999996 53.1 C 144.64999999999995 52.28 144.10999999999996 52.59 143.51999999999995 52.85 C 143.01999999999995 53.08 142.49999999999994 53.27 141.97999999999996 53.43 C 140.55 53.88 139.11 54.3 137.67 54.73 z M 149.64 54.99 C 150.2 54.93 150.45999999999998 54.9 150.72 54.870000000000005 C 151.74 54.760000000000005 152.55 54.28 153.1 53.410000000000004 C 153.54 52.730000000000004 153.35999999999999 52.43000000000001 152.54999999999998 52.39 C 151.66 52.34 150.76999999999998 52.27 149.88 52.2 C 148.32999999999998 52.09 147.82 52.78 148.57 54.150000000000006 C 149.09 55.10000000000001 149.76 55.99000000000001 150.44 56.85000000000001 C 151.41 58.07000000000001 151.42 58.37000000000001 150.32 59.43000000000001 C 150.13 59.61000000000001 149.97 59.830000000000005 149.63 60.220000000000006 C 151.60999999999999 59.660000000000004 152.18 58.18000000000001 151.16 56.85000000000001 C 150.73 56.27 150.25 55.72 149.64 54.99 z M 113.66 55.93 C 113.61999999999999 56.07 113.57 56.21 113.53 56.339999999999996 C 113.81 56.44 114.08 56.62 114.36 56.63999999999999 C 117.7 56.86999999999999 119.78 58.71999999999999 121.02 61.699999999999996 C 121.19 62.099999999999994 121.44 62.47 121.64999999999999 62.849999999999994 C 121.77999999999999 62.769999999999996 121.91999999999999 62.699999999999996 122.05 62.62 C 121.64 60.65 120.64 58.98 119.03999999999999 57.699999999999996 C 117.46 56.44 115.67 55.76 113.66 55.93 z M 150.81 65.06 C 147.67000000000002 66.49000000000001 145.66 65.29 144.31 62.32 C 144.05 64.62 145.38 66.33 147.45 66.61 C 149.25 66.85 150.64 66.27 150.81 65.06 z" stroke-linecap="round" />
</g>
		<g transform="matrix(1 0 0 1 -86.16 49.52)"  >
<path style="stroke: none; stroke-width: 1; stroke-dasharray: none; stroke-linecap: butt; stroke-dashoffset: 0; stroke-linejoin: miter; stroke-miterlimit: 4; fill: rgb(255,255,255); fill-rule: nonzero; opacity: 1;" vector-effect="non-scaling-stroke"  transform=" translate(-65.12, -165.43)" d="M 33.95 179.61 C 33.13 177.15 32.31 174.97000000000003 31.690000000000005 172.74 C 31.130000000000006 170.75 30.950000000000006 168.71 30.960000000000004 166.61 C 30.970000000000006 164.27 31.790000000000003 162.39000000000001 33.330000000000005 160.74 C 35.43000000000001 158.48000000000002 38.07000000000001 157.14000000000001 40.940000000000005 156.13 C 45.61000000000001 154.49 50.410000000000004 153.48 55.300000000000004 152.76 C 64.2 151.45999999999998 73.15 150.94 82.13 151.42 C 86.8 151.67 91.47 152.23999999999998 96.11999999999999 152.80999999999997 C 98.67999999999999 153.11999999999998 99.61999999999999 154.54999999999998 99.18999999999998 157.09999999999997 C 98.96999999999998 158.41999999999996 98.56999999999998 159.70999999999998 98.34999999999998 161.02999999999997 C 98.19999999999997 161.91999999999996 97.72999999999998 162.01999999999998 96.96999999999998 161.90999999999997 C 94.81999999999998 161.59999999999997 92.66999999999999 161.30999999999997 90.51999999999998 161.06999999999996 C 84.89999999999998 160.43999999999997 79.30999999999997 160.73999999999995 73.70999999999998 161.44999999999996 C 67.45999999999998 162.23999999999995 61.479999999999976 163.96999999999997 55.59999999999998 166.12999999999997 C 48.579999999999984 168.70999999999998 42.26999999999998 172.50999999999996 36.479999999999976 177.21999999999997 C 35.67 177.86 34.98 178.62 33.95 179.61 z" stroke-linecap="round" />
</g>
		<g transform="matrix(1 0 0 1 -32.52 -14.84)"  >
<path style="stroke: none; stroke-width: 1; stroke-dasharray: none; stroke-linecap: butt; stroke-dashoffset: 0; stroke-linejoin: miter; stroke-miterlimit: 4; fill: rgb(255,255,255); fill-rule: nonzero; opacity: 1;" vector-effect="non-scaling-stroke"  transform=" translate(-118.76, -101.07)" d="M 113.72 83.58 C 114.52 85.42 115.21 87.14 116.02 88.8 C 118.06 93.02 120.52 96.95 124.25999999999999 99.91 C 125.85 101.16 127.58999999999999 102.09 129.63 102.39 C 130.98 102.59 131 102.63 130.53 103.9 C 128.95 108.18 127.18 112.36000000000001 124.35 115.99000000000001 C 123.80999999999999 116.69000000000001 123.14999999999999 117.33000000000001 122.44 117.86000000000001 C 121.06 118.89000000000001 119.94 118.81000000000002 118.96 117.41000000000001 C 117.72 115.64000000000001 116.5 113.81000000000002 115.61 111.85000000000001 C 113.71 107.65 111.95 103.39000000000001 110.28 99.09 C 108.98 95.76 107.9 92.35000000000001 106.76 88.97 C 106.67 88.69 106.74000000000001 88.15 106.94000000000001 88.01 C 109.15 86.54 111.4 85.09 113.72 83.58 z" stroke-linecap="round" />
</g>
		<g transform="matrix(1 0 0 1 -38.11 51.9)"  >
<path style="stroke: none; stroke-width: 1; stroke-dasharray: none; stroke-linecap: butt; stroke-dashoffset: 0; stroke-linejoin: miter; stroke-miterlimit: 4; fill: rgb(255,255,255); fill-rule: nonzero; opacity: 1;" vector-effect="non-scaling-stroke"  transform=" translate(-113.18, -167.81)" d="M 115.46 174.99 C 111.67999999999999 174.79000000000002 108.19999999999999 173.8 105.25999999999999 171.44 C 104.08999999999999 170.5 103.00999999999999 169.22 102.41 167.87 C 101.27 165.32 102.7 162.79 105.63 161.57 C 110.83999999999999 159.4 118.78 161.16 122.55 165.31 C 124.82 167.8 124.97 170.82 122.75999999999999 172.61 C 121.8 173.39000000000001 120.6 173.97000000000003 119.41 174.35000000000002 C 118.15 174.75 116.78 174.79 115.46 174.99 z M 113.98 166.45 C 113.72 166.23 113.43 165.82999999999998 113.06 165.70999999999998 C 111.18 165.05999999999997 109.27 164.45999999999998 107.36 163.89 C 107.07 163.80999999999997 106.71 163.98999999999998 106.38 164.04999999999998 C 106.6 164.32999999999998 106.75999999999999 164.76 107.03999999999999 164.85999999999999 C 108.64999999999999 165.45 110.28999999999999 165.98999999999998 111.91999999999999 166.49999999999997 C 112.50999999999999 166.67999999999998 112.69999999999999 166.95999999999998 112.48999999999998 167.55999999999997 C 112.16999999999999 168.46999999999997 111.87999999999998 169.39 111.64999999999998 170.31999999999996 C 111.59999999999998 170.53999999999996 111.83999999999997 170.81999999999996 111.93999999999998 171.07999999999996 C 112.15999999999998 170.95999999999995 112.51999999999998 170.88999999999996 112.57999999999998 170.70999999999995 C 113.06 169.38 113.47 168.03 113.98 166.45 z" stroke-linecap="round" />
</g>
		<g transform="matrix(1 0 0 1 -12.9 -12.39)"  >
<path style="stroke: none; stroke-width: 1; stroke-dasharray: none; stroke-linecap: butt; stroke-dashoffset: 0; stroke-linejoin: miter; stroke-miterlimit: 4; fill: rgb(255,255,255); fill-rule: nonzero; opacity: 1;" vector-effect="non-scaling-stroke"  transform=" translate(-138.38, -103.52)" d="M 139.9 90.55 C 141.24 91.66 142.6 92.74 143.9 93.89 C 144.13 94.09 144.14000000000001 94.59 144.15 94.96 C 144.33 100.07 144.12 105.16999999999999 143.25 110.22 C 142.97 111.86 142.44 113.5 141.78 115.03999999999999 C 141.02 116.8 139.68 116.99 138.56 115.42999999999999 C 137.24 113.6 136.1 111.61 135.11 109.58 C 134.15 107.61 133.48000000000002 105.49 132.69000000000003 103.44 C 132.48000000000002 102.89999999999999 132.42000000000002 102.42 133.20000000000002 102.28999999999999 C 136.28000000000003 101.77999999999999 137.91000000000003 99.69 138.70000000000002 96.91 C 139.18 95.21 139.29000000000002 93.39999999999999 139.56000000000003 91.63 C 139.61000000000004 91.33 139.60000000000002 91.03 139.62000000000003 90.72999999999999 C 139.72 90.68 139.81 90.61 139.9 90.55 z" stroke-linecap="round" />
</g>
		<g transform="matrix(1 0 0 1 -112.35 62.23)"  >
<path style="stroke: none; stroke-width: 1; stroke-dasharray: none; stroke-linecap: butt; stroke-dashoffset: 0; stroke-linejoin: miter; stroke-miterlimit: 4; fill: rgb(255,255,255); fill-rule: nonzero; opacity: 1;" vector-effect="non-scaling-stroke"  transform=" translate(-38.93, -178.14)" d="M 40.97 174.85 C 41.19 175.48 41.35 175.98999999999998 41.53 176.48 C 41.980000000000004 177.67 42.43 178.85 42.910000000000004 180.03 C 43.13 180.59 43.120000000000005 180.97 42.39 181.02 C 40.68 181.15 38.97 181.3 37.25 181.42000000000002 C 36.91 181.44000000000003 36.56 181.41000000000003 36.22 181.35000000000002 C 34.66 181.07000000000002 34.42 180.43000000000004 35.449999999999996 179.21000000000004 C 36.97 177.45 38.85 176.15 40.97 174.85 z" stroke-linecap="round" />
</g>
		<g transform="matrix(1 0 0 1 -9.8 -61.49)"  >
<path style="stroke: none; stroke-width: 1; stroke-dasharray: none; stroke-linecap: butt; stroke-dashoffset: 0; stroke-linejoin: miter; stroke-miterlimit: 4; fill: rgb(0,0,0); fill-rule: nonzero; opacity: 1;" vector-effect="non-scaling-stroke"  transform=" translate(-141.48, -54.42)" d="M 137.67 54.73 C 139.10999999999999 54.3 140.54999999999998 53.879999999999995 141.98 53.44 C 142.5 53.28 143.01999999999998 53.08 143.51999999999998 52.86 C 144.10999999999999 52.589999999999996 144.64999999999998 52.29 145.07999999999998 53.11 C 145.57999999999998 54.05 145.52999999999997 54.99 144.82 55.4 C 143.29999999999998 56.29 141.62 56.43 139.94 56.08 C 139.12 55.91 138.35 55.489999999999995 137.55 55.19 C 137.59 55.03 137.63 54.88 137.67 54.73 z" stroke-linecap="round" />
</g>
		<g transform="matrix(1 0 0 1 -0.51 -59.71)"  >
<path style="stroke: none; stroke-width: 1; stroke-dasharray: none; stroke-linecap: butt; stroke-dashoffset: 0; stroke-linejoin: miter; stroke-miterlimit: 4; fill: rgb(0,0,0); fill-rule: nonzero; opacity: 1;" vector-effect="non-scaling-stroke"  transform=" translate(-150.78, -56.2)" d="M 149.64 54.99 C 150.23999999999998 55.72 150.72 56.27 151.16 56.85 C 152.17 58.18 151.60999999999999 59.660000000000004 149.63 60.22 C 149.97 59.83 150.13 59.61 150.32 59.43 C 151.42 58.38 151.41 58.07 150.44 56.85 C 149.76 55.99 149.09 55.11 148.57 54.15 C 147.82 52.78 148.32999999999998 52.089999999999996 149.88 52.199999999999996 C 150.76999999999998 52.269999999999996 151.66 52.339999999999996 152.54999999999998 52.38999999999999 C 153.35 52.42999999999999 153.52999999999997 52.73 153.1 53.41 C 152.54999999999998 54.279999999999994 151.75 54.76 150.72 54.87 C 150.46 54.9 150.2 54.92 149.64 54.99 z" stroke-linecap="round" />
</g>
		<g transform="matrix(1 0 0 1 -33.5 -56.53)"  >
<path style="stroke: none; stroke-width: 1; stroke-dasharray: none; stroke-linecap: butt; stroke-dashoffset: 0; stroke-linejoin: miter; stroke-miterlimit: 4; fill: rgb(0,0,0); fill-rule: nonzero; opacity: 1;" vector-effect="non-scaling-stroke"  transform=" translate(-117.79, -59.38)" d="M 113.66 55.93 C 115.67 55.76 117.46 56.44 119.03999999999999 57.7 C 120.63999999999999 58.980000000000004 121.63999999999999 60.650000000000006 122.05 62.620000000000005 C 121.92 62.7 121.78 62.77 121.64999999999999 62.85 C 121.44 62.47 121.19 62.1 121.02 61.7 C 119.78 58.720000000000006 117.7 56.870000000000005 114.36 56.64 C 114.08 56.62 113.8 56.45 113.53 56.34 C 113.57 56.21 113.62 56.07 113.66 55.93 z" stroke-linecap="round" />
</g>
		<g transform="matrix(1 0 0 1 -3.75 -51.42)"  >
<path style="stroke: none; stroke-width: 1; stroke-dasharray: none; stroke-linecap: butt; stroke-dashoffset: 0; stroke-linejoin: miter; stroke-miterlimit: 4; fill: rgb(0,0,0); fill-rule: nonzero; opacity: 1;" vector-effect="non-scaling-stroke"  transform=" translate(-147.54, -64.49)" d="M 150.81 65.06 C 150.65 66.27 149.25 66.85000000000001 147.44 66.61 C 145.38 66.33 144.05 64.62 144.3 62.32 C 145.66 65.29 147.67 66.49 150.81 65.06 z" stroke-linecap="round" />
</g>
		<g transform="matrix(1 0 0 1 -41.1 51.56)"  >
<path style="stroke: none; stroke-width: 1; stroke-dasharray: none; stroke-linecap: butt; stroke-dashoffset: 0; stroke-linejoin: miter; stroke-miterlimit: 4; fill: rgb(0,0,0); fill-rule: nonzero; opacity: 1;" vector-effect="non-scaling-stroke"  transform=" translate(-110.19, -167.47)" d="M 113.98 166.45 C 113.47 168.03 113.06 169.38 112.59 170.70999999999998 C 112.53 170.89 112.17 170.95999999999998 111.95 171.07999999999998 C 111.85000000000001 170.82999999999998 111.61 170.54 111.66 170.32 C 111.89 169.39 112.17999999999999 168.47 112.5 167.56 C 112.71 166.96 112.52 166.68 111.93 166.5 C 110.29 165.99 108.66000000000001 165.45 107.05000000000001 164.86 C 106.77000000000001 164.76000000000002 106.61000000000001 164.33 106.39000000000001 164.05 C 106.72000000000001 163.99 107.08000000000001 163.81 107.37000000000002 163.89000000000001 C 109.28000000000002 164.46 111.18000000000002 165.06 113.07000000000002 165.71 C 113.43 165.83 113.71 166.23 113.98 166.45 z" stroke-linecap="round" />
</g>
		<g transform="matrix(1 0 0 1 -14.51 32.39)"  >
<path style="stroke: none; stroke-width: 1; stroke-dasharray: none; stroke-linecap: butt; stroke-dashoffset: 0; stroke-linejoin: miter; stroke-miterlimit: 4; fill: rgb(0,0,0); fill-rule: nonzero; opacity: 1;" vector-effect="non-scaling-stroke"  transform=" translate(-136.78, -148.3)" d="M 129.44 117.99 C 129.44 117.99 130.43 160 124.33 170.20999999999998 C 124.33 170.20999999999998 139.02 175.04999999999998 144.3 179.60999999999999 L 148.87 179.60999999999999 C 148.87 179.60999999999999 152.63 154.52999999999997 135.79 116.99999999999999 C 135.8 117 133.74 119.06 129.44 117.99 z" stroke-linecap="round" />
</g>
		<g transform="matrix(1 0 0 1 75.52 37.2)"  >
<path style="stroke: none; stroke-width: 1; stroke-dasharray: none; stroke-linecap: butt; stroke-dashoffset: 0; stroke-linejoin: miter; stroke-miterlimit: 4; fill: rgb(196,196,196); fill-rule: nonzero; opacity: 1;" vector-effect="non-scaling-stroke"  transform=" translate(-226.81, -153.11)" d="M 207.15 124.76 L 181.25 183.9 L 245.97 183.9 L 272.17 126.01 C 272.83000000000004 124.56 271.78000000000003 122.92 270.19 122.9 L 210.89 122.33000000000001 C 209.27 122.32 207.8 123.27 207.15 124.76 z" stroke-linecap="round" />
</g>
		<g transform="matrix(1 0 0 1 11.49 65.78)"  >
<polygon style="stroke: none; stroke-width: 1; stroke-dasharray: none; stroke-linecap: butt; stroke-dashoffset: 0; stroke-linejoin: miter; stroke-miterlimit: 4; fill: rgb(196,196,196); fill-rule: nonzero; opacity: 1;" vector-effect="non-scaling-stroke"  points="-18.47,-2.08 18.47,-2.19 16.59,2.19 -12.1,2.19 " />
</g>
		<g transform="matrix(1 0 0 1 19.94 65.79)"  >
<path style="stroke: none; stroke-width: 1; stroke-dasharray: none; stroke-linecap: butt; stroke-dashoffset: 0; stroke-linejoin: miter; stroke-miterlimit: 4; fill: rgb(255,255,255); fill-rule: nonzero; opacity: 1;" vector-effect="non-scaling-stroke"  transform=" translate(-171.23, -181.7)" d="M 173.59 182.52 L 168.87 182.52 C 168.41 182.52 168.05 182.15 168.05 181.70000000000002 L 168.05 181.70000000000002 C 168.05 181.24 168.42000000000002 180.88000000000002 168.87 180.88000000000002 L 173.59 180.88000000000002 C 174.05 180.88000000000002 174.41 181.25000000000003 174.41 181.70000000000002 L 174.41 181.70000000000002 C 174.42 182.15 174.05 182.52 173.59 182.52 z" stroke-linecap="round" />
</g>
		<g transform="matrix(1 0 0 1 25.46 65.79)"  >
<circle style="stroke: none; stroke-width: 1; stroke-dasharray: none; stroke-linecap: butt; stroke-dashoffset: 0; stroke-linejoin: miter; stroke-miterlimit: 4; fill: rgb(255,255,255); fill-rule: nonzero; opacity: 1;" vector-effect="non-scaling-stroke"  cx="0" cy="0" r="0.97" />
</g>
		<g transform="matrix(1 0 0 1 101.33 50.38)"  >
<path style="stroke: none; stroke-width: 1; stroke-dasharray: none; stroke-linecap: butt; stroke-dashoffset: 0; stroke-linejoin: miter; stroke-miterlimit: 4; fill: rgb(0,0,0); fill-rule: nonzero; opacity: 1;" vector-effect="non-scaling-stroke"  transform=" translate(-252.61, -166.29)" d="M 248.94 162.6 C 247.68 161.32999999999998 247.67 160.60999999999999 249.01 159.4 C 251.2 157.42000000000002 253.89 156.32 256.61 155.31 C 257.87 154.84 259.13 154.44 260.53000000000003 154.83 C 263.27000000000004 155.60000000000002 264.23 158.86 262.22 160.89000000000001 C 261.68 161.43 261.54 161.8 261.86 162.54000000000002 C 262.44 163.88000000000002 261.93 165.44000000000003 260.63 166.49 C 259.94 167.05 259.14 167.47 258.39 167.95000000000002 C 259.34999999999997 170.8 258.59 172.4 255.76 173.56000000000003 C 255.54 173.65000000000003 255.28 173.94000000000003 255.25 174.17000000000004 C 254.99 176.02000000000004 253.94 177.31000000000003 252.13 177.65000000000003 C 249.16 178.22000000000003 246.29999999999998 177.82000000000002 243.59 176.43000000000004 C 243.5 176.38000000000002 243.41 176.33000000000004 243.32 176.27000000000004 C 242.60999999999999 175.73000000000005 241.73 175.24000000000004 241.98 174.15000000000003 C 242.20999999999998 173.13000000000002 243.19 173.04000000000002 243.98999999999998 172.76000000000005 C 244.26999999999998 172.67000000000004 244.57 172.65000000000003 245.04999999999998 172.57000000000005 C 244.71999999999997 172.26000000000005 244.51 172.05000000000004 244.29999999999998 171.86000000000004 C 243.26 170.94000000000005 243.29999999999998 169.84000000000003 244.54 169.18000000000004 C 245.44 168.71000000000004 246.48 168.50000000000003 247.45 168.18000000000004 C 247.63 168.12000000000003 247.82 168.08000000000004 248.17999999999998 167.99000000000004 C 247.29 167.60000000000005 246.54999999999998 167.35000000000005 245.87999999999997 166.97000000000003 C 244.62999999999997 166.26000000000002 244.50999999999996 165.31000000000003 245.66999999999996 164.46000000000004 C 246.66 163.75 247.81 163.24 248.94 162.6 z M 254.21 162.26 C 256.22 162 257.94 161.85 259.63 161.54 C 261.6 161.17999999999998 262.94 159.38 262.52 157.79 C 262.01 155.85 260.34 154.97 258.24 155.57999999999998 C 257.25 155.86999999999998 256.23 156.13 255.33 156.6 C 253.33 157.66 251.39000000000001 158.81 249.47 160 C 249.13 160.21 248.76 160.92 248.88 161.18 C 249.04 161.55 249.64 161.88 250.07999999999998 161.94 C 251.54 162.13 253.02 162.18 254.21 162.26 z M 252.45 167.78 C 252.47 167.69 252.48 167.59 252.5 167.5 C 253.53 167.5 254.57 167.54 255.6 167.49 C 257.12 167.41 258.69 167.26000000000002 259.85 166.15 C 260.49 165.54 261.03000000000003 164.71 261.34000000000003 163.88 C 261.69000000000005 162.92 260.92 162.07999999999998 260.09000000000003 162.17 C 257.59000000000003 162.44 255.10000000000002 162.76 252.59000000000003 162.85 C 250.38000000000002 162.93 248.42000000000004 163.65 246.55000000000004 164.72 C 246.20000000000005 164.92 245.72000000000003 165.43 245.78000000000003 165.67 C 245.87000000000003 166.04 246.35000000000002 166.47 246.74000000000004 166.57 C 248.62 167.02 250.54 167.38 252.45 167.78 z M 252.55 173.26 C 252.57000000000002 173.17 252.58 173.09 252.60000000000002 173 C 253.22000000000003 173 253.84000000000003 173.04 254.46000000000004 172.99 C 255.87000000000003 172.87 257.13000000000005 172.37 257.77000000000004 171.04000000000002 C 258.05 170.46 258.18000000000006 169.55 257.90000000000003 169.04000000000002 C 257.66 168.60000000000002 256.78000000000003 168.42000000000002 256.14000000000004 168.3 C 255.62000000000003 168.20000000000002 255.05000000000004 168.35000000000002 254.50000000000006 168.38000000000002 C 251.59000000000006 168.57000000000002 248.63000000000005 168.44000000000003 245.82000000000005 169.41000000000003 C 245.28000000000006 169.60000000000002 244.86000000000004 170.16000000000003 244.39000000000004 170.55 C 244.80000000000004 170.97 245.21000000000004 171.4 245.63000000000005 171.8 C 245.72000000000006 171.89000000000001 245.88000000000005 171.91000000000003 246.01000000000005 171.94 C 248.19 172.4 250.37 172.83 252.55 173.26 z M 246.43 173.26 C 245.75 173.34 244.91 173.37 244.11 173.57 C 243.63000000000002 173.69 243.21 174.09 242.77 174.35999999999999 C 243.07000000000002 174.77999999999997 243.29000000000002 175.35 243.70000000000002 175.58999999999997 C 245.89000000000001 176.90999999999997 248.34 177.33999999999997 250.85000000000002 177.17999999999998 C 252.12000000000003 177.09999999999997 253.36 176.64 254.14000000000001 175.48999999999998 C 254.72000000000003 174.62999999999997 254.50000000000003 173.89999999999998 253.58 173.82 C 251.25 173.6 248.91 173.45 246.43 173.26 z" stroke-linecap="round" />
</g>
		<g transform="matrix(1 0 0 1 104.43 42.92)"  >
<path style="stroke: none; stroke-width: 1; stroke-dasharray: none; stroke-linecap: butt; stroke-dashoffset: 0; stroke-linejoin: miter; stroke-miterlimit: 4; fill: rgb(255,255,255); fill-rule: nonzero; opacity: 1;" vector-effect="non-scaling-stroke"  transform=" translate(-255.72, -158.83)" d="M 254.21 162.26 C 253.02 162.17999999999998 251.54000000000002 162.13 250.07000000000002 161.95 C 249.62000000000003 161.89 249.03000000000003 161.56 248.87000000000003 161.19 C 248.75000000000003 160.92 249.12000000000003 160.22 249.46000000000004 160.01 C 251.38000000000002 158.82 253.32000000000005 157.66 255.32000000000005 156.60999999999999 C 256.22 156.13 257.25000000000006 155.88 258.2300000000001 155.58999999999997 C 260.3300000000001 154.97999999999996 262.00000000000006 155.85999999999999 262.51000000000005 157.79999999999998 C 262.93000000000006 159.38 261.6 161.18999999999997 259.62000000000006 161.54999999999998 C 257.94 161.85 256.22 162 254.21 162.26 z" stroke-linecap="round" />
</g>
		<g transform="matrix(1 0 0 1 102.31 49.06)"  >
<path style="stroke: none; stroke-width: 1; stroke-dasharray: none; stroke-linecap: butt; stroke-dashoffset: 0; stroke-linejoin: miter; stroke-miterlimit: 4; fill: rgb(255,255,255); fill-rule: nonzero; opacity: 1;" vector-effect="non-scaling-stroke"  transform=" translate(-253.59, -164.97)" d="M 252.45 167.78 C 250.54 167.38 248.61999999999998 167.03 246.73 166.56 C 246.34 166.47 245.85999999999999 166.03 245.76999999999998 165.66 C 245.70999999999998 165.41 246.18999999999997 164.9 246.54 164.71 C 248.41 163.65 250.37 162.93 252.57999999999998 162.84 C 255.08999999999997 162.74 257.58 162.42000000000002 260.08 162.16 C 260.90999999999997 162.07 261.68 162.91 261.33 163.87 C 261.03 164.70000000000002 260.47999999999996 165.52 259.84 166.14000000000001 C 258.67999999999995 167.25000000000003 257.11999999999995 167.4 255.58999999999997 167.48000000000002 C 254.55999999999997 167.53000000000003 253.51999999999998 167.49 252.48999999999998 167.49 C 252.48 167.59 252.47 167.68 252.45 167.78 z" stroke-linecap="round" />
</g>
		<g transform="matrix(1 0 0 1 99.93 54.86)"  >
<path style="stroke: none; stroke-width: 1; stroke-dasharray: none; stroke-linecap: butt; stroke-dashoffset: 0; stroke-linejoin: miter; stroke-miterlimit: 4; fill: rgb(255,255,255); fill-rule: nonzero; opacity: 1;" vector-effect="non-scaling-stroke"  transform=" translate(-251.22, -170.77)" d="M 252.55 173.26 C 250.37 172.82999999999998 248.19 172.39 246.01000000000002 171.95999999999998 C 245.88000000000002 171.92999999999998 245.72000000000003 171.90999999999997 245.63000000000002 171.82 C 245.20000000000002 171.41 244.8 170.98999999999998 244.39000000000001 170.57 C 244.87 170.18 245.28 169.62 245.82000000000002 169.43 C 248.63000000000002 168.46 251.59000000000003 168.59 254.50000000000003 168.4 C 255.05000000000004 168.36 255.62000000000003 168.22 256.14000000000004 168.32 C 256.77000000000004 168.44 257.66 168.62 257.90000000000003 169.06 C 258.17 169.56 258.04 170.48 257.77000000000004 171.06 C 257.13000000000005 172.38 255.87000000000003 172.89000000000001 254.46000000000004 173.01 C 253.84000000000003 173.06 253.22000000000003 173.01999999999998 252.60000000000002 173.01999999999998 C 252.59 173.09 252.57 173.18 252.55 173.26 z" stroke-linecap="round" />
</g>
		<g transform="matrix(1 0 0 1 97.33 59.32)"  >
<path style="stroke: none; stroke-width: 1; stroke-dasharray: none; stroke-linecap: butt; stroke-dashoffset: 0; stroke-linejoin: miter; stroke-miterlimit: 4; fill: rgb(255,255,255); fill-rule: nonzero; opacity: 1;" vector-effect="non-scaling-stroke"  transform=" translate(-248.62, -175.23)" d="M 246.43 173.26 C 248.91 173.45 251.25 173.6 253.58 173.81 C 254.5 173.9 254.72 174.63 254.14000000000001 175.48 C 253.35000000000002 176.64 252.12 177.09 250.85000000000002 177.17 C 248.34000000000003 177.32999999999998 245.89000000000001 176.89999999999998 243.70000000000002 175.57999999999998 C 243.29000000000002 175.33999999999997 243.08 174.76999999999998 242.77 174.35 C 243.21 174.07999999999998 243.63000000000002 173.68 244.11 173.56 C 244.91 173.37 245.75 173.35 246.43 173.26 z" stroke-linecap="round" />
</g>
</g>
</g>
</svg>