<?xml version="1.0" encoding="UTF-8"?>
<svg id="Layer_1" data-name="Layer 1" xmlns="http://www.w3.org/2000/svg" version="1.1" viewBox="0 0 346 233.7">
  <defs>
    <style>
      .cls-1 {
        fill: #f48577;
      }

      .cls-1, .cls-2, .cls-3 {
        stroke-width: 0px;
      }

      .cls-2 {
        fill: #000;
      }

      .cls-3 {
        fill: #fff;
      }
    </style>
  </defs>
  <g>
    <path class="cls-3" d="M195.7,88.5s33.6-2.5,52.7,25.3c19.1,27.7,20.6,59.1-30.2,87.5l-63.7-8s-51.8,9.7-62.4-33.2c-10.6-42.9,25.6-64.6,61.8-74.2l42,2.7Z"/>
    <path class="cls-2" d="M218.2,202s0,0,0,0l-63.6-8c-2.8.5-52.8,8.3-63.2-33.8-4.9-19.8-.3-36.7,13.6-50.3,10.9-10.7,27.7-19.3,48.7-24.8,0,0,.2,0,.2,0l41.9,2.7c1.6,0,34.5-1.6,53.3,25.6,10.7,15.5,14.5,30.2,11.3,43.8-3.8,16.4-17.9,31.4-41.7,44.7-.1,0-.2,0-.4,0ZM154.5,192.5s0,0,0,0l63.5,8c23.4-13.1,37.1-27.7,40.8-43.6,3.1-13.2-.7-27.5-11.1-42.6-18.6-27-51.7-25-52-24.9,0,0,0,0-.1,0l-41.8-2.7c-27.8,7.4-72.6,26.8-61.1,73.3,4.3,17.5,16,28.3,34.6,32.1,14,2.9,26.9.6,27,.5,0,0,0,0,.1,0Z"/>
  </g>
  <path class="cls-2" d="M228.3,88.1c0,0-.1,0-.2,0-.4,0-.7-.5-.6-.9l4.9-22.1c0-.4.5-.7.9-.6.4,0,.7.5.6.9l-4.9,22.1c0,.3-.4.6-.7.6Z"/>
  <path class="cls-2" d="M239.3,91.3c-.2,0-.3,0-.5-.2-.3-.3-.4-.7-.1-1.1l9.9-12c.3-.3.7-.4,1.1-.1.3.3.4.7.1,1.1l-9.9,12c-.1.2-.4.3-.6.3Z"/>
  <path class="cls-2" d="M246.1,99.3c-.3,0-.6-.2-.7-.4-.2-.4,0-.8.4-1l14.5-6.8c.4-.2.8,0,1,.4.2.4,0,.8-.4,1l-14.5,6.8c-.1,0-.2,0-.3,0Z"/>
  <path class="cls-2" d="M182.8,28.2s-31.1-8.9-29,26c0,0,1.6,17.1-22.3,36.6,0,0,17.4,16.8,21.7,2.4h46.1s1.6,5.5,6.5,3.9,12.3-6.9,12.3-6.9c0,0-21.8-23.3-18.8-35.3,3-12,2.3-27.2-16.5-26.7Z"/>
  <g>
    <path class="cls-3" d="M157.3,57.3s2-5.6,11.5-7.9c0,0-2,3.4.2,2.7s10.5-7.9,13.3-12.5c0,0,3.5,6.4,7.5,9.8,4,3.5,6.9,8.6,6.9,8.6,0,0-.7-3.8,4.1-3.8s4.5,15.3-5.2,13.9c0,0,.3,17.5,4.6,23.5,0,0-19.9,18.1-47.7.6,0,0,6-11.2,5-26.4,0,0-7,4.5-7.7-4-.7-8.6,4.9-8.9,7.4-4.4Z"/>
    <path class="cls-2" d="M176.7,100.5c-7.1,0-15.4-1.9-24.5-7.7-.3-.2-.4-.6-.3-1,0-.1,5.6-10.6,5-24.9-1.2.6-3.2,1.2-5,.3-1.6-.8-2.6-2.7-2.8-5.5-.5-6.1,2-7.6,3.1-7.9,1.7-.5,3.6.3,4.9,2,1.2-1.9,4.3-5.4,11.4-7.2.3,0,.6,0,.8.3s.2.6,0,.8c-.3.6-.6,1.3-.7,1.7,0,0,0,0,0,0,1.9-.6,10.1-7.6,12.9-12.2.1-.2.4-.4.7-.4.3,0,.5.2.6.4,0,0,3.5,6.3,7.3,9.6,2.6,2.3,4.7,5.1,5.9,7,.1-.3.3-.6.5-.9.8-1,2.2-1.5,4-1.5s2.3.7,3,2.1c1.3,2.5,1.2,7.2-1.1,10.4-1.1,1.5-3,3.2-6.3,3,.1,3.5.8,17.3,4.5,22.2.2.3.2.7-.1,1-.1.1-9.5,8.4-24.1,8.4ZM153.6,91.9c13.8,8.5,25.6,7.9,33,5.8,6.7-1.9,11.2-5.1,12.6-6.3-4-6.5-4.4-22.6-4.4-23.3,0-.2,0-.4.3-.6.2-.1.4-.2.6-.2,3.1.5,4.8-1,5.8-2.3,1.9-2.6,2-6.8.9-8.8-.4-.8-1-1.2-1.6-1.2-1.4,0-2.3.3-2.9,1-.7.8-.5,2-.5,2,0,.4-.1.7-.5.8-.3.1-.7,0-.9-.3,0,0-2.9-5.1-6.7-8.4-3.1-2.7-5.9-7-7.1-9-3.4,4.7-10.9,11.1-13.1,11.8-1,.3-1.5,0-1.8-.3-.4-.5-.3-1.2,0-2-7.6,2.4-9.4,7-9.4,7-.1.3-.4.5-.6.5-.3,0-.6-.1-.7-.4-1-1.8-2.6-2.8-3.9-2.4-1.2.4-2.4,2.3-2.1,6.4.2,2.3.9,3.7,2,4.3,1.9.9,4.6-.8,4.6-.8.2-.1.5-.2.7,0,.2.1.4.4.4.6.9,13.4-3.5,23.6-4.8,26.2Z"/>
  </g>
  <path class="cls-2" d="M167.5,61.9s0,0,0,0c-2.2,0-3.2-2.6-3.3-2.7-.1-.4,0-.8.4-1,.4-.1.8,0,1,.4,0,0,.7,1.7,1.9,1.8,1.2,0,1.9-1.7,1.9-1.7.1-.4.6-.6,1-.4.4.1.6.6.4,1,0,.1-1,2.7-3.2,2.7Z"/>
  <path class="cls-2" d="M185.3,61.9c-2.2,0-3.1-1.9-3.2-2.9,0-.4.2-.8.6-.9.4,0,.8.2.9.6,0,.2.3,1.6,1.9,1.6,1.5,0,1.7-1.7,1.7-1.9,0-.4.4-.7.8-.7.4,0,.7.4.7.8,0,1.1-.8,3.2-3.1,3.3,0,0-.1,0-.2,0Z"/>
  <path class="cls-2" d="M177,75.7c-3.9,0-5.4-3.3-5.6-5.1,0-.4.2-.8.7-.8.4,0,.8.2.8.7,0,.2.5,3.8,4.1,3.8s0,0,0,0c3.7,0,4-4,4-4.2,0-.4.4-.7.8-.7.4,0,.7.4.7.8-.1,1.9-1.5,5.5-5.5,5.6,0,0,0,0-.1,0Z"/>
  <path class="cls-2" d="M198.9,63.1c-.1,0-.2,0-.4,0-.4,0-.7-.4-.6-.8,0-.4.4-.7.8-.6.2,0,1,0,1.2-.8.2-.8-.6-1.2-.8-1.2-.4-.1-.6-.6-.4-1,.1-.4.6-.6,1-.5.8.3,2.2,1.3,1.7,3-.4,1.5-1.7,1.9-2.5,1.9Z"/>
  <path class="cls-2" d="M154.6,63.7s0,0-.1,0c-.8-.1-2.3-.8-2.2-2.6,0-1.8,1.7-2.3,2.5-2.4.4,0,.8.3.8.7,0,.4-.3.8-.7.8-.2,0-1.1.1-1.1.9,0,.8.7,1,.9,1.1.4,0,.7.5.6.9,0,.4-.4.6-.7.6Z"/>
  <g>
    <path class="cls-1" d="M181.6,216.2c6.2-6.8,11.1-15,16.3-22.5,6.5-9.3,12.8-18.8,19.6-27.9,8.6-11.6,16.7-33.3,7.9-46.7s-9.5-7.7-15.6-8.2c-25.6-2.3-32.8,23.1-35.3,29.9-2.4-6.8-5.3-30.3-30.9-28-30.4,2.8-26.8,36.7-17.6,48.9,8.4,11.1,49.6,48.3,55.6,54.6"/>
    <path class="cls-2" d="M181.6,216.9c-.2,0-.4,0-.5-.2-1.8-1.9-6.9-6.6-13.3-12.6-14.5-13.6-36.5-34.2-42.4-42-6-8-9.3-23.9-4.1-35.6,2.6-5.9,8.6-13.3,22.2-14.5,23-2.1,28.2,16.4,30.7,25.3.1.4.2.7.3,1.1,3.2-9.1,11.3-30.4,35.3-28.2,5.1.5,12.1,2.3,16.2,8.6,9.3,14.2.1,36.7-7.9,47.6-5,6.8-9.9,13.8-14.6,20.7-1.7,2.4-3.3,4.8-5,7.3-1.3,1.8-2.5,3.7-3.8,5.6-3.9,5.8-7.9,11.8-12.6,16.9-.1.2-.3.2-.5.2h0ZM147,113.3c-1.1,0-2.2,0-3.4.2-10.2.9-17.5,5.6-21,13.6-4.8,10.9-1.9,26.4,3.9,34.1,5.8,7.7,27.7,28.2,42.2,41.8,5.8,5.5,10.6,9.9,12.8,12.1,4.4-5,8.2-10.7,11.9-16.2,1.3-1.9,2.5-3.8,3.8-5.6,1.7-2.4,3.3-4.8,5-7.3,4.7-6.8,9.6-13.9,14.6-20.7,7.8-10.5,16.7-32.3,7.8-45.9-3.8-5.7-10.3-7.5-15.1-7.9-23.6-2.1-31.2,19.8-34,28.1-.2.5-.3.9-.5,1.3-.1.3-.4.5-.7.5s-.6-.2-.7-.5c-.3-.9-.6-2-1-3.3-2.4-8.6-6.8-24.3-25.7-24.3Z"/>
  </g>
  <g>
    <path class="cls-3" d="M132.1,168.5s8.9,3.1,10.1-3.2,2.7-7.7,4.7-7.3,1.8,5.9,1.4,10.4c-.3,4.5,2.9,4.1,6.9,2.7,4.1-1.3,13-5.6,15.3-3.2s-8.6,6.1-15.8,11.1c0,0,16.4-8.1,19.6-5.4,3.2,2.7-17.4,11.2-17.4,11.2,0,0,16.7-5.9,17.7-4.2.9,1.6-.7,8.5-23.4,12.9-14.6,2.6-21.2-.5-21.2-.5,0,0-3.9-10.4,2-24.7Z"/>
    <path class="cls-2" d="M140.2,195.5c-7,0-10.3-1.5-10.5-1.6-.2,0-.3-.2-.4-.4-.2-.4-3.9-10.8,2.1-25.2.2-.4.6-.6.9-.4,0,0,4.6,1.6,7.3,0,1-.6,1.6-1.5,1.8-2.7.8-4.2,1.8-6.5,3.2-7.5.7-.5,1.5-.6,2.4-.4,2.3.5,2.5,4.7,2,11.2,0,1.3.1,2.1.6,2.5,1,.8,3.4.1,5.3-.5.8-.3,1.9-.7,3.1-1.1,4.8-1.8,10.8-4.1,13-1.9.5.5.6,1.1.5,1.5-.2,1.5-2.3,2.8-6,4.8,3.9-1.3,7.6-1.9,9.2-.6.5.4.7.9.6,1.5,0,.5-.8,2.4-7.5,6,6.6-1.7,7.2-.7,7.4-.3.4.8.4,1.9-.2,3-1.2,2.6-5.9,7.5-23.8,11-4.4.8-8.1,1.1-11.2,1.1ZM130.6,192.7c1.4.5,7.9,2.5,20.4.3,17.8-3.4,21.8-8.2,22.7-10.1.4-.8.3-1.3.3-1.6-1.4-.4-9.8,1.9-16.8,4.5-.4.1-.8,0-1-.4-.1-.4,0-.8.4-1,8.2-3.4,16.9-8,17.2-9.8,0,0,0,0,0-.1-1.9-1.7-12.1,2.2-18.7,5.5-.4.2-.8,0-1-.3-.2-.3-.1-.8.2-1,2.7-1.9,5.8-3.5,8.6-5,3.3-1.7,7-3.7,7.2-4.8,0,0,0,0-.1-.2-1.5-1.5-7.7.8-11.4,2.2-1.2.4-2.3.9-3.2,1.2-3,1-5.3,1.4-6.7.3-.9-.7-1.3-2-1.2-3.8.6-7.7-.1-9.5-.8-9.7-.5-.1-.9,0-1.3.2-1,.7-1.9,2.8-2.6,6.5-.3,1.7-1.2,3-2.5,3.8-2.6,1.5-6.3.7-7.9.3-4.9,12.2-2.4,21.4-1.9,23.2Z"/>
  </g>
  <g>
    <path class="cls-3" d="M208.4,178.5s-5.3,7.1-8.8,2.8c-3.5-4.3-5.4-9.1-8.4-7s4.4,11,3.1,12.6-9,3.9-14.7,3.4-7.2.3-7.2,2.7c0,2.5,18.4,3.2,18.4,3.2,0,0-18.9-.1-19.2,2.3s1.8,4.6,18.9,3.8c0,0-15.9,1.1-16.3,2.9-.4,1.8.6,2.7,8.5,4,8.1,1.4,24.6-1.8,35.2-7.9,0,0,1.8-10.7-9.6-22.8Z"/>
    <path class="cls-2" d="M187.2,210.3c-1.7,0-3.2-.1-4.5-.3-5.9-1-8-1.7-8.8-2.9-.5-.7-.4-1.5-.3-2,.2-.8,1.7-1.5,4.6-2.1-4.2-.4-5.7-1.3-6.5-2.1-.6-.7-.9-1.5-.7-2.5.1-.9,1.7-1.9,7.4-2.5-3.8-.6-6.6-1.5-6.6-2.9,0-1,0-2,.8-2.7,1-.9,3-1.1,7.2-.7,5.6.5,13-1.8,14-3.1.1-.5-.9-2.6-1.6-3.9-1.7-3.4-3.7-7.2-1.3-8.8,2.9-2,4.9.9,7.1,4,.7,1,1.5,2.1,2.3,3.2.6.8,1.3,1.2,2.1,1.1,2.2,0,4.7-2.8,5.5-3.8.1-.2.3-.3.6-.3.2,0,.4,0,.6.2,11.6,12.2,9.9,23,9.8,23.4,0,.2-.2.4-.4.5-9.3,5.4-22.5,8.3-31.2,8.3ZM175,205.4c0,.4,0,.6,0,.8.6.9,4.3,1.7,7.9,2.3,7.6,1.3,23.5-1.5,34.3-7.6.2-1.8.5-11-8.9-21.2-1.1,1.2-3.5,3.7-6.1,3.8-1.3,0-2.4-.5-3.3-1.7-.9-1.1-1.7-2.2-2.4-3.2-2.4-3.4-3.5-4.6-5-3.6-1.3.8.5,4.3,1.8,6.9,1.3,2.6,2.3,4.5,1.5,5.5-1.5,2-9.7,4.2-15.3,3.7-2.4-.2-5.2-.4-6,.3-.3.3-.4.7-.3,1.6.7,1.1,9.8,2.2,17.7,2.5.4,0,.7.4.7.8,0,.4-.3.7-.8.7h0c-8.2,0-17.5.6-18.5,1.7,0,.5,0,.9.4,1.2,1.5,1.6,7.5,2.2,17.8,1.7.4,0,.8.3.8.7,0,.4-.3.8-.7.8-6.8.5-14.6,1.5-15.6,2.4Z"/>
  </g>
</svg>