<?xml version="1.0" encoding="UTF-8"?>
<svg id="Layer_1" data-name="Layer 1" xmlns="http://www.w3.org/2000/svg" version="1.1" viewBox="0 0 346 233.7">
  <defs>
    <style>
      .cls-1 {
        fill: #000;
      }

      .cls-1, .cls-2 {
        stroke-width: 0px;
      }

      .cls-2 {
        fill: #fff;
      }
    </style>
  </defs>
  <path class="cls-2" d="M152.3,144.4s0,0,0,0c9.4-8,17.8-16.8,23.1-25.2,13.5-21,49.1-25.6,49.1-25.6l50.7,2.8c9.5,1.1,16.2,6.8,21.1,14.8.5.8.9,1.5,1.3,2.3,12.4,23.2,10.4,61.7,10.4,61.7l-58.1-.6-61-.7v-10.2c-1.4,1-3.3,2.1-5.4,3.3-19.3,10.9-62.9,28.5-62.9,28.5-12,5.4-57.6,14.7-57.9,8.8-.2-3.1,4.1-4.3,4.1-4.3,0,0-9.3-2.2-9-5.3.2-2.4,4.2-3.1,6.2-3.3-3.4-.3-5.8-6.9-2.3-7.5,3.8-.7,16.9.7,23.1-.6,6.2-1.3-1.4-1.6-7.7-4.9-1.1-.6-1.9-1.2-2.5-1.9"/>
  <g>
    <path class="cls-2" d="M74.8,176.6s-1.2-1.8-.3-3.4,2.5-1.4,4.5-1.3,7.1.4,7.1.4"/>
    <path class="cls-1" d="M73.9,177.1c0,0-1.5-2.3-.3-4.5,1.1-2,3.6-1.9,5.4-1.9,1.9,0,7.1.4,7.1.4v2c-.1,0-5.2-.3-7.2-.4-2,0-3.1,0-3.5.8-.6,1.1.2,2.3.2,2.4l-1.7,1.1Z"/>
  </g>
  <path class="cls-1" d="M69,207.2c-2.8,0-4.9-.3-6-1-.9-.6-1.2-1.3-1.2-1.8,0-1.9,1-3.2,2.2-4.1-3.2-1-7.4-2.9-7.1-5.7.2-2,2-3.1,4.1-3.7-.8-.8-1.3-1.9-1.5-2.9-.3-1.9.6-3.6,2.3-4.3,2-.9,6.2-.8,11.1-.6,4.3.1,8.8.2,11.7-.4.2,0,.3,0,.4-.1-.5-.2-1.1-.4-1.7-.6-1.9-.7-4.3-1.5-6.6-2.8-1.2-.6-2.1-1.3-2.8-2.1l1.6-1.3c.5.6,1.2,1.1,2.2,1.6,2.1,1.1,4.4,2,6.3,2.6,2.9,1,4.2,1.5,4.1,2.7,0,1.2-1.5,1.5-3.1,1.9-3.1.7-7.7.5-12.2.4-4.2-.1-8.6-.2-10.2.5-1.2.5-1.2,1.6-1.1,2.1.2,1.2,1.2,2.5,2.7,2.6.5,0,.9.5.9,1s-.4,1-.9,1c-3.1.3-5.2,1.3-5.3,2.4-.1,1.3,4.3,3.3,8.2,4.2.5.1.8.5.8,1s-.3.9-.8,1c0,0-3.5,1-3.4,3.2,0,0,0,.1.5.3,6.8,2.8,45.1-5.2,56-10.1.5-.2,43.8-17.7,62.8-28.5,2.2-1.2,3.9-2.3,5.3-3.3l1.2,1.7c-1.4,1-3.2,2.1-5.5,3.4-19.2,10.8-62.6,28.4-63,28.6-9,4-38.6,10.7-52.1,10.7Z"/>
  <path class="cls-1" d="M309.1,175.2h-2c0-.5,1.8-38.5-10.3-61.2-.4-.8-.8-1.5-1.3-2.3-5.2-8.6-12-13.4-20.3-14.3l-50.5-2.8c-2,.3-35.5,5.2-48.3,25.1-5,7.9-13.1,16.7-23.3,25.4,0,0,0,0-.1,0,0,0,0,0-.1,0l-.7-1.3.2.4-.6-.8s0,0,0,0h0s0,0,0,0c10.1-8.6,18-17.2,22.9-24.9,7.1-11.1,20.3-17.6,30.1-21.1,10.6-3.8,19.6-4.9,19.7-4.9,0,0,.1,0,.2,0l50.7,2.8c9,1,16.4,6.2,21.9,15.3.5.8.9,1.6,1.3,2.4,12.4,23.2,10.6,61.8,10.6,62.2ZM151.8,143.5"/>
  <g>
    <path class="cls-2" d="M74.8,176.6s-1.2-1.8-.3-3.4,2.5-1.4,4.5-1.3,7.1.4,7.1.4"/>
    <path class="cls-1" d="M73.9,177.1c0,0-1.5-2.3-.3-4.5,1.1-2,3.6-1.9,5.4-1.9,1.9,0,7.1.4,7.1.4v2c-.1,0-5.2-.3-7.2-.4-2,0-3.1,0-3.5.8-.6,1.1.2,2.3.2,2.4l-1.7,1.1Z"/>
  </g>
  <g>
    <path class="cls-2" d="M231.3,70.5s-2.3,20.8-6.7,23.1c0,0,20.7,13.9,38.2,8.9,10-3.9,12.5-6.1,12.5-6.1l-5.5-25.8h-38.5Z"/>
    <path class="cls-1" d="M254.6,104.6c-15.3,0-29.9-9.7-30.6-10.1-.3-.2-.5-.5-.5-.9,0-.4.2-.7.5-.9,2.8-1.5,5.3-14.5,6.2-22.3,0-.5.5-1,1-.9h38.5c.5.1.9.5,1,1l5.5,25.8c0,.4,0,.7-.3,1-.1,0-2.8,2.4-12.8,6.3-2.8.8-5.7,1.1-8.6,1.1ZM226.3,93.5c4.5,2.7,21.6,12.2,36.3,8,7.3-2.8,10.5-4.8,11.6-5.5l-5.2-24.3h-36.8c-.5,4.4-2.4,17.6-5.9,21.8Z"/>
  </g>
  <g>
    <ellipse class="cls-2" cx="230.2" cy="68.8" rx="5" ry="6.5"/>
    <path class="cls-1" d="M230.2,76.3c-3.3,0-6.1-3.4-6.1-7.5s2.7-7.5,6.1-7.5,6.1,3.4,6.1,7.5-2.7,7.5-6.1,7.5ZM230.2,63.3c-2.2,0-4,2.5-4,5.5s1.8,5.5,4,5.5,4-2.5,4-5.5-1.8-5.5-4-5.5Z"/>
  </g>
  <g>
    <ellipse class="cls-2" cx="271.7" cy="67.5" rx="5" ry="6.5"/>
    <path class="cls-1" d="M271.7,75.1c-3.3,0-6.1-3.4-6.1-7.5s2.7-7.5,6.1-7.5,6.1,3.4,6.1,7.5-2.7,7.5-6.1,7.5ZM271.7,62c-2.2,0-4,2.5-4,5.5s1.8,5.5,4,5.5,4-2.5,4-5.5-1.8-5.5-4-5.5Z"/>
  </g>
  <path class="cls-1" d="M224.5,42.2s10.8.3,17.1-1.8c6.3-2.2,29.6-2.2,30.7,17.2s3.2,25.3,14.5,23.1c0,0-5.2,13.6-25.7,14.9s-31.9-17.8-32-27.2c-.1-9.4,3.1-15.6,3.1-15.6,0,0-9-2.1-7.7-10.7Z"/>
  <path class="cls-1" d="M287.8,176c-.6,0-1-.5-1-1,0-6.5-.9-19.6-1-19.7,0-.6.4-1.1.9-1.1.6,0,1.1.4,1.1.9,0,.1,1,13.2,1,19.9s-.5,1-1,1Z"/>
  <path class="cls-1" d="M120.7,196.6c-.1,0-.2,0-.3,0-7.7-2.7-10.6-22.6-10.9-24.9,0-.6.3-1.1.9-1.2.6,0,1.1.3,1.2.9.8,5.8,4,21.3,9.6,23.2.5.2.8.8.6,1.3-.1.4-.5.7-1,.7Z"/>
  <path class="cls-1" d="M70.8,192.8c-2.7,0-5.4-.1-7.6-.5-.6,0-.9-.6-.9-1.2,0-.6.6-1,1.2-.9,6.8,1,18.7-.1,18.8-.1.6,0,1.1.4,1.1.9,0,.6-.4,1.1-.9,1.1-.3,0-5.9.6-11.7.6Z"/>
  <path class="cls-1" d="M68.2,201.2c-.9,0-1.6,0-2.1-.1-.6,0-.9-.6-.8-1.2,0-.6.6-.9,1.2-.8,2.7.4,13.2-.7,17.1-1.2.6,0,1.1.3,1.1.9,0,.6-.3,1.1-.9,1.1-.5,0-10.5,1.3-15.6,1.3Z"/>
  <g>
    <ellipse class="cls-2" cx="86.6" cy="71.1" rx="4.1" ry="5"/>
    <path class="cls-1" d="M86.6,77.1c-2.8,0-5.1-2.7-5.1-6.1s2.3-6.1,5.1-6.1,5.1,2.7,5.1,6.1-2.3,6.1-5.1,6.1ZM86.6,67c-1.7,0-3.1,1.8-3.1,4s1.4,4,3.1,4,3.1-1.8,3.1-4-1.4-4-3.1-4Z"/>
  </g>
  <g>
    <ellipse class="cls-2" cx="134" cy="72.6" rx="4.1" ry="5"/>
    <path class="cls-1" d="M134,78.6c-2.8,0-5.1-2.7-5.1-6.1s2.3-6.1,5.1-6.1,5.1,2.7,5.1,6.1-2.3,6.1-5.1,6.1ZM134,68.6c-1.7,0-3.1,1.8-3.1,4s1.4,4,3.1,4,3.1-1.8,3.1-4-1.4-4-3.1-4Z"/>
  </g>
  <g>
    <path class="cls-2" d="M45.9,177.1c-15.2-49.2,24.9-75.3,24.9-75.3,30.6-18.1,76.6-9.2,104.8,17.4,1.1,1,2.1,2,3.1,3,27.8,28.9,65,14.6,69.1,11.8,4.2-2.7,17.2-15.7,20.4-19.8,3.1-4.2,4.7-9.6,6.7-6.5,2.1,3.1-3.8,14.5-3.8,14.5,0,0,17.8-15.2,20-13.7,2.1,1.3-3.5,7.3-4.2,8.1.8-.6,6.5-4.9,9.6-5.4.5-.1,1,0,1.4,0,.6.3.5,1.1,0,2.2-1.6,3.4-6.9,9.5-7.5,10.2.7-.5,7.6-5.5,9.3-2.8,1.8,2.8-7.1,10-10.8,14-3.6,4-28.1,20.6-28.1,20.6,0,0-20.2,14-48.6,17.6-7.7,1-15.5-.7-23-3.6-1.8-.7-3.6-1.5-5.4-2.4-16.8-8.2-30.1-21.5-31.3-22.7,0,0,0,0,0,0h0c-14.1,12.1-30.3,22.4-41.8,27.2,0,0-24.4,1.4-30.2.3-4.8-.9-7.9,1.9-5.5,4.7"/>
    <path class="cls-1" d="M44.9,177.4c-15.2-49.3,24.9-76.2,25.3-76.4,30.1-17.9,76.7-10.2,106,17.5,1.1,1.1,2.1,2.1,3.1,3.1,27,28.1,63.3,14.7,67.8,11.7,4.1-2.7,17-15.5,20.1-19.6.9-1.2,1.7-2.5,2.3-3.7,1.4-2.4,2.4-4.1,3.9-4.1.8,0,1.5.4,2.1,1.4,1.5,2.3-.2,7.5-1.8,11.3,10-8.3,16-12,17.7-10.8.5.3.8.8.9,1.4,0,.4.2,1.2-.9,3.1,1.7-1,3.3-1.8,4.6-2,.8-.2,1.5-.1,2,.2.7.3,1,1,1,1.8,0,.5-.2,1.1-.5,1.8-.7,1.6-2.2,3.7-3.9,5.9,1.3-.6,2.7-.9,3.8-.7.8.1,1.4.6,1.8,1.2,1.8,2.8-2.9,7.4-7.5,11.8-1.3,1.2-2.5,2.4-3.4,3.4-3.7,4.1-27.3,20-28.3,20.7-.2.1-20.8,14.1-49,17.8-7.1.9-15-.3-23.5-3.7-1.8-.7-3.7-1.5-5.5-2.4-15.2-7.4-27.7-19.1-30.9-22.2-13.4,11.3-29.6,21.8-41.4,26.7-.1,0-.2,0-.3,0-1,0-24.5,1.4-30.4.3-2.5-.5-4.4.2-5,1.2-.4.7,0,1.4.4,1.9l-1.6,1.3c-1.2-1.4-1.4-2.9-.6-4.2,1.1-1.9,3.9-2.8,7.1-2.2,5.4,1,27.5-.2,29.7-.3,11.8-4.9,27.8-15.3,41.1-26.6.1-.2.3-.4.6-.5.4-.2.8,0,1.1.2,1.5,1.5,14.7,14.6,31,22.6,1.8.9,3.5,1.6,5.3,2.3,8.2,3.2,15.7,4.4,22.5,3.5,27.7-3.6,47.9-17.3,48.1-17.4.3-.2,24.4-16.5,27.9-20.4.9-1,2.2-2.2,3.5-3.5,2.8-2.7,8.1-7.8,7.2-9.3,0-.1-.2-.2-.5-.3-1.5-.3-4.8,1.6-7.3,3.4-.4.3-1,.3-1.4-.1-.4-.4-.4-1,0-1.4h.1c3.7-4.5,6.3-7.9,7.2-9.9.2-.4.3-.7.3-.9-.1,0-.3,0-.5,0-1.8.3-5.2,2.3-9.1,5.2-.4.3-1,.3-1.4-.1-.4-.4-.4-1,0-1.4,3.6-4,4.4-5.9,4.4-6.5-2.1.3-11.2,7.2-18.7,13.6-.4.3-.9.3-1.3,0-.4-.3-.5-.8-.3-1.3,2.3-4.5,5-11.7,3.8-13.5-.3-.4-.4-.5-.4-.5-.4.1-1.5,1.9-2.2,3.1-.7,1.2-1.5,2.6-2.5,3.9-3.2,4.2-16.4,17.3-20.6,20.1-4.7,3.1-42.5,17.1-70.4-12-1-1-1.9-2-3-3-28.7-27.1-74.2-34.7-103.5-17.3-.4.2-39.2,26.3-24.4,74.1l-2,.6ZM290.6,109.5h0Z"/>
  </g>
  <path class="cls-1" d="M259.5,156.2c-.5,0-.9-.4-1-.9-2.7-15.8-11.2-20.3-11.3-20.3-.5-.3-.7-.9-.5-1.4.3-.5.9-.7,1.4-.5.4.2,9.5,4.9,12.4,21.8,0,.6-.3,1.1-.8,1.2,0,0-.1,0-.2,0Z"/>
  <path class="cls-1" d="M276.4,127.2c-.3,0-.6-.1-.8-.3-.4-.4-.4-1.1,0-1.4l10.4-9.5c.4-.4,1.1-.4,1.4,0,.4.4.4,1.1,0,1.4l-10.4,9.5c-.2.2-.4.3-.7.3Z"/>
  <path class="cls-1" d="M280.7,133.2c-.3,0-.6-.1-.8-.3-.4-.4-.3-1.1,0-1.4l12.1-10.7c.4-.4,1.1-.3,1.4,0,.4.4.3,1.1,0,1.4l-12.1,10.7c-.2.2-.4.3-.7.3Z"/>
  <path class="cls-1" d="M64.1,174.9c-.5,0-.9-.3-1-.8-3.9-15.1,1.6-35.1,1.8-36,.2-.5.7-.9,1.3-.7.5.2.9.7.7,1.3,0,.2-5.5,20.4-1.8,34.9.1.5-.2,1.1-.7,1.2,0,0-.2,0-.3,0Z"/>
  <path class="cls-1" d="M109.5,42.9s-16.3-2.6-18.7,7.9c-2.3,10.5-4.3,42.9-26.7,50.9,0,0,15,25.5,42.9,23.7,27.9-1.8,30.3-17.1,29.2-32.1-1.1-15-1-57-26.7-50.4Z"/>
</svg>