<?xml version="1.0" encoding="UTF-8"?>
<svg id="Layer_1" data-name="Layer 1" xmlns="http://www.w3.org/2000/svg" version="1.1" viewBox="0 0 346 233.7">
  <defs>
    <style>
      .cls-1 {
        fill: #000;
      }

      .cls-1, .cls-2, .cls-3, .cls-4 {
        stroke-width: 0px;
      }

      .cls-2 {
        fill: #fcc92f;
      }

      .cls-3 {
        fill: #fec92d;
      }

      .cls-4 {
        fill: #fff;
      }
    </style>
  </defs>
  <g>
    <path class="cls-4" d="M209.7,94v19.8c0,6.4-5.2,11.7-11.7,11.7h-33.6c-8,0-14.4-6.5-14.4-14.4v-17.1s0-13.6,6.9-19.5c1.3-1.1,2.3-2.6,2.9-4.1.5-1.1.7-2.3.9-3.5.7-5.4-1.2-10.8-1.2-10.8h42.8c-.6,4-.5,7.7,0,10.8.2,1.2.5,2.4.8,3.5.7,2.2,1.6,4,2.7,5.3,3.1,3.5,4,18.3,4,18.3Z"/>
    <path class="cls-1" d="M198,126.2h-33.6c-8.4,0-15.2-6.8-15.2-15.2v-17.1c0-.6,0-14,7.2-20.1,1.2-1,2.1-2.3,2.7-3.8.4-1,.7-2.1.8-3.3.7-5.2-1.2-10.4-1.2-10.5,0-.2,0-.5,0-.7s.4-.3.6-.3h42.8c.2,0,.4,0,.6.3.1.2.2.4.2.6-.5,3.7-.6,7.4,0,10.6.2,1.2.4,2.3.8,3.4.6,2,1.5,3.8,2.6,5,3.3,3.7,4.1,18.1,4.2,18.8,0,0,0,0,0,0v19.8c0,6.8-5.6,12.4-12.4,12.4ZM160.5,56.9c.5,1.9,1.5,6,1,10.2-.2,1.4-.5,2.5-.9,3.7-.7,1.7-1.7,3.2-3.1,4.4-6.6,5.6-6.7,18.8-6.7,18.9v17.1c0,7.5,6.1,13.7,13.7,13.7h33.6c6,0,10.9-4.9,10.9-10.9v-19.8c-.2-4.1-1.4-15.1-3.8-17.8-1.2-1.4-2.2-3.3-2.9-5.5-.4-1.1-.6-2.3-.8-3.6-.5-3.1-.5-6.6,0-10.2h-40.9Z"/>
  </g>
  <path class="cls-3" d="M201.4,66.9h-40c.7-5.4-1-10.1-1-10.1h41.3c-.6,4-.8,6.9-.3,10.1Z"/>
  <path class="cls-1" d="M162.1,112.9c-4.3,0-7.2-6.4-7.3-6.6,0-.1,0-.3,0-.4l2.9-21.2c0-.5.6-6.3,4.6-8,2.4-1,4.6-.2,5.9.7.4-1.6,1.5-3.4,3.8-3.7,3.3-.5,6.3,1.5,7.7,5,1.1,2.8,7.9,14.2,8,14.3,0,.1,0,.2.1.3,0,.2.3,5.4-2.8,8.6-1.3,1.4-3.1,2.2-5.2,2.4.4,2.2.2,5.6-3,7-3.5,1.5-6.9-.9-8.3-2.1-1,1.3-3.2,3.7-6.4,3.7,0,0,0,0,0,0ZM156.3,105.9c.8,1.7,3.2,5.6,5.8,5.6s0,0,0,0c3.4,0,5.6-3.7,5.6-3.8.1-.2.3-.3.6-.4.2,0,.5,0,.6.2,0,0,3.8,4,7.3,2.4,3.4-1.5,2-5.9,2-6.1,0-.2,0-.5.1-.7.1-.2.4-.3.6-.3,2.1,0,3.8-.7,5-1.9,2.3-2.4,2.4-6.5,2.4-7.3-.9-1.5-6.9-11.6-8-14.3-.9-2.3-3-4.6-6.1-4.1-2.6.4-2.7,3.6-2.7,3.8,0,.3-.2.6-.5.7-.3.1-.6,0-.8-.2,0-.1-2.2-2.6-5.3-1.3-3.2,1.4-3.7,6.7-3.7,6.8,0,0,0,0,0,0l-2.9,21ZM158.5,84.8h0,0Z"/>
  <path class="cls-1" d="M193.5,78.4c-.3,0-.7,0-1-.1-1.3-.3-2.4-1.1-3-2.2-.8-1.6-.3-3.7,1-4.8,0,0,0,0,0,0,.2-.2.5-.3.8-.5.8-.3,1.7-.3,2.6,0,1.5.5,3.1,1.9,3.5,3.7.2,1.2-.2,2.2-1.2,3-.7.6-1.6.9-2.6.9ZM191.4,72.5c-.8.7-1.1,2-.6,2.9.3.7,1.1,1.2,1.9,1.4.9.2,1.8,0,2.4-.5.6-.5.8-1,.7-1.6-.2-1-1.3-2.1-2.4-2.5-.6-.2-1.1-.2-1.5,0-.2,0-.3.2-.4.3h0Z"/>
  <path class="cls-1" d="M164.3,121.5c-1,0-2.1-.4-2.9-1-1.4-1.1-2.3-3.1-1-5.2.2-.4.5-.7.8-.9.2-.2.4-.3.6-.4.8-.4,1.8-.5,2.8-.1,1.4.5,3,1.8,3.4,3.4.2.8.2,1.9-.9,3-.8.9-1.9,1.2-2.9,1.2ZM163.3,115.2c-.3,0-.6,0-.8.2-.1,0-.2.1-.3.2h0c-.2.1-.3.3-.5.6-.8,1.3-.2,2.5.6,3.2,1,.8,2.6,1.1,3.7,0,.5-.5.6-1,.5-1.6-.3-1-1.4-2-2.4-2.3-.3,0-.6-.1-.8-.1ZM161.7,115h0,0Z"/>
  <path class="cls-1" d="M178,126.2h-7c-.3,0-.5-.1-.6-.4-.1-.2-.1-.5,0-.7,1.4-2.7,5.4-9.1,11.4-11.6.9-1.8,6.1-11.9,13.6-14,.2,0,.4,0,.6.1l4.4,3c.2.1.3.4.3.6s-.1.5-.3.6c-2.2,1.4-7.6,5.3-9.6,8.2.9.2,2.1.5,3.2,1.5,1.2,1.1,1.9,2.8,2,4.9h0c0,1.9-.9,3.8-2.5,5.1-2,1.6-4.7,2.2-6.9,1.5-1.8-.5-3-1.9-4.1-3.2-.9.9-3,3-3.2,3.3-.2.2-.3.4-.5.6-.1.2-.4.3-.6.3ZM172.2,124.7h5.4c0-.1.2-.3.3-.4,0,0,3.6-4.1,4.4-4.1.2,0,.4,0,.6.2l.4.5c1,1.2,2.1,2.4,3.4,2.8,1.8.5,3.9,0,5.5-1.3,1.3-1,2-2.4,2-3.9h0c0-1.7-.6-3-1.5-3.8-1.4-1.3-3.3-1.2-3.4-1.2-.3,0-.5-.1-.7-.3-.1-.2-.2-.5,0-.7,1.4-3.2,7.4-7.6,9.8-9.2l-3.2-2.2c-7.2,2.2-12.3,13.2-12.4,13.3,0,.2-.2.3-.4.4-5,2-8.5,7-10.2,9.9Z"/>
  <path class="cls-1" d="M179.8,40.3c-.4,0-.7-.3-.7-.7l-.7-15.1c0-.4.3-.8.7-.8.4,0,.8.3.8.7l.7,15.1c0,.4-.3.8-.7.8,0,0,0,0,0,0Z"/>
  <path class="cls-1" d="M205.9,46.6c-.2,0-.4,0-.5-.2-.3-.3-.3-.8,0-1.1l13.9-13.1c.3-.3.8-.3,1.1,0s.3.8,0,1.1l-13.9,13.1c-.1.1-.3.2-.5.2Z"/>
  <path class="cls-1" d="M217.2,60.2c-.4,0-.7-.3-.7-.7,0-.4.3-.8.7-.8l12.8-1.2c.4,0,.8.3.8.7,0,.4-.3.8-.7.8l-12.8,1.2s0,0,0,0Z"/>
  <path class="cls-1" d="M237.9,78.4s0,0-.1,0l-16.6-3.3c-.4,0-.7-.5-.6-.9,0-.4.5-.7.9-.6l16.6,3.3c.4,0,.7.5.6.9,0,.4-.4.6-.7.6Z"/>
  <path class="cls-1" d="M119.3,77.7c-.4,0-.7-.3-.7-.7,0-.4.3-.8.7-.8l18.8-.9c.4,0,.8.3.8.7,0,.4-.3.8-.7.8l-18.8.9s0,0,0,0Z"/>
  <path class="cls-1" d="M138.1,58.1c-.1,0-.3,0-.4-.1l-13.2-7.6c-.4-.2-.5-.7-.3-1,.2-.4.7-.5,1-.3l13.2,7.6c.4.2.5.7.3,1-.1.2-.4.4-.7.4Z"/>
  <path class="cls-1" d="M150,47.1c-.2,0-.5-.1-.6-.3l-9.1-14.4c-.2-.4-.1-.8.2-1,.3-.2.8-.1,1,.2l9.1,14.4c.2.4.1.8-.2,1-.1,0-.3.1-.4.1Z"/>
  <circle class="cls-1" cx="100.6" cy="61.5" r="2.3"/>
  <circle class="cls-1" cx="156.1" cy="29.6" r="2.3"/>
  <circle class="cls-1" cx="192.9" cy="40.4" r="2.3"/>
  <circle class="cls-1" cx="234.9" cy="41.5" r="2.3"/>
  <circle class="cls-1" cx="237.3" cy="94" r="2.3"/>
  <circle class="cls-1" cx="118.2" cy="98.7" r="2.3"/>
  <circle class="cls-1" cx="258.2" cy="69.1" r="2.2"/>
  <polygon class="cls-2" points="179.2 71.9 177.1 83.4 165.8 89.4 176.5 91.8 172.5 103.3 185 94.6 197.7 98.5 191.9 89.2 199.8 80.5 186.6 81.6 179.2 71.9"/>
  <path class="cls-4" d="M107.2,218.3v-18.5c0-3.4.3-6.9,1-10.2,2.7-13.8,10.8-51.4,22.2-71,.6-1.6,1.2-3.2,1.7-4.8,1.3-3.7,2.6-7.4,3.9-11.1,1.4-4.1,2.8-8.2,4.2-12.4s1.9-5.7,2.6-8.6c.7-3,1.4-5.7,3.5-8.1.6-.7,1.3-1.4,2.2-1.7.2,0,.4-.1.6,0,.3.1.4.4.6.7.3.9.5,1.8.5,2.8.2,1.8.2,3.6.2,5.4,0,.9,0,1.8,0,2.7s-.2,1.9,0,2.7c.5-.1.9-.4,1.4-.6.8-.4,1.7-.7,2.6-1.1,2.3-.8,4.6-1.5,7-1.7s5.1,0,7,1.7c1.4,1.6-2,3.8-2,3.8,0,0,3.3,0,3.5,2.4.2,2.4-3.8,4.9-3.8,4.9,0,0,3.1.2,3.1,2.1s-1.8,4-9.1,6.4c-7.3,2.4-10.3,23-10.3,23,0,0-10.4,36.5-2.7,48.2,7.7,11.7,67.7,6.8,69.2,4.9s4.9-12.1,3.1-20.3c-1.8-8.3-7.4-32.1-7.4-32.1,0,0-2.2-20.5-15.9-23.2-9.5-2.2-4.3-6.5-1.9-6.3,0,0-4.6-2-3.7-5.6s8.3-1.3,8.3-1.3c0,0-8.4-1.2-6.3-5.1,2.1-3.9,15-.2,16.7,1.1,0,0-2.8-13.1.7-13.4,3.5-.3,6.9,8.4,10,16.2,3,7.8,12.5,30.6,12.5,30.6,0,0,18.1,37.6,22.8,68,.6,3.8.9,7.6.9,11.5v19.7"/>
  <path class="cls-1" d="M108.2,190.4s0,0-.1,0c-.4,0-.7-.5-.6-.9,2.9-14.9,10.9-51.6,22.2-71.1.6-1.6,1.1-3.2,1.7-4.8,1.3-3.7,2.6-7.4,3.9-11.1,1.3-3.6,2.7-7.9,4.2-12.4l.5-1.4c.8-2.3,1.6-4.7,2.1-7.1.7-3,1.5-5.8,3.6-8.4.6-.7,1.4-1.5,2.5-1.9.2,0,.6-.2,1.1,0,.7.2.9.9,1,1.1.4,1,.5,2.1.6,3,.2,1.7.2,3.4.3,5.5,0,.9,0,1.8,0,2.7,0,.3,0,.6,0,.9,0,.2,0,.4,0,.7.1,0,.3-.1.4-.2.8-.4,1.7-.7,2.6-1.1,2.7-1,5-1.6,7.2-1.8,3.2-.3,5.8.4,7.6,1.9,0,0,0,0,0,0,.4.5.6,1.1.5,1.7-.1.8-.7,1.6-1.3,2.1,1.2.4,2.4,1.2,2.5,2.8.1,1.8-1.5,3.5-2.8,4.6,1.1.4,2,1.2,2,2.5,0,2.7-3,4.9-9.6,7.1-5.6,1.9-9,16.8-9.8,22.4-.1.5-10.2,36.4-2.8,47.7,7.4,11.2,64.8,6.6,68.1,4.8,1.4-1.9,4.6-11.7,2.9-19.6-1.8-8.2-7.4-31.9-7.4-32.1,0-.3-2.3-20.1-15.3-22.7-5.4-1.3-6.3-3.2-6.1-4.7.2-1.1,1.2-2.1,2.3-2.7-1.6-1.2-3-3.1-2.4-5.5.2-.9.8-1.5,1.6-1.9.5-.2,1-.4,1.5-.5-.5-.4-.9-.8-1.2-1.4-.3-.6-.5-1.6.1-2.8.5-1,1.6-1.6,3.1-1.9,3.8-.8,10.2.8,13.3,2.1-.5-3.1-1.5-9.7.2-11.9.4-.5.9-.8,1.5-.9,3.8-.4,7,7,10.7,16.6,3,7.7,12.4,30.4,12.5,30.6.2.3,18.2,38,22.9,68.2,0,.4-.2.8-.6.9-.4,0-.8-.2-.9-.6-4.7-30-22.6-67.4-22.8-67.8-.1-.3-9.6-23-12.6-30.7-2.5-6.4-6.2-16-9.2-15.7-.1,0-.3,0-.4.3-1.2,1.7-.4,8.4.4,12.2,0,.3,0,.6-.3.8-.3.2-.6.1-.9,0-1.2-.9-9.2-3.4-13.5-2.5-1.1.2-1.8.6-2.1,1.2-.4.7-.2,1.1-.1,1.4.5,1,2.1,1.7,3.6,2.1,1.3.2,2.3.5,2.4.5.4.1.6.5.5.9,0,.4-.5.6-.8.6-.2,0-1.3-.2-2.5-.5-1.5-.2-3.1-.3-4.2.3-.4.2-.7.6-.8,1-.8,2.9,3.2,4.7,3.2,4.7.3.1.5.5.4.9,0,.4-.4.6-.8.6-1,0-2.6.9-2.8,1.8-.1.8,1.1,2.1,4.9,2.9,5.8,1.1,10.6,5.7,13.6,13.1,2.3,5.5,2.8,10.6,2.9,10.8,0,.1,5.6,23.8,7.4,32,1.9,8.6-1.7,18.9-3.2,20.9-1.3,1.7-24.1,3.5-41.3,2.8-16.4-.7-26.2-3.3-29.1-7.7-7.8-11.8,2.2-47.3,2.6-48.8.1-.8,3.1-20.9,10.8-23.5,5.8-1.9,8.6-3.8,8.6-5.7s-2.3-1.3-2.4-1.3c-.3,0-.6-.2-.7-.6,0-.3,0-.6.3-.8.9-.6,3.6-2.6,3.5-4.2-.1-1.6-2.8-1.7-2.8-1.7-.3,0-.6-.2-.7-.5,0-.3,0-.7.3-.8.6-.4,1.9-1.4,2-2.2,0-.2,0-.3-.1-.4-1.5-1.2-3.7-1.8-6.5-1.5-2.1.2-4.3.7-6.8,1.7-.8.3-1.7.7-2.5,1-.1,0-.3.1-.4.2-.3.2-.7.4-1.1.5-.4,0-.8-.2-.9-.5-.2-.7-.1-1.4,0-2.1,0-.3,0-.5,0-.8,0-.9,0-1.8,0-2.7,0-2,0-3.7-.2-5.3,0-.8-.2-1.8-.5-2.6,0-.2-.1-.2-.1-.3,0,0,0,0-.1,0-.8.2-1.4.9-1.8,1.4-2,2.3-2.7,5-3.3,7.8-.6,2.5-1.4,4.9-2.1,7.3l-.5,1.4c-1.4,4.4-2.9,8.7-4.2,12.4-1.3,3.7-2.6,7.4-3.9,11.1-.6,1.6-1.1,3.2-1.7,4.8,0,0,0,0,0,.1-11.2,19.3-19.2,55.9-22.1,70.7,0,.4-.4.6-.7.6ZM215.9,179.6h0Z"/>
  <path class="cls-1" d="M146.3,90.6c-.2,0-.4,0-.5-.2-.3-.3-.3-.8,0-1.1.1-.1,3.1-3.2,4.9-4,.4-.2.8,0,1,.4.2.4,0,.8-.4,1-1.3.6-3.7,2.9-4.4,3.7-.1.2-.3.2-.5.2Z"/>
  <path class="cls-1" d="M151.6,95.3c-.2,0-.5-.1-.6-.3-.2-.3-.2-.8.1-1.1.3-.2,8.1-6,15.7-6.6.4,0,.8.3.8.7,0,.4-.3.8-.7.8-7.2.5-14.9,6.2-15,6.3-.1.1-.3.2-.5.2Z"/>
  <path class="cls-1" d="M154.2,100.9c-.3,0-.6-.2-.7-.4-.2-.4,0-.8.4-1,.3-.1,7-3.3,12.8-4.8.4-.1.8.1.9.5.1.4-.1.8-.5.9-5.7,1.4-12.5,4.6-12.6,4.7-.1,0-.2,0-.3,0Z"/>
  <path class="cls-1" d="M214.1,92.3c-.3,0-.5-.2-.7-.4,0,0-1.2-2.3-4.4-3.9-.4-.2-.5-.6-.3-1s.6-.5,1-.3c3.8,1.9,5.1,4.5,5.1,4.6.2.4,0,.8-.4,1-.1,0-.2,0-.3,0Z"/>
  <path class="cls-1" d="M208.7,97.1c-.1,0-.3,0-.4-.1,0,0-4.1-2.9-9.7-4.9-.4-.1-.6-.6-.4-1,.1-.4.6-.6,1-.4,5.7,2.1,9.8,5,10,5.1.3.2.4.7.2,1-.1.2-.4.3-.6.3Z"/>
  <path class="cls-1" d="M206.9,103.1c-.1,0-.2,0-.3,0,0,0-6.4-3.2-12.4-4-.4,0-.7-.4-.6-.8,0-.4.4-.7.8-.6,6.3.9,12.6,4.1,12.9,4.2.4.2.5.6.3,1-.1.3-.4.4-.7.4Z"/>
  <path class="cls-1" d="M180.2,219.4c-.4,0-.7-.3-.8-.7,0-2-.6-19.5,1.7-22.5.2-.3.7-.4,1-.1.3.2.4.7.1,1.1-1.4,1.9-1.6,14.2-1.4,21.5,0,.4-.3.8-.7.8,0,0,0,0,0,0Z"/>
  <circle class="cls-1" cx="189.1" cy="205.5" r="1.9"/>
  <path class="cls-1" d="M144.7,127.9c-9.4,0-15.3-7.9-15.4-8-.2-.3-.2-.8.2-1,.3-.2.8-.2,1,.2.3.4,7.7,10.2,19.2,6.5.4-.1.8,0,.9.5.1.4,0,.8-.5.9-1.9.6-3.7.9-5.5.9Z"/>
  <path class="cls-1" d="M214.2,129.4c-1.2,0-2,0-2,0-.4,0-.7-.4-.7-.8,0-.4.4-.7.8-.7.1,0,14.5,1.3,19.1-8.4.2-.4.6-.5,1-.4.4.2.5.6.4,1-2.1,4.5-6.4,7.5-12.3,8.7-2.5.5-4.7.6-6.3.6Z"/>
  <path class="cls-1" d="M137.8,180.4c-.4-.9,0-1.9,1-2.2,4.1-1.3,14.3-6.6,15-28,.8-25.2,20.1-24.9,22.7-25.5.2,0,.3,0,.5,0,2.6.2,26.1-4.6,32.6,18,6.2,21.4,11.3,37.1,14.5,42,.5.8.2,1.9-.7,2.3-3.3,1.6-10.4,4.3-16.8,2.1-.2,0-.3,0-.5,0h-45.4c-.6,0-1.1.3-1.4.8-.6,1.1-2.1,2.8-5,2.4-3.8-.5-13.6-4.9-16.7-11.6Z"/>
  <g>
    <path class="cls-4" d="M160.3,154.8s-.6-3.5,1.6-7.2c2.2-3.7,5.1-6.5,4.8-5.4s-3.1,5.1-2,4.6,8.7-5.4,12.2-9.8c3.5-4.4-2.6,6.6-1.6,5.9s7.1-5.2,9.1-9.4c0,0,7.1,11.3,11.4,11.9,0,0-2.7-5.3-1.5-5.1s10.8,7.7,10.8,14.6c0,0,1.1-2.6,3.3-2.9s4.9,1.2,5.2,4.8c.3,3.5-.9,9-9.1,6.7,0,0-3.1,17.8,2.1,25.4,0,0-12.5,8.3-25.3,7.7-12.7-.7-21.4-7.7-21.4-7.7,0,0,3.9-17.3,0-25.9,0,0-7.8,4.3-8.9-3.8-1.2-8.9,5.4-7.6,6.2-7.4s1,4,3.1,3.1Z"/>
    <path class="cls-1" d="M182.7,197.3c-.5,0-1,0-1.5,0-12.8-.7-21.5-7.5-21.8-7.8-.2-.2-.3-.5-.3-.7,0-.2,3.6-16.2.3-24.8-1.3.6-4.1,1.5-6.3.3-1.6-.8-2.6-2.5-2.9-5-.4-3.4.1-5.8,1.7-7.2,2.2-1.9,5.3-1.1,5.4-1,.6.2.9.9,1.2,1.6.2.5.5,1.3.9,1.5,0-1.3,0-4,1.8-6.9,0,0,4.1-6.6,5.7-6,.3.1.6.5.5,1.1-.1.5-.5,1.2-1.2,2.3,0,.2-.2.3-.3.5,2.6-1.7,7.7-5.4,10.4-8.7.7-.9,1.3-1.7,2.1-1.2.8.5.4,1.3-1.2,4.8,0,.2-.2.4-.3.6,2.2-1.8,5.5-4.8,6.9-7.6.1-.2.4-.4.6-.4.3,0,.5.1.7.4,1.6,2.6,6,8.8,9.3,10.8-1.4-3.2-1-3.8-.8-4,.2-.3.6-.4,1-.4,1.5.3,9.6,6.7,11.1,13.2.6-.7,1.5-1.4,2.6-1.6,1.3-.2,2.7.2,3.8,1,1.3,1,2.1,2.6,2.2,4.4.1,1.7,0,4.9-2.2,6.7-1.6,1.3-4,1.7-7.1,1-.5,3.5-2.3,17.7,2.1,24.1.1.2.2.4.1.6,0,.2-.2.4-.3.5-.5.3-11.9,7.8-24.2,7.8ZM160.7,188.6c1.8,1.3,9.7,6.7,20.6,7.2,10.8.6,21.5-5.5,24.2-7.2-4.8-8.1-2-24.6-1.8-25.3,0-.2.2-.4.3-.5.2-.1.4-.1.6,0,3,.8,5.2.6,6.5-.5,1.8-1.5,1.7-4.3,1.6-5.4-.1-1.8-1-2.8-1.7-3.4-.8-.6-1.8-.9-2.7-.7-1.7.3-2.7,2.5-2.7,2.5-.1.3-.5.5-.8.4-.3,0-.6-.4-.6-.7,0-5.6-6.9-11.7-9.4-13.4.3.9.9,2.4,1.6,3.6.1.2.1.5,0,.8-.2.2-.4.4-.7.3-3.9-.5-9.3-8.2-11.3-11.1-2.5,4-7.6,7.8-8.7,8.6-.4.3-.8.2-1,0-.6-.5-.4-.9,1.1-4,0,0,0-.2.1-.3-3.9,4-9.8,7.9-11,8.3-.6.2-1,0-1.1-.2-.3-.3-.3-.7,0-1.3-.4.6-.8,1.2-1.3,1.9-2,3.4-1.5,6.7-1.5,6.7,0,.3-.1.7-.4.8-.6.2-1.1.3-1.6,0-1-.4-1.4-1.5-1.7-2.4,0-.2-.2-.6-.3-.8-.5-.1-2.5-.4-3.9.7-1.2,1-1.6,3-1.2,5.9.3,2,1,3.3,2.1,3.9,2.3,1.2,5.6-.7,5.6-.7.2-.1.4-.1.6,0,.2,0,.4.2.4.4,3.7,8.1.8,23,.2,25.9Z"/>
  </g>
  <path class="cls-1" d="M173.9,153.1c-.4,0-.7-.3-.8-.7,0,0-.1-.9-1.6-1.2-1.6-.3-2.6.8-2.6.9-.2.3-.7.4-1.1.1-.3-.2-.4-.7-.1-1.1,0,0,1.5-1.9,4-1.4,2.7.5,2.8,2.5,2.8,2.6,0,.4-.3.8-.7.8,0,0,0,0,0,0Z"/>
  <path class="cls-1" d="M194.6,153.7c0,0-.1,0-.2,0-.4,0-.7-.5-.6-.9,0-.3,0-1.3-1.6-1.6-2-.4-2.6.9-2.6.9-.2.4-.6.5-1,.4-.4-.2-.5-.6-.4-1,.4-.8,1.7-2.2,4.2-1.7,1.1.2,1.9.7,2.4,1.4.6.9.4,1.9.4,2,0,.4-.4.6-.7.6Z"/>
  <path class="cls-1" d="M182,169.5c-1.8,0-3.3-.6-4.3-1.7-1.9-2.1-1.4-5.4-1.4-5.5,0-.4.4-.7.9-.6.4,0,.7.4.6.9,0,0-.4,2.7,1,4.3.7.8,1.9,1.2,3.3,1.2,1.4,0,2.4-.4,3-1.2,1.2-1.7.4-4.5.4-4.5-.1-.4.1-.8.5-.9.4-.1.8.1.9.5,0,.1,1,3.6-.6,5.9-.9,1.2-2.3,1.8-4.2,1.9,0,0-.1,0-.2,0Z"/>
  <path class="cls-1" d="M156.1,161.1s-.1,0-.2,0c-1.1-.2-2.3-1.1-2.3-4.1s1.6-2.9,1.7-3c.4-.2.8-.1,1,.2.2.4.1.8-.2,1,0,0-1,.7-1,1.7s.2,2.5,1.1,2.7c.4,0,.7.5.6.9,0,.4-.4.6-.7.6Z"/>
  <path class="cls-1" d="M208.2,160.3c-.4,0-.7-.3-.7-.6,0-.4.2-.8.6-.9.2,0,.9-.3.8-1.6-.1-1.2-.8-1.3-1-1.3-.4,0-.8-.3-.8-.7,0-.4.3-.8.7-.8.8,0,2.3.4,2.6,2.6.3,2.2-1.2,3.1-2,3.2,0,0,0,0-.1,0Z"/>
  <path class="cls-1" d="M189.1,121.4c-.7,0-1.4-.3-1.9-1-.6-.8-1.2-2.6-.8-3.8.2-.6.7-1.1,1.3-1.2,1.4-.4,3,1,3.5,1.7.5.6.7,1.3.6,2-.1.7-.6,1.4-1.2,1.9h0c-.5.3-.9.5-1.4.5ZM188.2,116.8s0,0-.1,0c0,0-.2,0-.2.3-.2.7.2,1.9.5,2.4.5.7,1.1.4,1.3.2h0c.3-.2.5-.5.6-.9,0-.3,0-.6-.3-.9-.4-.5-1.4-1.2-1.8-1.2Z"/>
  <path class="cls-1" d="M182.4,121.7c-.3,0-.6-.2-.7-.5-1.8-4.8-.1-7.4,0-7.5.2-.3.7-.5,1-.2.3.2.5.7.2,1,0,0-1.3,2.2.2,6.2.1.4,0,.8-.4,1,0,0-.2,0-.3,0Z"/>
  <path class="cls-1" d="M187.6,116.9c0,0-.2,0-.2,0-.4-.1-.6-.6-.5-1,0-.1.9-2.7,2.5-4.7.3-.3.7-.4,1.1,0,.3.3.4.7,0,1.1-1.4,1.7-2.3,4.2-2.3,4.2-.1.3-.4.5-.7.5Z"/>
</svg>