<?xml version="1.0" encoding="UTF-8"?>
<svg id="Layer_1" data-name="Layer 1" xmlns="http://www.w3.org/2000/svg" version="1.1" viewBox="0 0 346 233.7">
  <defs>
    <style>
      .cls-1 {
        fill: #8cccec;
      }

      .cls-1, .cls-2, .cls-3, .cls-4 {
        stroke-width: 0px;
      }

      .cls-2 {
        fill: #000;
      }

      .cls-3 {
        fill: #fac9cb;
      }

      .cls-4 {
        fill: #fff;
      }
    </style>
  </defs>
  <g>
    <polygon class="cls-4" points="185.3 84.5 228.6 75.5 229.6 83.3 187.5 92.8 185.3 84.5"/>
    <path class="cls-2" d="M187.5,93.5c-.3,0-.6-.2-.7-.6l-2.2-8.3c0-.2,0-.4,0-.6.1-.2.3-.3.5-.3l43.3-9.1c.2,0,.4,0,.6.1.2.1.3.3.3.5l1,7.8c0,.4-.2.7-.6.8l-42.1,9.5c0,0-.1,0-.2,0ZM186.2,85.1l1.8,6.8,40.7-9.2-.8-6.3-41.7,8.7Z"/>
  </g>
  <g>
    <polygon class="cls-4" points="229.6 99.9 212.9 101.6 207.6 102.2 185.3 104.5 184.4 90.9 205.9 88.1 210.6 87.5 227.4 85.3 229.6 99.9"/>
    <path class="cls-2" d="M185.3,105.3c-.2,0-.3,0-.5-.2-.2-.1-.3-.3-.3-.5l-.9-13.6c0-.4.3-.7.7-.8l43-5.6c.4,0,.8.2.8.6l2.2,14.5c0,.2,0,.4-.1.6-.1.2-.3.3-.5.3l-44.3,4.7s0,0,0,0ZM185.2,91.6l.8,12.1,42.8-4.5-2-13-41.6,5.4Z"/>
  </g>
  <polygon class="cls-1" points="212.5 100.8 207.5 101.4 206 88.9 210.7 88.3 212.5 100.8"/>
  <rect class="cls-1" x="203.7" y="89.1" width="1.5" height="12.6" transform="translate(-9.5 23.9) rotate(-6.5)"/>
  <path class="cls-2" d="M230.8,36c-.2,0-.5-.1-.6-.3-.2-.3-.1-.8.2-1l8.6-5.5c.3-.2.8-.1,1,.2s.1.8-.2,1l-8.6,5.5c-.1,0-.3.1-.4.1Z"/>
  <path class="cls-2" d="M239.5,42.3c0,0-.1,0-.2,0l-7.1-1.7c-.4,0-.6-.5-.6-.9,0-.4.5-.6.9-.6l7.1,1.7c.4,0,.6.5.6.9,0,.3-.4.6-.7.6Z"/>
  <path class="cls-2" d="M239.5,53.7c-.1,0-.2,0-.4,0l-5.4-2.9c-.4-.2-.5-.7-.3-1,.2-.4.7-.5,1-.3l5.4,2.9c.4.2.5.7.3,1-.1.2-.4.4-.7.4Z"/>
  <g>
    <polygon class="cls-4" points="182.3 64.8 182.3 76.4 225.3 77.1 225.3 64.8 182.3 64.8"/>
    <path class="cls-2" d="M225.3,77.8h0l-43-.7c-.4,0-.7-.3-.7-.8v-11.6c0-.4.3-.8.8-.8h43c.4,0,.8.3.8.8v12.3c0,.2,0,.4-.2.5-.1.1-.3.2-.5.2ZM183,75.7l41.5.7v-10.8h-41.5v10.1Z"/>
  </g>
  <g>
    <polygon class="cls-4" points="221.9 58 213.4 59.8 208 60.9 179.1 66.8 178.1 59.3 205.7 53.1 211.2 51.9 219.8 50 221.9 58"/>
    <path class="cls-2" d="M179.1,67.6c-.2,0-.3,0-.4-.1-.2-.1-.3-.3-.3-.5l-1-7.6c0-.4.2-.7.6-.8l41.8-9.3c.4,0,.8.2.9.5l2.1,8c0,.2,0,.4,0,.6s-.3.3-.5.3l-42.8,8.8c0,0-.1,0-.2,0ZM178.9,59.9l.8,6.1,41.3-8.5-1.7-6.6-40.4,9Z"/>
  </g>
  <polygon class="cls-1" points="213.4 59 208 60.1 206.1 53.8 211.6 52.6 213.4 59"/>
  <g>
    <polygon class="cls-4" points="180.6 23.3 179.9 32.9 222.4 38.1 223.1 28.6 180.6 23.3"/>
    <path class="cls-2" d="M222.4,38.9s0,0,0,0l-42.5-5.2c-.4,0-.7-.4-.7-.8l.7-9.5c0-.2.1-.4.3-.5s.4-.2.6-.2l42.5,5.2c.4,0,.7.4.7.8l-.7,9.5c0,.2-.1.4-.3.5-.1.1-.3.2-.5.2ZM180.7,32.2l41,5.1.6-8-41-5.1-.6,8Z"/>
  </g>
  <g>
    <polygon class="cls-4" points="182.3 40.4 182.3 52.2 225.3 51 225.3 40.4 182.3 40.4"/>
    <path class="cls-2" d="M182.3,52.9c-.2,0-.4,0-.5-.2-.1-.1-.2-.3-.2-.5v-11.7c0-.4.3-.8.8-.8h43c.4,0,.8.3.8.8v10.6c0,.4-.3.7-.7.7l-43,1.2s0,0,0,0ZM183,41.2v10.2l41.5-1.1v-9.1h-41.5Z"/>
  </g>
  <path class="cls-1" d="M210.2,45.4h-20.6c-.4,0-.8-.3-.8-.8s.3-.8.8-.8h20.6c.4,0,.8.3.8.8s-.3.8-.8.8Z"/>
  <path class="cls-1" d="M200,48.8h-9c-.4,0-.8-.3-.8-.8s.3-.8.8-.8h9c.4,0,.8.3.8.8s-.3.8-.8.8Z"/>
  <path class="cls-1" d="M201.5,70.2h-11.9c-.6,0-1-.4-1-1s.4-1,1-1h11.9c.6,0,1,.4,1,1s-.4,1-1,1Z"/>
  <path class="cls-1" d="M200.6,73.4h-11c-.4,0-.8-.3-.8-.8s.3-.8.8-.8h11c.4,0,.8.3.8.8s-.3.8-.8.8Z"/>
  <path class="cls-2" d="M168.9,47.6s2.6-2.2.8-4.6c-1.8-2.5-14.6-12.2-22.9-1.6-8.6,11-2.9,23.3-18.4,21.9,0,0,.2,14.7,20,8.1s20.6-23.8,20.6-23.8Z"/>
  <g>
    <path class="cls-3" d="M153.7,47.4s2.3,4.5,3.3,4.3,11.6-3.9,11.6-3.9c0,0,1.4,18.6,2.4,20.3,0,0-5.6,6.9-22.1,0,0,0,2-7.7,2.2-9.7,0,0-3.5-.5-3.2-3.2s2.7-1.9,2.7-1.9c0,0,.6,1.4,1.4,1s-1.6-5.6,1.6-6.9Z"/>
    <path class="cls-2" d="M162,72c-3.4,0-7.8-.8-13.3-3.1l-.6-.3.2-.6c0,0,1.6-6.3,2.1-9-1.5-.4-3.3-1.6-3.1-3.8.1-1,.5-1.8,1.2-2.3,1.1-.7,2.3-.3,2.5-.3h.3c0,.1.1.4.1.4,0,0,0,.1,0,.2,0-.2,0-.4,0-.5-.2-1.8-.7-4.9,2-6l.6-.2.3.6c.9,1.8,2.1,3.6,2.6,3.9,1.1-.3,7.4-2.5,11.3-3.9l.9-.3v1c.7,9,1.8,19,2.4,20l.3.5-.3.4c-.2.2-2.8,3.4-9.6,3.4ZM149.8,67.7c7.9,3.2,13,3,16,2.3,2.4-.6,3.8-1.6,4.3-2.1-.9-3.1-1.9-14.9-2.2-19.1-2.7,1-9.9,3.5-10.8,3.6-.4,0-1.4.2-3.7-4-.9.8-.8,2.3-.5,4,.2,1.2.3,2.1-.4,2.5-.4.2-.8.2-1.1.1-.5-.2-.9-.7-1.1-1.1-.3,0-.6,0-.9.2-.3.2-.5.6-.5,1.2-.2,1.9,2.4,2.3,2.5,2.3h.7c0,.1,0,.8,0,.8-.2,1.8-1.6,7.3-2.1,9.2Z"/>
  </g>
  <g>
    <path class="cls-4" d="M145.1,222.2c-3.3-.8-17.1-6.2-17.1-6.2-1.1-4.5,2.9-7.1,2.9-7.1,1.9-1.7,2.4-5.8,2.4-5.8.8,1.7,8.8,1.8,8.8,1.8l-.8,7.2s8.4,5.8,10.2,8.1c1.8,2.2-3.1,2.8-6.4,2Z"/>
    <path class="cls-2" d="M148.1,223.3c-1.1,0-2.2-.1-3.1-.3-3.3-.8-16.7-6-17.2-6.3-.2,0-.4-.3-.4-.5-1-3.9,1.6-6.8,3.1-7.9,1.4-1.2,2-4.2,2.1-5.3,0-.3.3-.6.6-.7.3,0,.7.1.8.4.4.7,4.2,1.3,8.2,1.4.2,0,.4,0,.5.3.1.2.2.4.2.6l-.7,6.8c1.7,1.2,8.3,5.9,10,8,.8,1,.6,1.8.3,2.2-.6,1-2.5,1.4-4.4,1.4ZM128.6,215.4c2.2.9,13.7,5.4,16.6,6.1,0,0,0,0,0,0,2.6.6,5.5.2,5.9-.4,0,0,0-.2-.2-.4-1.8-2.1-10-7.9-10.1-7.9-.2-.2-.3-.4-.3-.7l.7-6.4c-2.2,0-5.6-.3-7.5-1.2-.3,1.5-1,3.8-2.4,5,0,0,0,0,0,0-.1,0-3.3,2.2-2.6,5.9Z"/>
  </g>
  <g>
    <path class="cls-3" d="M142.1,215.6c-8-1-11.3-6.7-11.3-6.7,1.9-1.7,2.4-5.8,2.4-5.8.8,1.7,8.8,1.8,8.8,1.8l-.8,7.2c-2.1.9.8,3.5.8,3.5Z"/>
    <path class="cls-2" d="M142.1,216.3s0,0,0,0c-8.3-1.1-11.7-6.8-11.8-7.1-.2-.3-.1-.7.2-.9,1.4-1.2,2-4.2,2.1-5.3,0-.3.3-.6.6-.7.3,0,.7.1.8.4.4.7,4.2,1.3,8.2,1.4.2,0,.4,0,.5.3.1.2.2.4.2.6l-.8,7.2c0,.3-.2.5-.5.6-.2,0-.3.2-.3.2,0,.4.6,1.4,1.3,2,.2.2.3.6.2.9-.1.3-.4.4-.7.4ZM131.8,209c.9,1.2,3.5,4.3,8.4,5.5-.3-.5-.5-1.1-.4-1.7,0-.4.2-.8.8-1.2l.6-6c-2.2,0-5.6-.3-7.5-1.2-.3,1.3-.8,3.3-1.9,4.6Z"/>
  </g>
  <g>
    <path class="cls-4" d="M222.6,204.6c-1.8,1.3-13.6,9-16,9.2-2.4.2-4.1-5.5-3.6-7.9.4-2.4-3.2-6.2-3.2-6.2l7.5-4.7,5,5.9s10.8-3.1,13.1-2.2c2.3,1-.9,4.6-2.7,5.9Z"/>
    <path class="cls-2" d="M206.5,214.5c-.6,0-1.3-.2-2.1-1.1-1.6-1.8-2.5-5.7-2.2-7.7.3-1.5-1.7-4.2-3-5.5-.2-.2-.2-.4-.2-.6,0-.2.2-.4.3-.5l7.5-4.7c.3-.2.7-.1,1,.2l4.6,5.5c2.6-.7,10.9-2.9,13.1-2,.7.3,1.2.9,1.2,1.6.2,2-2.6,4.7-3.9,5.6h0c-.1,0-13.5,9.1-16.4,9.3,0,0-.1,0-.2,0ZM200.9,199.9c1.1,1.3,3.2,4,2.8,6.1-.3,1.6.5,5,1.8,6.4.4.4.7.6,1,.6,2-.2,12.7-7,15.7-9h0c1.5-1,3.3-3.2,3.2-4.2,0,0,0-.2-.3-.4-1.5-.6-8.5,1-12.6,2.2-.3,0-.6,0-.8-.2l-4.5-5.4-6.2,3.9ZM222.6,204.6h0,0Z"/>
  </g>
  <g>
    <path class="cls-3" d="M215.1,202.2c-6.4,4.8-12.1,3.7-12.1,3.7.4-2.4-3.2-6.2-3.2-6.2l7.5-4.7,5,5.9,2.9,1.3Z"/>
    <path class="cls-2" d="M204.6,206.7c-1.1,0-1.7-.1-1.8-.1-.4,0-.7-.5-.6-.9.3-1.5-1.7-4.2-3-5.5-.2-.2-.2-.4-.2-.6,0-.2.2-.4.3-.5l7.5-4.7c.3-.2.7-.1,1,.2l4.8,5.8,2.7,1.2c.2.1.4.3.4.6,0,.3,0,.5-.3.7-4.5,3.4-8.6,4-10.9,4ZM203.7,205.2c1.5.1,5.5,0,9.9-2.9l-1.7-.7c-.1,0-.2-.1-.3-.2l-4.5-5.4-6.2,3.9c1,1.1,2.7,3.4,2.8,5.3Z"/>
  </g>
  <g>
    <path class="cls-4" d="M129.2,202.4s13-30.2,14.8-31.7c0,0-8.4-43.8-7.4-47.8h46.9l25.9,72.4-11.7,7.1-32.5-60.3s-1.2,30.5-3.9,35.2c-2.7,4.8-16.5,29.2-16.5,29.2,0,0-11.6,2-15.7-4.2Z"/>
    <path class="cls-2" d="M140.7,207.6c-3.9,0-9.4-.8-12.1-4.8-.1-.2-.2-.5,0-.7,2.1-4.8,12.2-28.1,14.7-31.6-1.1-5.9-8.3-43.8-7.3-47.8,0-.3.4-.6.7-.6h46.9c.3,0,.6.2.7.5l25.9,72.4c.1.3,0,.7-.3.9l-11.7,7.1c-.2.1-.4.1-.6,0-.2,0-.4-.2-.5-.4l-31.2-57.9c-.4,7.6-1.6,28.8-3.8,32.8-2.6,4.7-16.4,29-16.5,29.2-.1.2-.3.3-.5.4-.2,0-1.9.3-4.3.3ZM130.1,202.3c3.5,4.7,12.5,3.8,14.3,3.6,1.6-2.9,13.9-24.5,16.3-28.9,2.1-3.8,3.4-26.5,3.8-34.9,0-.3.3-.6.6-.7.3,0,.7,0,.8.4l32.1,59.6,10.5-6.4-25.6-71.3h-45.7c-.2,4.9,4.3,30.2,7.5,46.9,0,.3,0,.5-.3.7-1.3,1.2-9.5,19.5-14.4,31.1Z"/>
  </g>
  <path class="cls-2" d="M157.9,56c-1.2,0-2.2-1.1-2.3-1.2-.3-.3-.2-.8,0-1.1.3-.3.8-.2,1.1,0,.2.3.8.8,1.3.7.3,0,.3-.3.2-.5,0-.4.2-.8.6-.9.4,0,.8.2.9.6.1.7-.1,2-1.4,2.2-.2,0-.3,0-.5,0Z"/>
  <path class="cls-2" d="M165.6,54c-1.1,0-1.9-.8-2.2-1.4-.2-.4,0-.8.3-1,.4-.2.8,0,1,.3,0,0,.5.8,1.1.6.2,0,.2-.1.3-.1,0-.1,0-.4,0-.4,0-.4.2-.8.6-.9.4,0,.8.1.9.5,0,0,.2.9-.2,1.6-.2.3-.5.7-1.2.8-.2,0-.3,0-.5,0Z"/>
  <path class="cls-2" d="M162.9,63.2c-.5,0-1-.2-1.4-.5-1.4-1-1.6-3.4-1.6-3.6,0-.4.3-.8.7-.8.4,0,.8.3.8.7,0,.5.3,2,1,2.5.1.1.4.2.8.1.4,0,.6-.3.8-.6.5-.8.2-2.2,0-2.7-.1-.4.1-.8.5-.9.4-.1.8.1.9.5,0,.2.6,2.3-.2,3.8-.4.7-1,1.1-1.8,1.3-.2,0-.4,0-.6,0Z"/>
  <g>
    <path class="cls-1" d="M212.9,104.5c1.2,2.3-2,4.6-2,4.6-.9,4.5-14.8,4.9-22.1,4.7-2.7,0-4.5-.2-4.5-.2l.5,11.6c-10,4.7-48.6.5-48.6.5-9.8-25.4,12.8-58.5,12.8-58.5,14,8.3,22,.3,22,.3,4.2,5.7,10.3,28.2,10.5,30.6.3,2.4,8.7,5.4,8.7,5.4,0,0,4.7-.3,5.7-.3s7.1-7.2,8.3-6.9c1.2.3-.2,3.3-1.3,4-1.1.7-1.4,2.8-1.4,2.8l11.5-1.7c1.2,1.3-.3,3.1-.3,3.1Z"/>
    <path class="cls-2" d="M166.2,128.3c-13.7,0-29.1-1.7-30.1-1.8-.3,0-.5-.2-.6-.5-9.8-25.5,12.6-58.8,12.9-59.2.2-.3.7-.4,1-.2,13.2,7.9,20.8.7,21.1.4.2-.2.4-.2.6-.2.2,0,.4.1.5.3,4.3,5.8,10.4,28.2,10.7,30.9.1,1.2,4.2,3.3,8,4.7.8,0,4.5-.3,5.5-.3.5-.2,2-1.7,3.1-2.8,3.2-3.1,4.5-4.3,5.5-4,.6.2.9.6,1,1.2.2,1.3-1,3.5-2.1,4.1-.4.2-.6.7-.8,1.3l10.4-1.5c.2,0,.5,0,.7.2,1.1,1.2.6,2.8,0,3.7.8,2.3-1.4,4.3-2.2,4.9-1.3,4.5-13.1,5.2-22.8,5.1-1.6,0-2.9,0-3.7-.1l.4,10.8c0,.3-.2.6-.4.7-3.7,1.7-11,2.3-19,2.3ZM136.8,125c4.3.4,37.6,3.8,47.3-.2l-.4-11.1c0-.2,0-.4.2-.6s.4-.2.6-.2c0,0,1.8.1,4.4.2,12.6.2,20.8-1.4,21.3-4.1,0-.2.1-.4.3-.5,0,0,2.6-1.9,1.7-3.6-.1-.3-.1-.6,0-.8,0,0,.8-1,.5-1.8l-11.1,1.6c-.2,0-.5,0-.6-.2-.2-.2-.2-.4-.2-.6,0-.3.4-2.5,1.7-3.4.6-.4,1.4-1.9,1.4-2.5-.8.5-2.8,2.4-4,3.5-2.5,2.5-3.4,3.3-4.1,3.3s-5.6.3-5.7.3c-.1,0-.2,0-.3,0-2.1-.8-8.8-3.4-9.2-6-.3-2.5-5.9-23.1-9.9-29.5-.9.7-2.7,1.9-5.4,2.6-3.5.9-9,1.1-16.2-3-2.9,4.5-20.9,33.9-12.5,56.8ZM195.8,102.5h0ZM204.2,97.1"/>
  </g>
  <g>
    <path class="cls-3" d="M212.9,104.5c1.2,2.3-2,4.6-2,4.6-.9,4.5-14.8,4.9-22.1,4.7,2.4-4.4,1.4-10.3,1.4-10.3,0,0,4.7-.3,5.7-.3s7.1-7.2,8.3-6.9c1.2.3.3,3.7-.8,4.3-1.1.7-1,2.4-1,2.4l10.7-1.7c1.2,1.3-.3,3.1-.3,3.1Z"/>
    <path class="cls-2" d="M191.4,114.6c-.8,0-1.7,0-2.5,0-.3,0-.5-.1-.6-.4-.1-.2-.1-.5,0-.7,2.2-4.1,1.3-9.8,1.3-9.8,0-.2,0-.4.2-.6.1-.2.3-.3.5-.3.2,0,4.5-.3,5.7-.3.5-.2,2-1.7,3.1-2.8,3.2-3.1,4.5-4.3,5.5-4,.6.2,1,.7,1.1,1.4.2,1.3-.5,3.6-1.7,4.3-.3.2-.5.5-.6.9l9.7-1.5c.2,0,.5,0,.7.2,1.1,1.2.6,2.8,0,3.7.8,2.3-1.4,4.3-2.2,4.9-.7,2.4-5,5.1-20.2,5.1ZM190,113.1c12,.1,19.7-1.5,20.2-4.1,0-.2.1-.4.3-.5,0,0,2.6-1.9,1.7-3.6-.1-.3-.1-.6,0-.8,0,0,.8-1,.5-1.8l-10.2,1.6c-.2,0-.4,0-.6-.2-.2-.1-.3-.3-.3-.6,0-.2,0-2.2,1.4-3.1.3-.2.8-1,.9-2,0-.5,0-.8,0-.9-.8.4-2.8,2.4-4,3.6-2.5,2.5-3.4,3.3-4.1,3.3s-3.5.2-4.9.2c.2,1.7.4,5.5-1,8.9Z"/>
  </g>
  <path class="cls-2" d="M202,107.8c-.4,0-.7-.3-.7-.7,0-.4.2-.8.6-.8,2.4-.3,8.9-1.4,10.6-2.4.4-.2.8-.1,1,.3s.1.8-.3,1c-2.3,1.4-10.3,2.5-11.2,2.6,0,0,0,0-.1,0Z"/>
  <path class="cls-2" d="M202,111c-.4,0-.7-.3-.8-.7,0-.4.3-.8.7-.8,0,0,6.2,0,9.4-1.7.4-.2.8,0,1,.3.2.4,0,.8-.3,1-3.5,1.8-9.8,1.9-10,1.9h0Z"/>
  <path class="cls-2" d="M158.8,75.7c-5,0-11.4-3.2-11.7-3.4-.4-.2-.5-.6-.3-1,.2-.4.6-.5,1-.3,0,0,9.3,4.7,13.6,2.7,1-.4,1.6-1.2,1.9-2.3.1-.4.5-.6.9-.5.4.1.6.5.5.9-.4,1.5-1.4,2.6-2.8,3.3-.9.4-2,.6-3.2.6Z"/>
  <path class="cls-2" d="M168,74.8c0,0-.1,0-.2,0-1.4,0-2.7-1-3.7-2.8-.2-.4,0-.8.3-1,.4-.2.8,0,1,.3.7,1.3,1.6,2,2.5,2,1.6,0,3.2-1.7,3.7-2.3.2-.3.7-.4,1-.2.3.2.4.7.2,1,0,.1-2.2,3-4.8,3Z"/>
  <path class="cls-2" d="M184.4,114.4s0,0,0,0c-15.2-1.5-24.9-7.2-30.4-11.8-6-5-8.4-9.5-8.4-9.7-.2-.4,0-.8.3-1,.4-.2.8,0,1,.3,0,.2,9.5,18,37.7,20.7.4,0,.7.4.7.8,0,.4-.4.7-.7.7Z"/>
  <path class="cls-2" d="M183.5,101.1c0,0-.2,0-.3,0-10-4-17-14.5-17.3-14.9-.2-.3-.1-.8.2-1,.3-.2.8-.1,1,.2,0,.1,7.1,10.5,16.6,14.3.4.2.6.6.4,1-.1.3-.4.5-.7.5Z"/>
  <path class="cls-2" d="M173.8,26.9c-.2,0-.3,0-.5-.2l-4.1-3.5c-.3-.3-.4-.7,0-1.1.3-.3.7-.4,1.1,0l4.1,3.5c.3.3.4.7,0,1.1-.1.2-.4.3-.6.3Z"/>
  <path class="cls-2" d="M172.8,32.3s0,0,0,0l-7.7-.8c-.4,0-.7-.4-.7-.8,0-.4.4-.7.8-.7l7.7.8c.4,0,.7.4.7.8,0,.4-.4.7-.7.7Z"/>
  <path class="cls-2" d="M157.1,176.5c-2.1,0-3.5-2.7-3.7-3.1-.2-.4,0-.8.3-1,.4-.2.8,0,1,.3.4.8,1.5,2.4,2.5,2.2,1.3-.2,1.9-1.3,1.9-1.4.2-.4.6-.5,1-.4.4.2.5.6.4,1,0,0-.9,2-3.1,2.2,0,0-.2,0-.3,0Z"/>
  <path class="cls-2" d="M194.4,168.6c-1.6,0-3.1-.9-3.1-1-.4-.2-.5-.7-.2-1,.2-.4.7-.5,1-.2.5.3,1.9,1,3,.6,1-.3,1-2.1,1-2.1,0-.4.3-.8.7-.8.4,0,.8.3.8.7,0,1.1-.3,3.1-2,3.7-.4.1-.7.2-1.1.2Z"/>
</svg>