<?xml version="1.0" encoding="UTF-8"?>
<svg id="Layer_1" data-name="Layer 1" xmlns="http://www.w3.org/2000/svg" version="1.1" viewBox="0 0 346 233.7">
  <defs>
    <style>
      .cls-1 {
        fill: #000;
      }

      .cls-1, .cls-2, .cls-3 {
        stroke-width: 0px;
      }

      .cls-2 {
        fill: #fec92d;
      }

      .cls-3 {
        fill: #fff;
      }
    </style>
  </defs>
  <g>
    <path class="cls-3" d="M150.4,106.9s-27,1-53.7,30.3c-26.7,29.3-24.8,54.9-13.5,58.5,11.3,3.6,28.2,2.8,35.7,2.8s19.2.4,25.7-2.3c0,0,23.2-.2,25.5.2,0,0,1.1,2.3,3,2.1s2.4-2.1,2.4-2.1l25.5-.5s1.4,1.5,5.9,1.5,40.1,1.3,42.5,1.2,26.6-2.3,20.4-22.8c-6.2-20.5-35.6-65.5-73.2-68-37.6-2.5-46.1-.9-46.1-.9Z"/>
    <path class="cls-1" d="M172.9,199.3c-1.7,0-2.8-1.5-3.3-2.2-3-.3-18.6-.2-24.9-.2-6,2.4-16.1,2.4-23.5,2.3-.8,0-1.6,0-2.4,0s-2.1,0-3.4,0c-8.4,0-22.6.3-32.5-2.9-3.6-1.2-6.3-4.4-7.6-9-2.8-10.4,1.2-29.2,20.8-50.6,13.9-15.3,27.9-22.7,37.2-26.3,9.7-3.8,16.3-4.2,17-4.2.8-.1,10.1-1.5,46.3.9,21,1.4,38.2,15.7,48.9,27.5,13,14.3,21.9,30.9,25,41,1.8,5.9,1.3,10.9-1.5,14.9-5.8,8.2-19.4,8.9-19.6,8.9-1.3,0-11.5-.3-22.3-.6-9.3-.3-18.1-.6-20.2-.6-3.8,0-5.5-1-6.2-1.5l-24.7.5c-.4.8-1.2,2-2.9,2.1,0,0-.1,0-.2,0ZM156.3,195.4c6.2,0,12.7,0,13.9.3.2,0,.4.2.5.4,0,0,.9,1.8,2.2,1.7,1.3,0,1.8-1.6,1.8-1.6,0-.3.4-.5.7-.5l25.5-.5c.2,0,.4,0,.6.2,0,0,1.3,1.3,5.3,1.3s10.9.3,20.2.6c10.3.3,21,.7,22.2.6.1,0,13.1-.7,18.4-8.2,2.5-3.6,2.9-8.1,1.3-13.6-3-9.9-11.8-26.3-24.7-40.5-10.5-11.6-27.3-25.6-47.9-27-37-2.4-45.9-.9-45.9-.9,0,0,0,0-.1,0,0,0-6.8.3-16.7,4.1-9.1,3.5-22.8,10.9-36.5,25.9-12,13.2-24.5,33.9-20.4,49.2,1.1,4.2,3.5,7,6.6,8,9.7,3.1,23.7,2.9,32.1,2.8,1.3,0,2.4,0,3.4,0s1.5,0,2.4,0c7.3,0,17.3,0,23.1-2.3,0,0,.2,0,.3,0,.5,0,5.9,0,11.7,0ZM150.4,106.9h0,0Z"/>
  </g>
  <g>
    <path class="cls-2" d="M219.5,131.1l-.8,64.9-42.6.8h-.2s-.3,1.2-2.9,1.4c-1.4.1-2.2-.2-2.7-.6-.3-.3-.5-.6-.5-.6-3.7-1.2-44.3,0-44.3,0v-65.9h93.9Z"/>
    <path class="cls-1" d="M172.4,198.9c-1.3,0-2.1-.4-2.6-.8-.2-.2-.4-.4-.5-.5-4.1-.9-32.8-.2-43.8.1h-.8s0-67.4,0-67.4h95.4l-.9,66.4-43.1.8c-.4.5-1.3,1.2-3.3,1.4-.2,0-.4,0-.6,0ZM170.5,196.7s0,.1.2.3c.3.3.9.5,2.1.4,1.9-.2,2.3-.9,2.3-.9v-.6c.1,0,.9,0,.9,0l41.9-.8.8-63.4h-92.4v64.4c5.8-.2,40.2-1.1,43.7,0h.3c0,.1.1.4.1.4,0,0,0,0,0,0Z"/>
  </g>
  <g>
    <path class="cls-3" d="M176,131.1v65.7h-.2s-.2,1.8-2.9,1.8-2.3-.7-2.7-1v-66.5h5.7Z"/>
    <path class="cls-1" d="M173,199.3h0c-1.8,0-2.8-.8-3.2-1.2-.2-.1-.3-.4-.3-.6v-66.5c0-.4.3-.8.8-.8h5.7c.4,0,.8.3.8.8v65.7c0,.2-.1.4-.3.6-.3.9-1.3,2-3.5,2ZM171.1,197.2c.4.3,1,.6,2,.6h0c1.9,0,2.1-1.1,2.1-1.2,0-.1,0-.2.1-.3v-64.5h-4.2v65.4Z"/>
  </g>
  <g>
    <path class="cls-3" d="M108.4,174.7s6,1,17.2-5.4v6.7s18.9-2,22.8,1.7c3.9,3.8-18.8,4.7-18.8,4.7,0,0,16.7-1,19.8,2.8,3.1,3.8-20.2,5.5-20.2,5.5,0,0,16-1.4,16.6,2.9s-11.5,4.3-14.4,4.6-23.1,0-23.1,0c0,0-6.3-11.1,0-23.4Z"/>
    <path class="cls-1" d="M124.1,199c-6.7,0-15.2-.1-15.8-.1-.3,0-.5-.1-.6-.4-.3-.5-6.4-11.6,0-24.1.1-.3.5-.5.8-.4,0,0,5.9.9,16.7-5.3.2-.1.5-.1.8,0,.2.1.4.4.4.6v5.9c4-.4,18.9-1.5,22.6,2,.8.8.7,1.5.6,1.9-.2.5-1.3,1.8-7.1,2.9,3.3.4,6.4,1.3,7.6,2.8.6.8.5,1.4.3,1.8-.7,1.6-4.9,2.8-9.4,3.6,3,.5,5.5,1.5,5.7,3.4.1.8,0,1.5-.6,2.2-1.9,2.3-7.6,2.8-12.7,3.1-.7,0-1.3,0-1.7.1-1,.1-4,.1-7.4.1ZM108.8,197.3c3,0,19.9.3,22.6,0,.4,0,1,0,1.8-.1,3.3-.2,10-.6,11.7-2.6.3-.3.4-.6.3-1-.3-2.3-8.4-2.7-14.7-2.3-.4,0-.8,0-1.2,0-.4,0-.8-.3-.8-.7,0-.4.3-.8.7-.8.3,0,.7,0,1.1,0,8.7-.7,18-2.4,18.6-3.9,0,0,0,0-.1-.2-2.1-2.6-12.3-2.8-17.6-2.6-.5,0-1.1,0-1.6,0-.4,0-.8-.3-.8-.7,0-.4.3-.8.7-.8.2,0,.8,0,1.5,0,9-.5,16.8-1.8,17-3,0,0,0-.1-.2-.3-3-2.9-17.1-2.1-22.2-1.5-.2,0-.4,0-.6-.2-.2-.1-.2-.3-.2-.6v-5.4c-8.9,4.9-14.3,5-16,4.9-5,10.4-.9,19.9,0,21.9Z"/>
  </g>
  <g>
    <path class="cls-3" d="M236.5,174.6s-13.5-1.7-17.6-6.3v7.4s-21.7-3.2-22.1,3.2c-.3,3.4,18.9,3.5,18.9,3.5,0,0-19.3-.4-19.5,3.2s19.5,5.1,19.5,5.1c0,0-15.6-.8-15.8,2.4-.2,3.2,4.4,4.7,9.6,4.9s27.8,0,27.8,0c0,0,5.2-11.1-.8-23.3Z"/>
    <path class="cls-1" d="M219.1,198.8c-4.1,0-7.8,0-9.6-.1-2.6-.1-7.3-.7-9.4-3-.7-.8-1-1.7-1-2.7.1-1.7,2.7-2.5,6-2.9-5.1-.9-9.8-2.4-9.7-4.6.1-1.8,3.1-2.8,6.9-3.3-2.7-.4-4.9-1.1-5.8-2-.5-.5-.5-1-.5-1.4,0-1,.5-1.8,1.4-2.5,4.1-3.4,17.2-1.9,20.7-1.5v-6.5c0-.3.2-.6.5-.7.3-.1.6,0,.8.2,3.8,4.3,17,6,17.1,6.1.3,0,.5.2.6.4,6.1,12.4,1,23.5.8,24-.1.3-.4.4-.7.4-.6,0-10.2.1-18.2.1ZM211.7,191.3c-6.1,0-11,.7-11.1,1.8,0,.6.1,1.1.6,1.6,1.2,1.4,4.3,2.3,8.4,2.5,4.7.2,23.9,0,27.2,0,.8-2.1,4.1-11.6-.8-21.9-2.1-.3-11.6-1.8-16.3-5.3v5.7c0,.2,0,.4-.3.6s-.4.2-.6.2c-4.5-.7-16.9-1.8-20.4,1-.5.4-.8.9-.8,1.5,0,0,0,.1.1.2,1.4,1.6,10,2.3,16.2,2.4.7,0,1.3,0,1.9,0,.4,0,.7.3.7.8s-.3.7-.8.7h0c-.3,0-.8,0-1.6,0-9.2,0-17,1-17.1,2.5,0,1.5,8.7,3.5,18.8,4.3.4,0,.7.4.7.8,0,.4-.4.8-.8.7-1.4,0-2.7-.1-4-.1Z"/>
  </g>
  <path class="cls-1" d="M108.4,175.4s0,0-.1,0c-1.3-.2-2.2-.8-2.8-1.7-1.2-2-.2-5.1-.1-5.2.1-.4.6-.6,1-.5.4.1.6.6.5,1-.2.7-.7,2.7,0,3.9.3.6.9.9,1.7,1,.4,0,.7.4.6.8,0,.4-.4.6-.7.6Z"/>
  <path class="cls-1" d="M236.5,175.3c-.4,0-.7-.3-.7-.7,0-.4.3-.8.7-.8.9,0,1.4-.3,1.8-.8.7-1.1.2-3.2,0-3.9-.1-.4,0-.8.4-1,.4-.1.8,0,1,.4,0,.1,1.2,3.2,0,5.2-.6.9-1.6,1.4-2.9,1.5,0,0,0,0,0,0Z"/>
  <g>
    <path class="cls-3" d="M215.7,128.5v-7.3s-36.1,1.6-38.9,9.8l38.9-1.7v-.7Z"/>
    <path class="cls-1" d="M176.8,131.8c-.2,0-.5-.1-.6-.3-.1-.2-.2-.5-.1-.7,2.9-8.4,35.9-10.1,39.6-10.3.2,0,.4,0,.6.2.1.1.2.3.2.5v8c0,.4-.3.7-.7.7l-38.9,1.8s0,0,0,0ZM215,122c-9.8.5-32.5,2.8-36.9,8.2l36.9-1.7v-6.5ZM215.7,129.3h0,0Z"/>
  </g>
  <g>
    <path class="cls-3" d="M128.9,128.2v-7.3s38.7,2,41.5,10.2h-41.5v-2.9Z"/>
    <path class="cls-1" d="M170.3,131.8h-41.5c-.4,0-.8-.3-.8-.8v-10.2c0-.2,0-.4.2-.5.1-.1.4-.2.6-.2,4,.2,39.2,2.3,42.1,10.7,0,.2,0,.5,0,.7-.1.2-.4.3-.6.3ZM129.6,130.3h39.4c-4.5-5.4-28.9-8-39.4-8.6v8.6Z"/>
  </g>
  <g>
    <path class="cls-3" d="M217.8,131.1v-4.8s-34.3-2-40.3,4.8h40.3Z"/>
    <path class="cls-1" d="M217.8,131.8h-40.3c-.3,0-.6-.2-.7-.4-.1-.3,0-.6.1-.8,6.2-7,39.5-5.1,40.9-5,.4,0,.7.4.7.7v4.8c0,.4-.3.8-.8.8ZM179.7,130.3h37.3v-3.3c-2.2-.1-9.5-.4-17.1-.1-11.8.4-17.5,1.9-20.2,3.4Z"/>
  </g>
  <g>
    <path class="cls-3" d="M126.8,131.1v-5.1s34.6-1.6,40.6,5.1h-40.6Z"/>
    <path class="cls-1" d="M167.4,131.8h-40.6c-.4,0-.8-.3-.8-.8v-5.1c0-.4.3-.7.7-.7,1.4,0,35.1-1.6,41.2,5.4.2.2.2.5.1.8-.1.3-.4.4-.7.4ZM127.5,130.3h37.7c-2.7-1.5-8.5-3.1-20.4-3.6-7.7-.4-15-.1-17.3,0v3.7Z"/>
  </g>
  <g>
    <circle class="cls-3" cx="197.6" cy="153.5" r="16.3"/>
    <path class="cls-1" d="M197.6,170.5c-9.4,0-17-7.6-17-17s7.6-17,17-17,17,7.6,17,17-7.6,17-17,17ZM197.6,138c-8.5,0-15.5,7-15.5,15.5s7,15.5,15.5,15.5,15.5-7,15.5-15.5-7-15.5-15.5-15.5Z"/>
  </g>
  <path class="cls-1" d="M207.8,164.8c-.3,0-.6-.2-.7-.6-1.9-7.4-5-19.1-6.1-22-.3.5-.8,1.5-1.4,3.2-.3.8-1,1.3-1.9,1.3h0c-1.3,0-3,0-3.5,0-.8,0-1.2-.9-1.9-2.2-.3-.7-.8-1.6-1.2-2.1-.9,2.6-2.3,12.6-3.3,21.8,0,.4-.4.7-.8.7-.4,0-.7-.4-.7-.8,2.5-22.6,3.9-23.2,4.3-23.5.3-.1.6-.1.9,0,.9.6,1.6,2,2.2,3.2.3.5.6,1.2.8,1.4.5,0,1.6,0,3.2,0h0c.2,0,.4-.1.4-.3,1.5-4.2,2.2-4.4,2.6-4.5.3,0,.6,0,.9.1.3.2,1.1.8,6.9,23.3.1.4-.1.8-.5.9,0,0-.1,0-.2,0ZM200.6,141.6h0Z"/>
  <path class="cls-1" d="M190.6,150.6c0,0-.1,0-.2,0l-5.3-2c-.3,0-.4-.4-.3-.6s.4-.4.6-.3l5.3,2c.3,0,.4.4.3.6,0,.2-.3.3-.5.3Z"/>
  <path class="cls-1" d="M184.4,156.4c-.2,0-.3,0-.4-.2-.2-.2-.1-.5.1-.7,1.2-.9,5.1-3.7,6.6-3.4.3,0,.4.3.4.6,0,.3-.3.4-.6.4-.7-.2-3.6,1.6-5.8,3.2,0,0-.2,0-.3,0Z"/>
  <path class="cls-1" d="M190.3,151.9h0l-6-.2c-.3,0-.5-.2-.5-.5,0-.3.3-.5.5-.5l6,.2c.3,0,.5.2.5.5,0,.3-.2.5-.5.5Z"/>
  <path class="cls-1" d="M201.5,150.6c-.2,0-.4-.1-.5-.3,0-.3,0-.5.3-.6l5.3-2c.3,0,.5,0,.6.3s0,.5-.3.6l-5.3,2c0,0-.1,0-.2,0Z"/>
  <path class="cls-1" d="M208.1,154s0,0-.1,0c-2.1-.5-5.4-1.2-6.4-1-.3,0-.5-.1-.6-.4,0-.3.1-.5.4-.6,1.4-.3,6.3.8,6.8,1,.3,0,.4.3.4.6,0,.2-.3.4-.5.4Z"/>
  <path class="cls-1" d="M201.8,151.9c-.2,0-.4-.2-.5-.4,0-.3.1-.5.4-.6l6-1.3c.3,0,.5.1.6.4,0,.3-.1.5-.4.6l-6,1.3s0,0-.1,0Z"/>
  <ellipse class="cls-1" cx="192.8" cy="149.7" rx=".8" ry="1"/>
  <ellipse class="cls-1" cx="195.6" cy="151.6" rx=".7" ry="1.9"/>
  <ellipse class="cls-1" cx="199" cy="150.1" rx=".8" ry="1"/>
  <path class="cls-1" d="M193.2,166.3c-.3,0-.6,0-1-.4-1.3-1.1-1.8-4.6-1.7-5.8,0,0,0-.1,0-.2-.1,0-.3,0-.4.1-.4.2-.8,0-1-.3-.2-.4,0-.8.3-1,.2,0,1.2-.5,1.9,0,.3.2.7.6.6,1.5,0,1.5.7,4.4,1.2,4.6.5-.2,1.5-3,1.8-5.1,0-.4.3-.8.6-1,.6-.5,1.4-.3,1.6-.3.4,0,.7.5.6.9,0,.4-.5.7-.9.6h0s-.5,0-.5.1c0,.2-1,5.9-3.1,6.3,0,0-.2,0-.3,0Z"/>
  <path class="cls-1" d="M200.2,166.3c-.3,0-.6,0-1-.4-1.3-1.1-1.8-4.6-1.7-5.8,0,0,0-.1,0-.2-.1,0-.3,0-.4.1-.4.2-.8,0-1-.3-.2-.4,0-.8.3-1,.2,0,1.2-.5,1.9,0,.3.2.7.6.6,1.5,0,1.5.7,4.4,1.2,4.6.5-.2,1.4-2.9,1.8-5.5,0-.5.3-.8.7-1,.7-.4,1.6,0,1.8.1.4.2.5.6.3,1-.2.4-.6.5-1,.3-.1,0-.2,0-.3-.1-.3,2-1.2,6.2-3,6.6,0,0-.2,0-.3,0Z"/>
  <path class="cls-1" d="M153.8,159.6h-6.9c-.4,0-.8-.3-.8-.8s.3-.8.8-.8h6.9c.4,0,.8.3.8.8s-.3.8-.8.8Z"/>
  <path class="cls-1" d="M159.4,164.8h-18.3c-.4,0-.8-.3-.8-.8s.3-.8.8-.8h18.3c.4,0,.8.3.8.8s-.3.8-.8.8Z"/>
  <path class="cls-1" d="M180.6,41.8c-.2,0-.5,0-.8-.2s-.5-.1-.8-.2c-1.8-.5-3.7-.8-5.5-.9-5.4-.5-11.1.1-15.8,3.1-7,4.4-9.3,12.9-9.8,20.7s0,3.5,0,5.3c0,0-1.4,26.4-27.3,30.6,0,0,2.9,19.1,24.5,11h57.2s18.8,9.1,17.5-12.9c0,0-14.4,2-19.5-18.7-1.5-6.2,1.2-12.9.6-19.2-.6-5.7-4.2-11.9-8.7-15.3-2.6-2-5.9-3.3-9.3-3.2s-1.6.1-2.4,0Z"/>
  <g>
    <path class="cls-3" d="M151.6,72.6s11.4-7.1,12.8-10.2c0,0-1.4,5.3-.8,5.1s9.2-3,15.7-13.9c0,0,2.1,5.2,6.5,8.8,2.2,1.7,4.2,3.7,6.1,5.7,1.2,1.3,2.3,2.6,3.3,4.2,0-.8.3-1.6,1-2.1.6-.4,1.3-.6,2-.6,2.8-.3,4.2,1,4.8,3.7.5,2.4.3,5-.5,7.3-.5,1.4-1.3,2.6-2.6,3.4s-1.3.7-2.1.8-2.7.1-2.6,0c0,0-2.6,15.6,6.4,23.7,0,0-20.3,26-56.1,2.1,0,0,10.1-6,6.7-28.9,0,0-6.8,5-8.2-4.3-1.6-10.6,7-10.1,7.6-4.8Z"/>
    <path class="cls-1" d="M174.5,121.3c-8.2,0-18-2.6-29.4-10.2-.2-.1-.3-.4-.3-.6,0-.3.1-.5.4-.6,0,0,2.4-1.5,4.4-5.7,1.8-3.8,3.5-10.5,2.1-21.4-1.2.6-3.1,1.3-4.9.5-1.8-.8-3-2.7-3.4-5.9-.8-5.4,1-7.6,2.1-8.5,1.2-.9,2.8-1.1,4.2-.5,1.2.5,2.1,1.6,2.6,2.9,3.6-2.3,10.6-7.1,11.6-9.3.2-.4.6-.5.9-.4.4.1.6.5.5.9-.3,1.3-.7,2.9-.8,3.8,3.1-1.3,9.4-4.9,14.4-13.2.1-.2.4-.4.7-.4.3,0,.5.2.6.5,0,0,2.1,5.1,6.3,8.5,2.1,1.7,4.2,3.6,6.2,5.8.8.9,1.6,1.8,2.4,2.9.2-.4.5-.7.9-1,.8-.5,1.7-.7,2.4-.8,3.1-.3,4.9,1.2,5.6,4.3.5,2.6.3,5.4-.6,7.7-.6,1.7-1.6,3-2.9,3.8-.7.5-1.5.8-2.3.9,0,0-1.2.1-2.1,0-.4,3.1-1.2,15.5,6.3,22.3.3.3.3.7,0,1-.1.2-10,12.4-27.8,12.4ZM146.8,110.5c14.1,9.2,27.9,11.7,39.9,7.3,7.7-2.8,12.5-7.7,13.9-9.3-8.6-8.4-6.3-23.2-6.1-23.9,0,0,0,0,0,0,0-.4.5-.7.9-.6,0,0,.2,0,.2,0,.5,0,1.9,0,2.2,0,.6-.1,1.2-.3,1.8-.7,1.2-.8,1.9-2.1,2.3-3.1.8-2.1,1-4.6.5-6.9-.5-2.4-1.6-3.3-3.9-3.1-.8,0-1.3.2-1.6.5-.4.3-.7.8-.7,1.6,0,.3-.3.6-.6.7-.3,0-.6,0-.8-.3-1-1.6-2.1-2.9-3.2-4-2-2.1-4-4-6.1-5.7-3.2-2.6-5.2-6-6.2-7.8-5.6,8.6-12.5,11.9-15.2,13h-.1c-.3.2-.6.1-.9,0-.3-.2-.5-.5,0-2.8-3.5,3.3-10,7.4-10.9,8-.2.1-.5.2-.7,0-.2-.1-.4-.3-.4-.6-.1-1.3-.8-2.3-1.9-2.8-.9-.4-1.9-.3-2.7.3-1.5,1.1-2,3.7-1.5,7.1.4,2.6,1.2,4.2,2.5,4.8,1.9.8,4.4-1,4.5-1,.2-.2.5-.2.7,0,.2.1.4.3.5.6,2.9,19.3-3.6,26.9-6.1,29ZM196,84.8h0s0,0,0,0c0,0,0,0,0,0,0,0,0,0,0,0Z"/>
  </g>
  <path class="cls-1" d="M163,77.7c-.4,0-.7,0-1-.1-1.9-.5-2.7-2-2.7-2.1-.2-.4,0-.8.3-1,.4-.2.8,0,1,.3,0,0,.6,1.1,1.8,1.3,1.1.3,2.4-.2,3.9-1.2.3-.2.8-.2,1,.2.2.3.2.8-.2,1-1.5,1.1-2.9,1.6-4.1,1.6Z"/>
  <path class="cls-1" d="M182.3,77.7c-.4,0-.7,0-1-.1-1.9-.5-2.7-2-2.7-2.1-.2-.4,0-.8.3-1,.4-.2.8,0,1,.3,0,0,.6,1.1,1.8,1.3,1.1.3,2.4-.2,3.9-1.2.3-.2.8-.2,1,.2.2.3.2.8-.2,1-1.5,1.1-2.9,1.6-4.1,1.6Z"/>
  <path class="cls-1" d="M149.4,79s0,0,0,0c-.9-.1-2.6-.9-2.6-2.9s1.5-2.8,2.2-2.9c.4,0,.8.2.9.6,0,.4-.2.8-.6.9-.2,0-1,.3-1,1.5s1.1,1.4,1.3,1.5c.4,0,.7.4.6.8,0,.4-.4.6-.7.6Z"/>
  <path class="cls-1" d="M197.7,79.9c-.4,0-.7-.3-.7-.6,0-.4.2-.8.6-.9.2,0,1-.3,1-1.5s-1.1-1.4-1.3-1.5c-.4,0-.7-.4-.6-.8,0-.4.4-.7.8-.6.9.1,2.6.9,2.6,2.9s-1.5,2.8-2.2,2.9c0,0,0,0-.1,0Z"/>
  <path class="cls-1" d="M173,93h0c-2.4,0-4.1-.7-5.2-2-1.5-2-.9-4.6-.9-4.7,0-.4.5-.6.9-.6.4,0,.6.5.6.9,0,0-.5,2,.6,3.4.7.9,2.1,1.4,4,1.4,1.6,0,2.8-.4,3.5-1.3,1.2-1.5.8-3.9.8-3.9,0-.4.2-.8.6-.9.4,0,.8.2.9.6,0,.1.6,3.1-1.1,5.1-1,1.2-2.6,1.8-4.6,1.8Z"/>
</svg>