<?xml version="1.0" encoding="UTF-8"?>
<svg id="Layer_1" data-name="Layer 1" xmlns="http://www.w3.org/2000/svg" version="1.1" viewBox="0 0 346 233.7">
  <defs>
    <style>
      .cls-1 {
        fill: #000;
      }

      .cls-1, .cls-2 {
        stroke-width: 0px;
      }

      .cls-2 {
        fill: #fff;
      }
    </style>
  </defs>
  <g>
    <path class="cls-2" d="M152.4,107.9s-47.2,17.8-38.2,69.2c8.6,33.8,40.8,34.3,40.8,34.3l87.6-21.1s35.6-41.9-8.6-75.1c0,0-19.3-13.2-35.4-14.1l-46.3,6.8Z"/>
    <path class="cls-1" d="M155.1,212.1h0c-.3,0-33-.8-41.6-34.8-4.7-26.9,6.1-44.5,15.9-54.6,10.7-10.9,22.6-15.4,22.8-15.5,0,0,.1,0,.2,0l46.3-6.8s.1,0,.2,0c16.1.9,34.9,13.6,35.7,14.2,13.2,9.9,20.7,21.7,22.2,34.8,2.5,22.3-13.3,41.2-13.5,41.4-.1.1-.2.2-.4.2l-87.6,21.1c0,0-.1,0-.2,0ZM152.6,108.7c-1,.4-12.2,4.9-22.2,15.2-9.6,9.8-20.1,27-15.5,53.2,8.1,32,38.2,33.6,40,33.6l87.3-21c1.6-2,15.3-19.6,13-40.1-1.4-12.7-8.7-24.1-21.6-33.8-.2-.1-19.3-13-34.9-13.9l-46.2,6.8Z"/>
  </g>
  <path class="cls-1" d="M161.9,195c0,0-.2,0-.2,0-26.6-9.3-20.5-38.6-20.5-38.9,0-.4.5-.7.9-.6.4,0,.7.5.6.9,0,0-1.5,7.2.2,15.3,2.2,10.8,8.7,18.1,19.3,21.8.4.1.6.6.5,1-.1.3-.4.5-.7.5Z"/>
  <path class="cls-1" d="M227.8,179.4c-.2,0-.4,0-.5-.2-.3-.3-.3-.8,0-1.1,0,0,7.9-7.7,6.1-24.3,0-.4.3-.8.7-.8.4,0,.8.3.8.7,1.9,17.4-6.3,25.3-6.6,25.6-.1.1-.3.2-.5.2Z"/>
  <path class="cls-1" d="M148.8,82.5s-21-16.5-5.3-35.4c0,0-9.4,2.6-11.8-6.4-2.3-9,10.2-15.3,15.6-16s16.7,1.1,12,13.8c0,0,24.5-5.3,24.6,26.1l-35.2,18Z"/>
  <g>
    <path class="cls-2" d="M237.1,139.7c-3.2-21.5-.8-25.3-7.2-25.3s-64.5,2.4-67.4,1.7-10.2-4.9-9.5-12.9,1.3-19.3-.8-18.4c0,0-28.3,10.9-22.4,32.2s35.2,27.9,35.2,27.9c0,0-.9,49.9-4.7,57.3"/>
    <path class="cls-1" d="M161,202.6l-1.3-.7c3.5-6.7,4.5-50.7,4.6-56.4-4.2-1.1-29.7-8.5-35.1-28.3-6-21.8,22.6-33,22.9-33.1.4-.2.8-.1,1.2.1,1.5,1.1,1.7,7.5.6,19-.7,8,6.9,11.6,8.9,12.1,1.9.5,29.2-.5,47.3-1.1,10-.3,17.8-.6,20-.6,5.1,0,5.4,2.6,6.2,11.1.3,3.6.8,8.5,1.7,14.9l-1.5.2c-1-6.5-1.4-11.4-1.8-15-.8-8.8-1-9.7-4.7-9.7s-10,.3-19.9.6c-25,.9-45.8,1.5-47.7,1-3.6-.9-10.8-5.5-10.1-13.7,1-10.7.8-16.5.1-17.6-2.2.9-27.2,11.6-21.8,31.3,5.7,20.7,34.3,27.3,34.6,27.4.3,0,.6.4.6.7,0,2-.9,50.2-4.8,57.6ZM152.5,85.5s0,0,0,0c0,0,0,0,0,0Z"/>
  </g>
  <g>
    <path class="cls-2" d="M161.9,194.2s14.4,2.1,20,1.3,15.6-2.1,16.5.2-3.7,3.6-3.7,3.6c0,0,4.7-.7,5.8.2s1.1,2.6-4.4,4.9c0,0,4-.2,4.6.9s-1,5.6-16.5,6.7-29.2-.5-29.2-.5c0,0,5.3-7.6,6.8-17.1Z"/>
    <path class="cls-1" d="M173.2,213c-10.4,0-18.2-.9-18.3-.9-.3,0-.5-.2-.6-.4s0-.5,0-.7c0,0,5.2-7.6,6.7-16.8,0-.4.4-.7.8-.6.1,0,14.4,2,19.8,1.3,9.7-1.4,16.3-1.8,17.3.6.3.6.3,1.3,0,1.9-.2.3-.4.6-.7.9,1.1,0,2.1.2,2.6.6.7.5,1,1.2.9,1.9-.1,1-1,2-2.7,2.9,1,.2,1.9.5,2.2,1.1.3.6.2,1.3-.2,2.1-1,1.8-4.4,4.8-16.9,5.7-3.9.3-7.6.4-11.1.4ZM156.3,210.8c3.7.4,15.3,1.3,27.9.4,12.1-.8,15-3.9,15.6-4.8.3-.5.3-.8.3-.8-.3-.3-2.1-.6-3.9-.5-.4,0-.7-.2-.8-.6s.1-.7.4-.9c4-1.6,4.5-2.8,4.5-3.1,0,0,0-.3-.3-.6-.5-.4-3.2-.4-5.3,0-.4,0-.8-.2-.8-.6,0-.4.2-.8.5-.9,1-.3,2.8-1,3.2-1.9.1-.2.1-.4,0-.7-.4-.9-3.4-1.5-15.8.3-5,.7-16.5-.7-19.5-1.2-1.3,7.3-4.7,13.3-6.1,15.7Z"/>
  </g>
  <g>
    <path class="cls-2" d="M228.6,177.9s-2.9,2.6-6.7,5.5-7.1,5.2-10.3,6.7c-6.4,3-14.5,4.2-8,7.5,0,0-2.7,1.3-2,3.9.6,2.7,5.9.7,5.9.7,0,0-4,1.7-3.3,3.8s29.6-3.4,38.5-16c0,0-11.5-5.7-14-12.2Z"/>
    <path class="cls-1" d="M205.8,207.2c-.4,0-.8,0-1.1,0-.3,0-1.2-.2-1.4-.9-.3-1,0-1.9.7-2.6-.7,0-1.4,0-2-.4-.6-.3-1-.9-1.2-1.6-.4-1.8.4-3.2,1.3-4-1-.6-1.8-1.4-1.7-2.4,0-1.7,2.7-2.7,6.2-4,1.5-.6,3.1-1.2,4.6-1.9,2.7-1.2,6.1-3.4,10.1-6.6,3.7-2.9,6.6-5.5,6.7-5.5.2-.2.4-.2.7-.2.2,0,.4.2.5.5,2.4,6.1,13.5,11.7,13.6,11.8.2,0,.3.3.4.5,0,.2,0,.4-.1.6-7.7,11-30.5,16.7-37.4,16.7ZM204.8,205.7c2.7.9,27.7-3.8,36.7-15.3-2.5-1.4-10.4-5.9-13.1-11.2-1.1,1-3.3,2.9-6,4.9-4.2,3.2-7.7,5.5-10.4,6.8-1.6.7-3.2,1.4-4.7,1.9-2.2.8-5.2,1.9-5.2,2.7,0,0,0,.5,2,1.5.3.1.4.4.4.7s-.2.5-.4.7c0,0-2.1,1-1.6,3.1,0,.3.2.5.5.6,1.1.6,3.6-.1,4.4-.4.4-.1.8,0,1,.4.2.4,0,.8-.4,1-1.1.5-3.1,1.7-3,2.7Z"/>
  </g>
  <path class="cls-1" d="M186.3,201.7c-.3,0-.7-.2-.7-.6,0-.4.2-.8.6-.9l9.8-2c.4,0,.8.2.9.6,0,.4-.2.8-.6.9l-9.8,2s-.1,0-.2,0Z"/>
  <path class="cls-1" d="M186.1,207.1c-.3,0-.7-.2-.7-.6,0-.4.2-.8.6-.9l11.3-2.4c.4,0,.8.2.9.6,0,.4-.2.8-.6.9l-11.3,2.4c0,0-.1,0-.2,0Z"/>
  <path class="cls-1" d="M203.6,198.4c-.3,0-.6-.2-.7-.5-.1-.4,0-.8.4-1l12.4-4.7c.4-.1.8,0,1,.4s0,.8-.4,1l-12.4,4.7c0,0-.2,0-.3,0Z"/>
  <path class="cls-1" d="M207.4,203c-.3,0-.6-.2-.7-.5-.1-.4,0-.8.4-1l11.9-4.6c.4-.2.8,0,1,.4s0,.8-.4,1l-11.9,4.6c0,0-.2,0-.3,0Z"/>
  <g>
    <path class="cls-2" d="M158.9,52.5s0,5.9-6.3,12.1c-6.3,6.2-3.7,13.5-3.7,13.5,0,0-6.3-4.1-7.8,2.7s5.6,7.7,8.9,6.6c0,0,1.3,15.8-.1,22.3,0,0,16.1,22.8,41,0l-5.7-38.4s7.5-1.3,4.5-9.7c-1-3.2-4.9-3.9-7-2.4,0,0,1,4.1-.2,2.8s-2.4-4.1-4.7-3.6-14.7,1-18.8-5.9Z"/>
    <path class="cls-1" d="M169.2,120.5c-.8,0-1.6,0-2.4-.1-11-1.2-17.3-10-17.6-10.3-.1-.2-.2-.4-.1-.6,1.2-5.4.4-17.7.2-21.1-2.4.5-5.5,0-7.4-1.6-1.1-1-2.3-2.9-1.6-6.1.5-2.1,1.5-3.5,3-4.1,1.6-.6,3.3-.2,4.5.3-.4-2.6-.6-7.9,4.3-12.7,6-5.9,6.1-11.5,6.1-11.5,0-.3.2-.6.6-.7.3,0,.7,0,.8.3,3.7,6.3,15.4,6.1,18,5.5,2.1-.5,3.5,1.2,4.5,2.6,0-.3-.1-.6-.2-.9,0-.3,0-.6.3-.8,1.3-.9,3.1-1.2,4.8-.6,1.6.5,2.8,1.8,3.3,3.4,1,2.9,1,5.4-.1,7.3-1.2,2-3.2,2.9-4.2,3.2l5.6,37.7c0,.2,0,.5-.2.7-7.5,6.9-14.9,10.3-22.1,10.3ZM150.7,109.4c1.1,1.4,7.1,8.5,16.3,9.5,7.4.8,15.2-2.4,23-9.6l-5.6-38c0-.4.2-.8.6-.8,0,0,2.7-.5,3.9-2.7.9-1.5.9-3.6,0-6.1-.5-1.6-1.7-2.2-2.4-2.4-1-.3-2.2-.3-3,.2.6,2.9,0,3.1-.3,3.3-.3.2-.8.2-1.3-.4-.3-.3-.5-.7-.8-1.1-1.1-1.5-1.9-2.5-3.1-2.3-2.7.6-13.5.8-18.5-4.7-.5,2.3-2,6.4-6.3,10.7-5.9,5.8-3.6,12.5-3.5,12.8.1.3,0,.6-.2.8-.2.2-.6.2-.9,0,0,0-2.7-1.7-4.6-.9-1,.4-1.7,1.4-2.1,3.1-.5,2,0,3.6,1.1,4.7,1.7,1.5,4.9,1.7,6.9,1.1.2,0,.5,0,.7,0,.2.1.3.3.3.6,0,.6,1.3,15.5,0,22.1Z"/>
  </g>
  <path class="cls-1" d="M158.8,75.9c-1.6,0-2.7-.6-2.8-.7-.4-.2-.5-.7-.3-1,.2-.4.7-.5,1-.3,0,0,2,1.1,4,0,1.7-.9,1-2.4.9-2.6-.2-.4,0-.8.3-1,.4-.2.8,0,1,.3.5,1,.8,3.3-1.6,4.6-.9.5-1.8.7-2.6.7Z"/>
  <path class="cls-1" d="M172.2,70.4c-1.6,0-2.7-.6-2.8-.7-.4-.2-.5-.7-.3-1,.2-.4.7-.5,1-.3,0,0,2,1.1,4,0,1.6-.9,1.1-2.3.9-2.6-.2-.4,0-.8.4-1,.4-.2.8,0,1,.3.5,1,.8,3.3-1.6,4.6-.9.5-1.8.7-2.6.7Z"/>
  <path class="cls-1" d="M170.5,84.2c-.3,0-.7,0-1-.2-2-.6-3.3-2.9-3.3-3-.2-.4,0-.8.3-1,.4-.2.8,0,1,.3,0,.1,1.8,3.3,4.1,2.1,2.3-1.2,1.2-4.2,1.2-4.3-.2-.4,0-.8.4-1,.4-.2.8,0,1,.4.6,1.5,1,4.7-1.9,6.2-.6.3-1.1.5-1.7.5Z"/>
  <path class="cls-1" d="M205.7,62.1c-27.4,4.1-18.1,34.5-20.2,37.6s-14.7,7-12,16.1,7,12.9-4.1,20.4c-11.1,7.5,15.2,26.8,42.9,24.9,27.7-1.8,37.5-21.5,35.6-31.8s-15.6-12-14.4-19.5c1.2-7.5,3.2-11.6-2.1-15.2-5.3-3.6-4.4-13.5-4.1-16s-6.2-18.9-21.6-16.6Z"/>
</svg>