<?xml version="1.0" encoding="UTF-8"?>
<svg id="Layer_1" data-name="Layer 1" xmlns="http://www.w3.org/2000/svg" version="1.1" viewBox="0 0 346 233.7">
  <defs>
    <style>
      .cls-1 {
        fill: #ffca2b;
      }

      .cls-1, .cls-2, .cls-3, .cls-4 {
        stroke-width: 0px;
      }

      .cls-2 {
        fill: #fdfdfe;
      }

      .cls-3 {
        fill: #000;
      }

      .cls-4 {
        fill: #fff;
      }
    </style>
  </defs>
  <path class="cls-1" d="M117.5,67.7s-.3,6.3-5.4,6.9c0,0,5.9,2.5,5.7,7.3,0,0,1.9-6.8,5.4-7.5,0,0-5.4-.7-5.7-6.7Z"/>
  <circle class="cls-3" cx="105" cy="55.1" r="2.2"/>
  <circle class="cls-3" cx="225.1" cy="59.4" r="2.2"/>
  <circle class="cls-3" cx="241.2" cy="87.8" r="2.2"/>
  <circle class="cls-3" cx="105" cy="100.6" r="2.2"/>
  <g>
    <path class="cls-4" d="M141.6,97.2c-7.1.9-15.1,5.3-21.3,8.7-12.9,7.2-24,17.6-28.5,31.9-2.1,6.6-3.7,13.3-4.2,20.2-1.5,22.8,13.9,35.9,34.2,42.1,10,3.1,19.3,2.3,29.5.8,6.9-1,17.4-1.8,22.6-7.1,0,0,5.4,2.7,8.4,1.9,0,0-4.1.9-2.6,3.4s24.2,9.6,43.5,2.6c18.4-6.7,33.7-19.9,35.2-40.6,2.3-33.2-34.9-54.8-34.9-54.8l-44.1-13.7s-37.7,4.6-37.7,4.6Z"/>
    <path class="cls-3" d="M204.3,205.6c-13.1,0-24-3.9-25.2-6.1-.6-1-.4-1.8-.2-2.3.1-.3.3-.6.5-.8-2.2-.4-4.3-1.3-5.3-1.7-4.9,4.6-13.7,5.7-20.2,6.6-.9.1-1.7.2-2.4.3-9.7,1.4-19.3,2.4-29.8-.8-23.8-7.2-36.1-22.5-34.7-42.8.4-6,1.7-12.5,4.2-20.4,4.1-12.9,14-24.1,28.9-32.4,6-3.3,14.2-7.9,21.5-8.8h0c.2,0,37.7-4.6,37.7-4.6h.2s.2,0,.2,0l44.3,13.7c0,0,9.5,5.6,18.5,15.1,8.3,8.8,18,23,16.8,40.4-.7,10.8-6.4,30.5-35.7,41.2-6.4,2.3-13,3.2-19.2,3.2ZM182.4,196.5c-.5.1-1.9.6-2.2,1.4,0,.2-.1.4.1.9,1.3,2.3,23.5,9.2,42.6,2.2,28.5-10.4,33.9-29.5,34.7-39.9.6-9.3-1.7-23.7-16.4-39.3-8.4-8.9-17.2-14.3-18.1-14.8l-43.9-13.6c-35.2,4.3-37.4,4.5-37.5,4.5h0c-7.1.9-15.1,5.3-21,8.6-14.5,8.1-24.2,19-28.2,31.5-2.5,7.8-3.8,14.2-4.2,20-.9,13.9,4.2,32.3,33.7,41.3,10.2,3.1,19.6,2.1,29.1.8.8-.1,1.6-.2,2.5-.3,6.5-.9,15.3-2,19.7-6.5l.4-.4.5.2c1.4.7,5.5,2.4,7.8,1.9,0,0,0,0,0,0l.3,1.5s0,0,0,0Z"/>
  </g>
  <path class="cls-1" d="M188,128.7c-4.8,0-9.4,1-13.6,2.7-5.7-4.9-13.1-7.8-21.2-7.8-17.9,0-32.4,14.4-32.4,32.1s14.5,32.1,32.4,32.1,6.9-.6,10.1-1.6c6.3,6.2,15,10,24.7,10,19.2,0,34.8-15.1,34.8-33.7s-15.6-33.7-34.8-33.7Z"/>
  <path class="cls-3" d="M135.8,168.4c-.3,0-.6-.2-.7-.5,0-.2-1.6-4.4-1.8-10.1-.3-7.6,1.7-14.2,6-18.9,10.2-11.5,22.8-11.6,23.4-11.6s.7.3.8.7c0,.4-.3.8-.7.8-.1,0-12.5.2-22.2,11.1-9.7,10.9-3.9,27.4-3.9,27.6.1.4,0,.8-.5,1,0,0-.2,0-.3,0Z"/>
  <path class="cls-3" d="M206.7,161.9s0,0,0,0c-.4,0-.7-.4-.7-.8.7-20.9-19.5-27.9-19.7-28-.4-.1-.6-.6-.5-.9.1-.4.6-.6.9-.5.2,0,21.4,7.4,20.7,29.4,0,.4-.3.7-.8.7Z"/>
  <path class="cls-3" d="M191.1,148.5c-.3,0-.7-.2-.7-.6,0-.1-3.2-14.3-16-15.9-14.8-1.8-20.9,12.7-21.2,13.4-.2.4-.6.6-1,.4-.4-.2-.6-.6-.4-1,0-.2,6.8-16.2,22.7-14.3,13.8,1.7,17.3,16.9,17.3,17.1,0,.4-.2.8-.6.9,0,0-.1,0-.2,0Z"/>
  <path class="cls-3" d="M169.8,172.4c-.2,0-.5,0-.7,0-2.3-.1-4.1-1-5.2-2.5-2.2-2.8-1.4-6.8-1.3-7,0-.4.5-.7.9-.6.4,0,.7.5.6.9,0,0-.7,3.6,1.1,5.8.9,1.1,2.3,1.8,4.1,1.9,2.1.1,3.7-.4,4.8-1.4,1.8-1.7,1.7-4.4,1.7-4.4,0-.4.3-.8.7-.8.4,0,.8.3.8.7,0,.1,0,3.4-2.1,5.5-1.3,1.3-3,1.9-5.2,1.9Z"/>
  <circle class="cls-3" cx="154.1" cy="152.7" r="2.3"/>
  <circle class="cls-3" cx="187.9" cy="158.4" r="2.3"/>
  <circle class="cls-2" cx="149" cy="162.4" r="7.4"/>
  <circle class="cls-2" cx="191.7" cy="169.7" r="7.4"/>
  <path class="cls-3" d="M174.5,132.1c0,0-.1,0-.2,0-.4-.1-.6-.5-.5-.9,2.5-9.9,13.5-10.7,13.6-10.7.4,0,.8.3.8.7,0,.4-.3.8-.7.8-.4,0-10,.7-12.3,9.5,0,.3-.4.6-.7.6Z"/>
  <g>
    <path class="cls-4" d="M134.6,181.9s6.4,4.1,13.7,3c7.3-1.2,20.8-6,23.2-3s-16.5,7.7-16.5,7.7c0,0,18.2-5,18.9-1.6.7,3.4-17.5,7.5-17.5,7.5,0,0,16.2-5.7,17.5-2.4s-23.3,12.1-42.8,8.7c0,0,6.7-9.8,3.5-19.9Z"/>
    <path class="cls-3" d="M140.7,203.4c-3.3,0-6.6-.2-9.8-.8-.3,0-.5-.2-.6-.4,0-.2,0-.5,0-.7,0,0,6.4-9.6,3.4-19.3,0-.3,0-.6.3-.8.2-.2.6-.2.9,0,0,0,6.3,4,13.2,2.9,2.1-.3,4.8-1,7.6-1.7,7.4-1.8,14.3-3.5,16.3-1,.4.5.5,1,.3,1.6-.1.3-.8,1.6-4.6,3.3,2.6-.3,4.8-.2,5.9.4.6.4.8.9.9,1.2.2,1.2-1,2.4-3,3.5,1.5,0,2.6.5,3,1.4.2.4.2,1-.4,1.8-2.7,3.2-17.9,8.7-33.4,8.7ZM132.3,201.3c16.7,2.5,36-3.6,40.2-7,.7-.6.7-.8.7-.8-.3-.7-2.7-.7-6.1,0-3.7,1.3-7.9,2.4-10.6,2.9-.4,0-.8-.1-.9-.5-.1-.4,0-.8.5-.9,2-.7,6.4-2.2,10.4-2.9,4.1-1.4,6.7-2.9,6.6-3.7,0,0,0-.1-.2-.2-1.8-1.1-9.3.2-15,1.7-.9.2-1.8.5-2.7.7-.4,0-.8-.1-.9-.5-.1-.4.1-.8.5-.9.3,0,1.2-.3,2.4-.6,6.8-1.8,13.3-4.3,13.8-5.8,0,0,0,0,0-.1-1.4-1.8-9.2.1-14.8,1.5-2.8.7-5.5,1.4-7.7,1.7-5.4.9-10.3-1-12.7-2.2,1.7,7.9-1.9,15.3-3.4,17.9Z"/>
  </g>
  <g>
    <path class="cls-4" d="M179.5,197.3c-1.5,4.2,21.5,10.9,44.2,4.2,0,0-7.1-4.2-8.5-17.1,0,0-14.9,5.5-25.4,2.1-10.5-3.4-9.2,1-7.1,2.4s14.4,5,14.4,5c0,0-17.6-6.2-18.4-3.1s16.7,8.5,16.7,8.5c0,0-14.9-4.6-15.8-1.9Z"/>
    <path class="cls-3" d="M203.5,205c-11.8,0-21.4-2.8-24-5.6-1-1-.9-1.9-.7-2.4h0c.5-1.3,2.6-1.5,5.3-1.2-3.7-1.7-6.6-3.6-6.2-5.3,0-.3.3-.7.9-1,.6-.3,1.7-.4,3-.3-1-.9-1.7-2.3-1.1-3.4.9-1.7,4-1.8,9.3,0,10.1,3.3,24.7-2,24.9-2.1.2,0,.5,0,.7,0,.2.1.3.3.4.6,1.4,12.3,8.1,16.5,8.2,16.6.3.2.4.4.4.7,0,.3-.2.5-.5.6-7,2.1-14,2.9-20.4,2.9ZM180.2,197.5c-.1.3.2.7.4.9,3.3,3.5,22.2,7.9,41.4,2.7-2.1-1.8-6.3-6.5-7.5-15.8-3.4,1.1-15.7,4.8-25,1.8-6.7-2.2-7.5-.8-7.5-.7-.2.4.3,1.3,1.1,1.9.7.5,3.1,1.4,5.7,2.3,3.7,1,7.3,2.2,8.5,2.7.4.1.6.5.5.9-.1.4-.5.6-.9.5-.7-.2-4.7-1.4-8.3-2.6-4.1-1.1-7.9-1.8-9-1.2,0,0-.1,0-.1,0-.3,1.1,6.6,4.6,16.2,7.6,0,0,0,0,0,0,.4.1.6.5.5.9-.1.4-.5.6-.9.5h0s0,0,0,0c-8-2.5-14.6-3.3-14.9-2.4h0Z"/>
  </g>
  <path class="cls-3" d="M145.6,57.6s1.5,11.3-4.8,12.7-6.8,11.2-3.5,17.1c3.3,5.9,3.9,11.3-2.5,12.6,0,0,10,5.4,19.1-3.2,9.1-8.6,34.5,7.9,34.5,7.9,0,0,1.7,9.8,7.2,8.8s9.6-4.5,12.1-.6,2.5,21.8,16.3,20.4,21.4-14.2,18.9-18.7c-2.6-4.5-16.8-2.8-13.5-10.8,3.3-7.9,3.8-13.3-1.1-14.3s-15.7.2-13.1-9.9l-69.7-22Z"/>
  <g>
    <path class="cls-4" d="M168.6,70.4s-14.4,3.5-14.2,9.9.3,15-.5,16.6c0,0,4.3,14.2,16.9,14.9s20.9-8.7,21.4-20.7c0,0,5.3,4.8,8.8-.7,3.4-5.5-2.1-12.8-8-8.8l-1-5.2-23.4-6Z"/>
    <path class="cls-3" d="M172.2,112.6c-.5,0-.9,0-1.4,0-5.4-.3-10.2-3.1-13.8-8-2.7-3.7-3.8-7.3-3.8-7.4v-.3c0,0,0-.3,0-.3.3-.5.8-3.2.5-16.2-.2-6.9,14.2-10.5,14.8-10.7h.2s24.1,6.1,24.1,6.1l.9,4.7c2.9-1.5,5.4-.5,7,.9,2.2,2.1,3.2,6,1.1,9.4-1.1,1.7-2.5,2.7-4.1,3-1.8.3-3.6-.5-4.7-1.2-.6,6.1-3.1,11.4-7.1,15.1-3.7,3.3-8.3,5-13.6,5ZM154.7,96.9c.6,1.9,5.1,13.5,16.2,14.1,5.4.3,10.2-1.3,13.9-4.6,4.1-3.7,6.4-9.1,6.7-15.4v-1.6c0,0,1.2,1.1,1.2,1.1,0,0,2.3,2,4.6,1.7,1.2-.2,2.2-.9,3-2.3,1.7-2.8.9-5.9-.8-7.5-1.7-1.6-3.9-1.7-6.1-.2l-.9.7-1.1-5.9-22.8-5.8c-4,1-13.6,4.4-13.4,9.1.4,12.8-.2,15.8-.5,16.7Z"/>
  </g>
  <path class="cls-3" d="M172.4,97.9c0,0-.1,0-.2,0-3.7-.1-5.2-3.4-5.5-5.2,0-.4.2-.8.6-.9.4,0,.8.2.9.6h0c0,.2.7,3.8,4.1,3.9,3.4.1,4.3-3.3,4.3-3.4.1-.4.5-.6.9-.5.4.1.6.5.5.9-.4,1.6-2.1,4.6-5.6,4.6Z"/>
  <circle class="cls-3" cx="164.3" cy="80.7" r="2.2"/>
  <circle class="cls-3" cx="183.4" cy="83.4" r="2.2"/>
  <g>
    <path class="cls-4" d="M135.7,49l29.3-.9s45.8-39,61.7-6.1c0,0-20.8-6.8-21.6,2.9-.8,9.7-2.6,12.5-2.6,14.1s5.3,7.4,10.4,10.7c5.1,3.3,13,10.1,12,10.4s-70.5,2.6-89.2-31.1Z"/>
    <path class="cls-3" d="M220.6,81c-15.9,0-69.4-2.5-85.5-31.6l-.6-1.1,30.2-.9c1.2-1,7.6-6.2,15.8-10.8,12.4-7,22.9-9.7,31.2-7.9,6.8,1.4,12,5.8,15.6,13.1l.8,1.6-1.7-.5c-.1,0-13.6-4.4-18.7-1-1.1.7-1.7,1.8-1.8,3.2-.5,6.4-1.5,9.9-2.1,11.9-.3.9-.5,1.6-.4,2,0,1.2,5,6.8,10,10.2,2.5,1.7,12.7,9.3,12.4,11,0,.3-.3.6-.7.7,0,0-1.7,0-4.5,0ZM137,49.7c18.1,30.2,78,30,86.7,29.7-1.7-1.9-7-6.3-11.2-9.1-4.9-3.2-10.6-9.2-10.7-11.3,0-.7.2-1.4.5-2.5.6-2,1.5-5.4,2.1-11.6.2-1.9,1-3.4,2.5-4.4,4.6-3.1,14.4-.8,18.3.3-3.3-5.9-7.9-9.5-13.7-10.7-19.1-4-45.7,18.4-46,18.6l-.2.2-28.3.9Z"/>
  </g>
</svg>