<?xml version="1.0" encoding="UTF-8"?>
<svg id="Layer_1" data-name="Layer 1" xmlns="http://www.w3.org/2000/svg" version="1.1" viewBox="0 0 346 233.7">
  <defs>
    <style>
      .cls-1 {
        fill: #000;
      }

      .cls-1, .cls-2, .cls-3 {
        stroke-width: 0px;
      }

      .cls-2 {
        fill: #ffc734;
      }

      .cls-3 {
        fill: #fff;
      }
    </style>
  </defs>
  <path class="cls-1" d="M155.4,102.1s-32.7-3.5-34.2-26.8c0,0,15.4,9.1,21.4-4.9,6-14,18.2-26.5,28.7-21,0,0,9-4.1,15,3.7,6.1,7.8,1.4,22.9,1.4,22.9,0,0,4.3,13.2,18.5,10.1,0,0-1.1,9.2-21.1,15.2l-29.8.7Z"/>
  <g>
    <path class="cls-3" d="M107.9,136.6s7.9-14.9,39.8-26.9c0,0,9.6-8.6,6.2-26.2,0,0-6.3,3-6.3-5.1s4.8-4,5.6-2.6.6-.8,1-3c0,0,12.9-4.9,15.1-12.8,0,0,5.6,11.3,16.8,10.6,0,0,.7,4,.5,4.9s1-.9,1.8-1.3,4.3-1.4,5.2,2-.5,8.1-6.7,6.7c0,0-.4,21.3,8.3,28.3,0,0,17.6,13.3,34.5,3.7,10.5-6,16-16.4,14-28.4-1.2-7.2-4.6-13.8-8.8-19.7-6.2-8.9-14.7-15.1-23.1-22-.9-.7-2.1-1.8-2.5-2.8s.2-2.5,1.3-2.5c.4,0,.8.2,1.1.4,4.1,2.3,8.6,5.8,12.8,8.1-3.7-2.4-7.4-6.5-10.3-9.9-.7-.8-1.3-2-.5-2.7.5-.5,1.4-.2,2,0,4.9,2,9.2,5.4,13.5,8.6-4.3-2.9-8.2-6.3-11.6-10.1-.7-.8-1.3-2.4-.3-2.8.3-.1.6,0,.9,0,1,.2,1.9.6,2.8,1.1,2.3,1.2,4.3,2.8,6.2,4.4,11.3,9.3,22.7,19.2,29.2,32.3,4.5,9,6.4,18.9,7.5,28.8,1.1,10.1-.6,18.8-4.3,28.3-1.3,3.3-2.6,6.6-4.1,9.8l-147.9.8Z"/>
    <path class="cls-1" d="M107.9,137.4c-.3,0-.5-.1-.6-.4-.1-.2-.1-.5,0-.7.3-.6,8.4-15.3,40-27.2,1-.9,8.7-9.1,6.1-24.6-1,.3-2.8.6-4.2-.3-1.5-1-2.3-2.9-2.3-5.8s2-4,2.8-4.2c1.2-.3,2.6,0,3.5.5,0,0,0,0,0,0,0-.6.2-1.3.3-2,0-.2.2-.5.5-.5.1,0,12.6-4.9,14.7-12.3,0-.3.3-.5.7-.5.3,0,.6.1.7.4s5.6,10.9,16.1,10.2c.4,0,.7.2.8.6,0,.5.4,2.2.5,3.6.3-.2.5-.5.8-.6.8-.4,2.7-.9,4.2-.1,1,.5,1.7,1.4,2,2.6.5,1.9.4,4.6-1.3,6.3-.9.9-2.5,1.9-5.4,1.5,0,4.1.7,20.9,8.1,26.8.2.1,17.4,12.9,33.7,3.7,10.4-5.9,15.5-16.3,13.6-27.7-1-6.2-3.8-12.6-8.6-19.4-5.3-7.6-12.3-13.2-19.6-19.1-1.1-.9-2.3-1.8-3.4-2.7-1.1-.9-2.3-2-2.7-3.1-.3-.8-.2-1.8.3-2.6.4-.6,1-.9,1.7-.9.6,0,1.1.3,1.5.5,1.5.9,3.1,1.9,4.7,2.9-1.2-1.2-2.2-2.5-3.1-3.5-1-1.2-1.5-2.8-.4-3.8,1-.9,2.4-.3,2.8,0,.7.3,1.5.6,2.2,1-.4-.4-.8-.9-1.2-1.3-.6-.7-1.2-1.9-1-2.9.1-.5.5-.9,1-1.1.5-.2,1-.1,1.4,0,1,.2,1.9.6,3,1.1,2.4,1.2,4.5,2.9,6.4,4.5,11.3,9.3,22.8,19.4,29.4,32.5,5.1,10.1,6.8,21.4,7.6,29.1,1,9.5-.3,18.3-4.4,28.6-1.4,3.6-2.7,6.8-4.1,9.9-.1.3-.4.4-.7.4l-147.9.8h0ZM153.9,82.7c.1,0,.2,0,.3,0,.2.1.4.3.4.5,3.4,17.8-6.1,26.6-6.5,26.9,0,0-.1.1-.2.1-26.2,9.9-36.1,21.8-38.7,25.5l146.1-.8c1.3-2.9,2.5-5.9,3.9-9.3,3.9-10.1,5.3-18.7,4.3-27.9-1.3-11.9-3.6-21-7.4-28.6-6.4-12.9-17.4-22.5-29-32-1.8-1.5-3.8-3.2-6.1-4.3-.9-.5-1.8-.8-2.7-1-.1,0-.4,0-.5,0-.1.4.1,1.1.6,1.6,2,2.2,4.1,4.2,6.3,6.1,1.8,1.3,3.5,2.6,5.2,3.9.3.2.4.7.1,1-.2.3-.7.4-1,.2-1.8-1.2-3.6-2.5-5.2-3.9-2.5-1.8-5.2-3.4-8.1-4.6-.9-.4-1.2-.2-1.3-.2-.3.2,0,1.1.6,1.7,2.5,3,6.3,7.2,10.1,9.7.3.2.4.7.2,1-.2.3-.7.5-1,.3-2.1-1.2-4.3-2.7-6.4-4.1-2.1-1.4-4.3-2.9-6.3-4-.3-.1-.6-.3-.8-.3-.2,0-.3,0-.4.3-.2.3-.3.8-.2,1.2.4.9,1.7,2,2.3,2.5,1.1.9,2.3,1.8,3.4,2.7,7.4,5.9,14.4,11.6,19.9,19.4,4.9,7,7.8,13.6,8.9,20.1,2,12.1-3.4,23-14.4,29.2-17.2,9.8-35.2-3.6-35.4-3.8-9-7.2-8.7-28-8.6-28.9,0-.2.1-.4.3-.6.2-.1.4-.2.6-.1,2.2.5,3.9.2,4.9-.9,1.3-1.3,1.3-3.5.9-4.9-.2-.8-.6-1.4-1.2-1.7-1.1-.5-2.5,0-2.9.1-.3.1-.7.6-1,.9-.5.5-.9,1-1.5.7-.2-.1-.5-.4-.4-1.1,0-.5-.2-2.5-.4-4-8.7.2-14.1-6.6-16-9.6-3,6.6-12.5,10.7-14.6,11.6,0,.5-.2,1-.2,1.5-.1,1.2-.2,1.9-.9,2.1-.7.1-1-.5-1.2-.8-.2-.3-1.4-.8-2.5-.5-1.1.3-1.7,1.3-1.7,2.8,0,2.3.5,3.8,1.6,4.5,1.5.9,3.7,0,3.7,0,.1,0,.2,0,.3,0ZM154,75.5h0Z"/>
  </g>
  <circle class="cls-1" cx="163.7" cy="76" r="1.8"/>
  <circle class="cls-1" cx="178" cy="75.7" r="1.8"/>
  <path class="cls-1" d="M171.1,88.4c-4,0-4.6-2.5-4.5-4.2,0-.9.8-1.6,1.8-1.6h5.7c1,.2,1.8,1.1,1.7,2.1-.2,1.6-1.2,3.7-4.6,3.7Z"/>
  <path class="cls-1" d="M159.1,125.8c-.8,0-1.6,0-2.5-.2-10.4-1.5-17.6-11.6-17.9-12l1.2-.9c0,.1,7.1,10,16.9,11.4,4.9.7,9.6-.9,14.2-4.6l.9,1.2c-4.1,3.4-8.4,5.1-12.9,5.1Z"/>
  <path class="cls-1" d="M184.9,126.5c-8.3,0-13.7-5.7-14-5.9l1.1-1c0,0,5.2,5.4,12.9,5.4s.1,0,.2,0c5.9,0,11.7-3.2,17.3-9.4l1.1,1c-5.9,6.5-12.1,9.8-18.4,9.9,0,0-.1,0-.2,0Z"/>
  <path class="cls-1" d="M171.3,120.2c-15,0-24.4-9.7-24.5-9.9l1.1-1c0,0,4.9,5.2,13.1,7.8,11,3.6,22.4,1.4,33.9-6.6l.9,1.2c-9.2,6.3-17.4,8.4-24.5,8.4Z"/>
  <path class="cls-1" d="M237.5,71v-1.5s8.5-.7,13.8-9l1.3.8c-5.7,9-14.6,9.7-15,9.7Z"/>
  <g>
    <path class="cls-3" d="M90.5,133s50.7.6,67.9-.7c17.2-1.3,83,.3,88.4,0s21.1-.5,21.1-.5l-1.8,50s-165.9,1.8-169.2,1.9-6.6-1.8-6.5-6.9c.1-5.2,0-43.8,0-43.8Z"/>
    <path class="cls-1" d="M96.6,184.5c-1.9,0-3.6-.6-4.8-1.8-1.4-1.4-2.1-3.4-2-5.9.1-5.1,0-43.4,0-43.7,0-.2,0-.4.2-.5.1-.1.3-.2.5-.2.5,0,50.9.6,67.9-.7,11.4-.9,44.6-.4,66.5-.2,11.2.1,20.1.3,21.9.2,5.4-.3,21-.5,21.1-.5.2,0,.4,0,.5.2s.2.3.2.6l-1.8,50c0,.4-.3.7-.7.7-1.7,0-165.9,1.8-169.2,1.9-.1,0-.3,0-.4,0ZM91.3,133.8c0,5.4.1,38.3,0,43,0,2.1.5,3.7,1.6,4.8,1,1,2.5,1.5,4.1,1.4,3.2-.2,155.1-1.8,168.5-1.9l1.7-48.5c-3.2,0-15.6.2-20.3.5-1.9.1-10.3,0-22-.1-21.9-.3-55-.7-66.4.1-15.9,1.2-60.8.8-67.2.7Z"/>
  </g>
  <polygon class="cls-2" points="97 142.5 105.6 142.5 110.5 154.9 111.9 149 117 149.2 119.5 154.9 123.2 140.8 131.3 142 125.5 174.3 118.4 174.3 115.3 166 113 174.3 106.4 174.7 97 142.5"/>
  <polygon class="cls-2" points="133.4 141.6 133.9 174.7 148.3 174.7 148.3 165.2 140.9 165.1 140.9 161.4 145.9 161.4 145.6 155.8 140.1 155.9 140.1 150 148.3 149.8 148.3 140.8 133.4 141.6"/>
  <polygon class="cls-2" points="151.6 140.8 152.6 174.7 166.6 174.7 166.6 156.6 157.7 156.9 157.6 140.8 151.6 140.8"/>
  <path class="cls-2" d="M186.4,140.8c.1,3.7.3,7.5.4,11.2,0-.7-3.3.3-3.7.5-2.8.9-4.3,3.5-3.7,6.4.7,3.3,3.8,5,7,5,0,0,.4,10.5.4,10.5,0,.3-4.7.3-5,.3-3.5,0-7.6-1.1-10-3.8-2.4-2.7-2.7-7.1-2.9-10.6-.2-4,.2-8.1,2-11.7,1.5-3,4-5.4,7.1-6.8,2.6-1.1,5.5-1.5,8.3-.9h0Z"/>
  <path class="cls-2" d="M199.7,140.5c-8.4.5-11.8,11-11.6,18.3.2,7.2,3.7,15.8,9.5,16.4,5.8.6,12.9-8.7,12-19.1-.9-10.4-3.9-15.9-9.9-15.5Z"/>
  <polygon class="cls-2" points="216.3 140.5 210.2 173.2 218.4 174.6 222.2 160 227.2 168.8 231.7 159.8 233.7 173.1 242 172.6 237.3 140.8 229.9 140.8 226.4 150.1 223 140.5 216.3 140.5"/>
  <path class="cls-2" d="M244,141.6s-.9,32.5.4,32.7,15.7,0,15.7,0v-9.2l-9.1.2.2-3.4,4.3-.2-.2-6.4h-4.9c0,0,0-5.2,0-5.2l8.5-.4-.4-9.4-14.5,1.1Z"/>
  <ellipse class="cls-3" cx="198.5" cy="157.9" rx="2.8" ry="4.9"/>
  <g>
    <path class="cls-3" d="M101.3,183.7s17.2,28.9,59.3,15.2c30.2-12.3,34.8-20.4,33.4-22.2-1.4-1.8-17.4,8.1-17.4,8.1,0,0,16.6-9.7,15.8-11.8s-18.5,7.4-18.5,7.4c0,0,17.9-10,17.1-12.8s-8.5,1.5-15.7,5.9c-7.2,4.4-18.7,9.4-25,9.5s-49,.7-49,.7Z"/>
    <path class="cls-1" d="M139,203.3c-7.9,0-16.3-1.6-24.2-6.2-9.6-5.5-13.9-12.7-14.1-13-.1-.2-.1-.5,0-.7.1-.2.4-.4.6-.4,0,0,42.7-.6,49-.7,6,0,17.2-4.8,24.6-9.4,9-5.5,13.7-7.5,15.7-6.7.6.2.9.6,1.1,1.2.2.8-.5,2.5-5.4,6.1,2.8-1.1,5.1-1.8,6.1-1.5.3.1.6.4.7.7.3.8-.8,2.2-2.6,3.8,2.3-.8,3.7-.9,4.2-.3.3.3.5,1,.2,2-.5,2-4.6,9.4-34,21.4-6.2,2-13.8,3.7-21.9,3.7ZM102.7,184.5c3.7,5.1,21.4,25.5,57.6,13.7,30.1-12.3,32.8-19.6,33.1-20.4,0-.3,0-.5,0-.6-1.2-.2-6.8,2.6-12.4,5.8-1.4.8-2.7,1.6-4.1,2.4-.4.2-.8,0-1-.3s-.1-.8.2-1c1.5-.9,2.9-1.7,4.1-2.5,5.4-3.4,10.4-6.9,11.2-8.3-2,0-10.3,3.9-17.3,7.6-.4.2-.8,0-1-.3-.2-.4,0-.8.3-1,10.4-5.8,16.8-10.7,16.8-11.9,0-.1,0-.2-.2-.2-1-.4-4.3.4-14.4,6.6-7.5,4.6-18.9,9.5-25.4,9.6-5.6,0-40.2.6-47.6.7Z"/>
  </g>
  <path class="cls-1" d="M155.2,201c-6.7-3.9-6.6-16.7-6.6-17.2h1.5c0,.1-.1,12.4,5.9,15.9l-.8,1.3Z"/>
</svg>