<?xml version="1.0" encoding="UTF-8"?>
<svg id="Layer_1" data-name="Layer 1" xmlns="http://www.w3.org/2000/svg" version="1.1" viewBox="0 0 346 233.7">
  <defs>
    <style>
      .cls-1 {
        fill: #000;
      }

      .cls-1, .cls-2, .cls-3 {
        stroke-width: 0px;
      }

      .cls-2 {
        fill: #fff;
      }

      .cls-3 {
        fill: #fbcd30;
      }
    </style>
  </defs>
  <g>
    <polygon class="cls-3" points="145.8 68.3 137.7 78.8 146.7 81.5 137.7 96.7 160.9 75 150.2 74.7 154.7 68.3 145.8 68.3"/>
    <path class="cls-1" d="M137.7,97.4c-.2,0-.3,0-.5-.2-.3-.2-.4-.6-.2-1l8.5-14.3-8.1-2.4c-.2,0-.4-.3-.5-.5,0-.2,0-.5.1-.7l8.1-10.6c.1-.2.4-.3.6-.3h8.9c.3,0,.5.2.7.4.1.2.1.5,0,.8l-3.8,5.3,9.4.3c.3,0,.6.2.7.5.1.3,0,.6-.2.8l-23.2,21.7c-.1.1-.3.2-.5.2ZM139,78.4l8,2.4c.2,0,.4.2.5.4,0,.2,0,.5,0,.7l-6.3,10.6,18-16.8-9-.3c-.3,0-.5-.2-.6-.4-.1-.2-.1-.5,0-.8l3.7-5.2h-7.1l-7.2,9.4Z"/>
  </g>
  <g>
    <polygon class="cls-3" points="222.9 52.3 209.5 74.6 215.2 77.8 203.3 94.9 229.2 73.6 218.5 72.2 229.2 55.8 222.9 52.3"/>
    <path class="cls-1" d="M203.3,95.7c-.2,0-.4,0-.5-.2-.3-.3-.3-.7-.1-1l11.4-16.5-5-2.7c-.2,0-.3-.3-.4-.5,0-.2,0-.4,0-.6l13.4-22.3c.2-.3.7-.5,1-.3l6.3,3.5c.2.1.3.3.4.5s0,.4-.1.6l-10.1,15.4,9.5,1.3c.3,0,.5.3.6.5,0,.3,0,.6-.2.8l-25.9,21.3c-.1.1-.3.2-.5.2ZM210.5,74.3l5,2.8c.2.1.3.3.4.5,0,.2,0,.4-.1.6l-8.8,12.7,20.4-16.8-9-1.2c-.3,0-.5-.2-.6-.4-.1-.2,0-.5,0-.7l10.3-15.7-5-2.8-12.7,21Z"/>
  </g>
  <path class="cls-1" d="M189.9,104.1s26.3-4,19.3,38.1c1.2,12.9,14.8,53.4,24.3,60.9,0,0-14.8,9.7-26.9-7.9l-67.6-5s-23.1,16.6-30.1-16.6c0,0,21.9,12.1,34.9-21.3,3.2-14.9-1.9-35.2,15.1-49.3,17-14.1,31,1.3,31,1.3Z"/>
  <path class="cls-2" d="M138.4,189.4s8.5-20.9,7.7-38c0,0-8.6,2.7-8.7-8.7-.1-11.4,10.1-6.9,10.1-6.9,0,0-.2,4.2.3,4.4,1.6.7,1.7-2.1,2.1-3.1.9-2.3,2.3-4.3,3.6-6.5,1.6-2.7,3.2-5.2,6-6.9,6.3-3.9,14.1-5.8,21.1-8.2.9-.3,1.9-.6,2.8-.5,1,.2,1.9.8,2.7,1.5,8.3,6.7,19.3,15.1,19.4,26.9,0,.7,0,1.4.3,2s1.1,1,1.7.6c.7-.4.5-1.5.7-2.2.3-1.5,2.1-2.2,3.6-2.1,2.4.2,4.5,2,5.4,4.2s.9,4.7.2,7c-.7,2.4-2.2,4.8-4.5,5.6-2.2.7-4.6,0-6.7-.8-.9,5.5-2.5,11.4-2.2,17.1.2,3.9-3.4,37.4,28.9,29.3l4.3,7.1-59.9-.7-66.4-.8,27.5-20.2Z"/>
  <path class="cls-1" d="M110.9,210.4c-.2,0-.5-.1-.6-.3-.2-.3-.2-.8.2-1l27.3-20.1c.8-2.1,8-20.9,7.6-36.6-1.3.2-3.5.3-5.5-1.2-2.1-1.6-3.2-4.4-3.3-8.5,0-3.7,1-6.2,3-7.5,3.3-2.2,8-.1,8.2,0,.3.1.5.4.4.7,0,1.4,0,3.1,0,3.7.3-.2.5-1.3.6-1.7,0-.4.2-.7.3-1,.7-1.8,1.7-3.5,2.7-5.1.3-.5.6-1,.9-1.5,1.7-2.9,3.3-5.4,6.2-7.2,4.9-3,10.6-4.8,16.1-6.6,1.7-.5,3.5-1.1,5.2-1.7.9-.3,2-.7,3.2-.5,1.3.2,2.3,1,3.1,1.7l1.1.9c8.2,6.7,18.5,14.9,18.6,26.6v.2c0,.5,0,1.1.2,1.4,0,.2.3.3.4.4,0,0,.1,0,.2,0,.2-.1.2-.5.2-.9,0-.3,0-.6,0-.8.4-1.9,2.6-2.8,4.4-2.6,2.5.2,4.9,2.1,6,4.6.9,2.2,1,4.9.3,7.5-.9,3.1-2.7,5.3-5,6.1-2.1.7-4.3.2-6.4-.5-.2,1.1-.4,2.1-.6,3.2-.8,4.2-1.6,8.6-1.5,12.8,0,.3,0,.9,0,1.6-.1,5-.4,18.3,7.6,24.7,4.7,3.7,11.5,4.5,20.4,2.3.4,0,.8.1.9.5.1.4-.1.8-.5.9-9.3,2.3-16.6,1.5-21.7-2.6-8.6-6.9-8.3-20.7-8.2-25.9,0-.7,0-1.2,0-1.5-.2-4.3.7-8.8,1.5-13.1.3-1.4.5-2.7.7-4.1,0-.2.2-.4.4-.5.2-.1.4-.1.6,0,2.1.8,4.3,1.5,6.2.8,2.6-.9,3.7-3.8,4.1-5.1.7-2.4.6-4.7-.2-6.5-.9-2.1-2.8-3.6-4.8-3.7-1.2-.1-2.6.4-2.8,1.5,0,.2,0,.4,0,.6,0,.7-.1,1.6-.9,2.1-.4.2-.9.3-1.4.2-.6-.2-1.1-.6-1.4-1.1-.4-.7-.4-1.5-.4-2.1v-.2c-.1-10.9-10.1-19-18.1-25.4l-1.1-.9c-.8-.7-1.6-1.2-2.4-1.3-.8-.1-1.7.2-2.5.5-1.7.6-3.5,1.1-5.2,1.7-5.4,1.7-11.1,3.5-15.7,6.4-2.6,1.6-4.1,4-5.7,6.7-.3.5-.6,1-.9,1.5-1,1.6-1.9,3.1-2.6,4.8,0,.2-.2.5-.2.8-.3,1.1-.5,2.3-1.5,2.7-.3.1-.8.3-1.5,0-.4-.2-.9-.4-.7-4.6-1.2-.4-4.2-1.3-6.3.1-1.6,1-2.3,3.1-2.3,6.3,0,3.6.9,6,2.7,7.3,2.2,1.6,5.1.7,5.1.7.2,0,.5,0,.7.1.2.1.3.3.3.6.8,17.1-7.7,38.1-7.7,38.3,0,.1-.1.2-.2.3l-27.5,20.2c-.1,0-.3.1-.4.1Z"/>
  <path class="cls-1" d="M163.3,142.9c-3.2,0-4.5-3.5-4.5-3.7-.1-.4,0-.8.5-1s.8,0,1,.5h0s1,2.7,3.1,2.7,3.6-2,3.6-2c.2-.3.7-.4,1-.2.3.2.4.7.2,1,0,.1-1.8,2.6-4.9,2.6Z"/>
  <path class="cls-1" d="M188.5,145.7c-.2,0-.3,0-.5,0-3.8-.3-5-3.6-5-3.7-.1-.4,0-.8.5-1,.4-.1.8,0,1,.5h0c0,.1.9,2.5,3.7,2.7,2.6.2,3.1-1.5,3.2-1.7.1-.4.5-.6.9-.5.4.1.6.5.5.9-.2,1-1.4,2.8-4.2,2.8Z"/>
  <path class="cls-1" d="M180.2,165.9c-.3,0-.5-.2-.7-.4,0,0-2.7-5.2-6.3-5.7-3.7-.4-5.8,1.6-5.8,1.6-.3.3-.8.3-1.1,0s-.3-.8,0-1.1c.1-.1,2.6-2.6,7.1-2,4.5.5,7.4,6.2,7.5,6.5.2.4,0,.8-.3,1-.1,0-.2,0-.3,0Z"/>
  <path class="cls-1" d="M180.7,202.9c-22.1,0-42.4-12.7-42.7-12.9-.3-.2-.5-.7-.2-1,.2-.3.7-.5,1-.2.4.2,38.8,24.2,66.9,5.5.3-.2.8-.1,1,.2.2.3.1.8-.2,1-8.1,5.4-17.1,7.4-25.8,7.4Z"/>
  <path class="cls-1" d="M145,147.2s0,0,0,0c-1-.1-3-.9-3-3.1s2.3-3.6,2.3-3.7c.4-.2.8,0,1,.4.2.4,0,.8-.3,1,0,0-1.5.8-1.5,2.3s1.5,1.5,1.6,1.6c.4,0,.7.4.7.8,0,.4-.4.7-.7.7Z"/>
  <path class="cls-1" d="M210.8,153.3c-.4,0-.7-.3-.7-.7,0-.4.3-.8.7-.8.2,0,1.6-.2,1.6-1.6s-1.4-2.3-1.5-2.3c-.4-.2-.5-.6-.3-1,.2-.4.6-.5,1-.3,0,0,2.3,1.2,2.3,3.7s-2,3-3,3.1c0,0,0,0,0,0Z"/>
  <path class="cls-1" d="M176.9,122.2c-.4,0-.7-.3-.7-.6,0-.4.2-.8.6-.9,0,0,3.7-.8,6.8-6.3.2-.4.7-.5,1-.3.4.2.5.7.3,1-3.4,6.2-7.7,7-7.8,7.1,0,0,0,0-.1,0Z"/>
  <path class="cls-1" d="M186.4,124.4c-.3,0-.5-.2-.7-.4,0-.2-1.9-4-1.8-7.7,0-.4.3-.8.8-.7.4,0,.7.4.7.8,0,3.3,1.6,6.9,1.7,7,.2.4,0,.8-.3,1-.1,0-.2,0-.3,0Z"/>
  <g>
    <path class="cls-2" d="M148.3,23.7c-7.5,2.7-6.8,11.7-6.8,11.7,0,0-10.2-4-14.7,2.6-4.6,6.5.8,13.8.8,13.8,0,0-12.6-.8-12.5,9.1s25.3,11,35.5,10.6,43.1,1.6,44.6-9.5c1.5-11.1-11.7-10.5-11.7-10.5,0,0,7.2-5.4,0-15.3s-19.3-2.1-19.3-2.1c0,0-4.7-13.3-16-10.4Z"/>
    <path class="cls-1" d="M147.2,72.2c-10.1,0-25-1.4-30.5-6.6-1.5-1.4-2.2-3-2.3-4.8,0-2.7.8-5,2.6-6.6,2.8-2.7,7.1-3.2,9.3-3.2-1.4-2.4-3.8-8.2,0-13.4,4-5.7,11.8-4,14.6-3.2,0-2.6,1-9.1,7.3-11.3,0,0,0,0,0,0,10.1-2.6,15.2,7.1,16.5,10,2.9-1.6,13-6.1,19.5,2.7,5.5,7.6,3,12.8,1.1,15,2.3.2,6.2.9,8.7,3.6,1.8,1.9,2.4,4.5,2,7.7-1.4,10.1-25.2,10.1-39.3,10-2.4,0-4.4,0-6,0-1.1,0-2.2,0-3.5,0ZM127,52.4c-1.6,0-6.2.2-9,2.8-1.4,1.4-2.2,3.2-2.1,5.5,0,1.4.6,2.6,1.8,3.8,5.8,5.5,23.4,6.4,32.9,6.1,1.5,0,3.6,0,6,0,12.9,0,36.6,0,37.8-8.8.4-2.7-.2-4.9-1.6-6.5-3.1-3.4-9.2-3.1-9.3-3.1-.3,0-.6-.2-.7-.5-.1-.3,0-.7.3-.9.3-.2,6.5-5.1-.2-14.2-2.8-3.9-6.7-5.4-11.6-4.5-3.7.7-6.6,2.5-6.6,2.6-.2.1-.4.2-.7,0-.2,0-.4-.2-.5-.5,0,0-1.2-3.3-3.6-6.1-3.2-3.7-7.1-5-11.4-3.8-6.8,2.5-6.3,10.5-6.2,10.9,0,.3,0,.5-.3.7-.2.2-.5.2-.7,0,0,0-9.7-3.7-13.8,2.3-4.2,6,.6,12.6.8,12.9.2.2.2.5,0,.8-.1.3-.4.4-.7.4,0,0-.2,0-.6,0Z"/>
  </g>
  <g>
    <polygon class="cls-3" points="168.3 25 155.2 45.8 161.8 48.3 156.9 54.2 164.8 55.8 173.9 45.1 164.6 43.1 176.4 28.5 168.3 25"/>
    <path class="cls-1" d="M164.8,56.6c0,0-.1,0-.2,0l-7.9-1.7c-.3,0-.5-.2-.6-.5s0-.5.1-.7l4.2-5.1-5.6-2.1c-.2,0-.4-.2-.4-.5,0-.2,0-.4,0-.6l13.1-20.7c.2-.3.6-.4.9-.3l8.1,3.4c.2,0,.4.3.4.5s0,.5-.1.7l-11.1,13.7,8.1,1.8c.3,0,.5.2.5.5,0,.2,0,.5-.1.7l-9.1,10.7c-.1.2-.4.3-.6.3ZM158.3,53.7l6.2,1.3,8-9.4-8.1-1.8c-.3,0-.5-.2-.5-.5s0-.5.1-.7l11.2-13.8-6.6-2.8-12.2,19.4,5.7,2.2c.2,0,.4.3.5.5,0,.2,0,.5-.1.7l-4.1,5Z"/>
  </g>
</svg>