<?xml version="1.0" encoding="UTF-8"?>
<svg id="Layer_1" data-name="Layer 1" xmlns="http://www.w3.org/2000/svg" version="1.1" viewBox="0 0 346 233.7">
  <defs>
    <style>
      .cls-1 {
        fill: #000;
      }

      .cls-1, .cls-2, .cls-3, .cls-4 {
        stroke-width: 0px;
      }

      .cls-2 {
        fill: #fbca2d;
      }

      .cls-3 {
        fill: #231f20;
      }

      .cls-4 {
        fill: #fff;
      }
    </style>
  </defs>
  <g id="Layer_40" data-name="Layer 40">
    <g>
      <path class="cls-4" d="M178.5,108.7s-30.4,12-31.4,28.5h-12.9c-1.8,0-3.2,1.8-2.6,3.5l11.1,36.7c.4,1.2,1.6,1.9,2.8,1.7h.8c0-.1,9.9,13.1,28.9,20.8,19,7.7,53.3,10.1,69.7-6.3,16.4-16.4,27.6-56.4-17.2-77.2l-49.2-7.8h0Z"/>
      <path class="cls-1" d="M208,206.7c-12.3,0-24.5-2.5-33-6-17.2-6.9-27.2-18.6-29-20.8h-.3c-1.6.3-3.2-.6-3.6-2.2l-11.1-36.7c-.3-1.1-.1-2.2.5-3.1.7-.9,1.7-1.4,2.8-1.4h12.2c.8-6.9,6.2-13.7,16.4-20.3,7.7-5.1,15.4-8.1,15.5-8.2.1,0,.3,0,.4,0l49.2,7.8c0,0,.1,0,.2,0,22.6,10.5,29.6,25.2,31.4,35.7,3,16.9-4.9,33.6-14,42.7-9.1,9.1-23.3,12.4-37.5,12.4h0ZM146.3,178.3c.2,0,.5.1.6.3,0,.1,10,13.2,28.6,20.7,18,7.3,52.4,10.4,68.8-6.1,8.8-8.8,16.4-25,13.5-41.3-2.6-14.5-13.1-26.5-30.5-34.6l-48.8-7.8c-2.5,1.1-29.8,12.6-30.8,27.8,0,.4-.3.7-.8.7h-12.9c-.6,0-1.2.3-1.6.8-.4.5-.5,1.2-.3,1.8l11.1,36.7c.2.8,1.1,1.3,1.9,1.2h.8c0-.1,0-.1.1-.1h0Z"/>
    </g>
  </g>
  <g id="Layer_43" data-name="Layer 43">
    <path class="cls-1" d="M193.5,184.6c-5.4,0-9.7-.7-11.4-1.2-6.2-2-11.6-7.8-13-11.1-.4-1-.7-2.5-1-4.2-.4-2.2-1-5.5-1.9-6,0,0-.1,0-.3,0-.8.3-1.3,2.6.2,11.7.2,1.1.3,1.6.3,2,0,.5-.3.8-.6.9-1.7.5-8.3-9.8-8.4-9.9-.3-.5-.6-1.1-.9-1.7-.9-1.8-2.2-4.5-3.3-4.9-.2,0-.4,0-.6,0-1,.6.3,5.9,2.7,11.3.2.4,0,.8-.3,1-.3.2-.8.1-1-.2-.5-.8-1.2-2.1-1.9-3.7-1.2-2.6-3-6.5-4.4-7-.2,0-.3,0-.4,0-.4.2-.7.6-.8,1.2-.6,2.2,1.2,6.3,2.7,9.1.6.9,1,1.7,1.2,2.1.2.4,0,.8-.3,1s-.8,0-1-.2c0-.1-.5-.9-1.2-2-1.5-2.4-3.5-5.2-4.8-5.4-.2,0-.3,0-.4.1-1.2,1,1.2,6.6,4.1,11.2.2.4.1.8-.2,1s-.8.1-1-.2c-1.6-2.5-6.5-10.8-3.8-13.1.5-.4,1-.6,1.7-.4.7.1,1.4.6,2.1,1.2-.5-1.7-.8-3.4-.4-4.7.2-1,.8-1.7,1.6-2.1.5-.2,1.1-.3,1.6,0,.9.3,1.8,1.4,2.7,2.8-.4-2.9.5-3.8.9-4,.6-.3,1.2-.4,1.8-.2,1.8.5,3.1,3.3,4.2,5.7.3.6.6,1.2.8,1.6,1,1.8,4.1,6,5.9,8.1h0c-1.3-7.6-1.6-12.4.7-13.4.6-.2,1.1-.2,1.6,0,1.4.8,1.9,3.3,2.6,7,.3,1.6.6,3.1.9,3.9,1.1,2.6,6.1,8.3,12.1,10.2,4.8,1.6,21.6,2.7,32.9-4,6-3.5,9.8-8.8,11.1-15.6,0-.4.5-.7.9-.6.4,0,.7.5.6.9-1.4,7.2-5.4,12.8-11.8,16.6-7.1,4.2-15.8,5.4-22.8,5.4h0Z"/>
    <path class="cls-1" d="M159.1,177.7c-.2,0-.4,0-.5-.2-.2-.1-3.9-3.6-5.1-6.5-.2-.4,0-.8.4-1s.8,0,1,.4c1,2.6,4.6,5.9,4.7,5.9.3.3.3.8,0,1.1-.2.2-.3.2-.6.2h0Z"/>
    <path class="cls-1" d="M155.9,182.4c-.2,0-.4,0-.5-.2-.2-.2-4.6-4.8-7-8.8-.2-.4,0-.8.3-1,.4-.2.8,0,1,.3,2.3,3.8,6.7,8.4,6.8,8.5.3.3.3.8,0,1.1-.2.1-.3.2-.5.2h0Z"/>
    <path class="cls-1" d="M174.8,200.6c-.3,0-.5-.1-.7-.4-.2-.4,0-.8.3-1,7.1-4.1,7.2-16,7.2-16.1,0-.4.3-.8.8-.8h0c.4,0,.8.3.8.8s-.2,12.9-8,17.4c-.1,0-.2.1-.4.1h0Z"/>
    <path class="cls-1" d="M165,172.1c-.3,0-.6-.2-.7-.6l-8.9-32.1c-.2-.9-1.1-1.6-2-1.6h-6.7c-.4,0-.8-.3-.8-.7s.3-.8.7-.8h6.7c0,0,0,0,0,0,1.6,0,3,1.1,3.4,2.7l8.9,32.1c.1.4-.1.8-.5.9,0,0-.1,0-.2,0h0Z"/>
  </g>
  <g id="Layer_42" data-name="Layer 42">
    <path class="cls-1" d="M188.7,153.2h0c-.4,0-.7-.4-.7-.8.1-1,2.8-24.8,4.9-29.2.2-.4.6-.5,1-.4.4.2.5.6.4,1-2,4.2-4.7,28.5-4.8,28.8,0,.4-.4.7-.7.7h0Z"/>
    <circle class="cls-1" cx="197.9" cy="134" r="1.1"/>
    <circle class="cls-1" cx="145.7" cy="146.9" r="1.5"/>
    <circle class="cls-1" cx="196.8" cy="146.9" r="1.1"/>
  </g>
  <g id="Layer_41" data-name="Layer 41">
    <path class="cls-1" d="M202.5,62.5s6.7-6.2,13.2,2.7c6.5,9,3,16.3,3,19.3,0,3,1.9,8.9,7.2,11.6s-.7,7.6-.6,10c.1,2.3,8.6,7,5.2,14.3-3.4,7.3-13.3,11-23.6,2.2l-29-9.2s-5.9,4.8-11.5,2.7-7.1-7.9-3.2-10.5c3.9-2.7,10.8-3.7,7.9-6.7-2.8-3-9.7-6.1-5.5-11.8s10.6-2.9,11.8-6.2-5.5-15.8,6.5-21.4c12-5.5,18.6,3,18.6,3h0Z"/>
  </g>
  <g id="Layer_35" data-name="Layer 35">
    <g>
      <path class="cls-4" d="M201.6,70s-6.9,6.2-12.2,8.2-8.3,5-8.5,7.1-1.3-3.2-1.4-3.4-4.9.2-4.6,4.6c.3,4.4,2.1,5.3,5.4,4,0,0,.3,2.4,2.7,5.8,2.5,3.4.2,11.6-4.4,16.4,0,0,6.2,14.8,28.8,9.5,0,0-1.2-6.8,2.7-9.3,4-2.5.8-5.2,0-6.7-.7-1.3-2.7-6.2-.3-9.3.7-1,1.1-2.2.8-3.4v-.2c0,0,2.2,2.1,4.1,1.5,3.2-1,4.2-8.1,1.1-8.9-3.4-.9-3.5,1.9-3.5,1.9,0,0-.6-1.6-1.3-3.7-.8-2.1-6.9-4.5-7.6-8.9-.7-4.4-1.7-5.2-1.7-5.2h0Z"/>
      <path class="cls-1" d="M198.4,124.2c-6.7,0-11.3-2-14.2-4.1-4.5-3.1-6.1-6.9-6.2-7.1-.1-.3,0-.6.2-.8,4.3-4.4,6.6-12.4,4.4-15.4-1.7-2.3-2.4-4.2-2.7-5.3-1.5.4-2.7.3-3.6-.2-1.2-.8-1.8-2.3-2-4.7-.2-2.4,1.1-4.3,3.5-5.1.9-.3,2.1-.6,2.5,0,0,.1,0,.2.3.9,0,.2.2.7.3,1.1,1.2-2.2,4.3-4.5,8.4-6,5.1-1.9,11.9-8,12-8.1.3-.2.7-.2,1,0,.2.2,1.2,1.3,2,5.7.4,2.4,2.8,4.2,4.7,5.7,1.4,1.1,2.6,2,2.9,3,.3.8.5,1.5.8,2,0,0,.2-.2.3-.3.8-.6,1.9-.7,3.3-.4,1.5.4,2.4,1.8,2.4,3.9,0,2.6-1.2,5.7-3.5,6.5-1.2.4-2.6,0-3.5-.6,0,.9-.4,1.7-1,2.5-2,2.7-.4,7.1.4,8.5.1.2.3.5.5.8.7,1,1.8,2.4,1.4,4-.2,1.1-.9,2-2.2,2.8-3.5,2.2-2.4,8.4-2.4,8.5,0,.4-.2.8-.6.9-3.4.8-6.5,1.1-9.2,1.1h0ZM179.5,113c1.2,2.4,7.9,13,27,8.8-.2-1.9-.4-7.1,3.2-9.3.9-.6,1.4-1.2,1.6-1.8.2-1-.6-2-1.2-2.9-.2-.3-.5-.7-.6-1-1.1-2.1-2.6-6.9-.2-10.1.7-.9.9-1.8.7-2.8v-.2c-.1-.3,0-.7.3-.8s.6-.1.9,0c.6.5,2.2,1.7,3.4,1.3,1.6-.5,2.5-3,2.4-5,0-.7-.2-2.2-1.3-2.5-.6-.2-1.5-.3-2,.1-.5.4-.6,1.1-.6,1.1,0,.3-.3.7-.7.7-.3,0-.7-.2-.8-.5,0,0-.6-1.6-1.3-3.7-.2-.6-1.3-1.5-2.4-2.4-2.1-1.7-4.7-3.7-5.2-6.7-.4-2.3-.8-3.6-1.2-4.2-1.9,1.6-7.3,6.1-11.8,7.8-5.1,1.9-7.9,4.7-8,6.4,0,.3,0,1.1-.8,1.2-.8,0-1.1-.6-1.9-3.8,0,0,0,0,0,0-.6,0-1.7.4-2.5,1.2-.7.7-.9,1.5-.9,2.6.1,1.9.6,3.1,1.3,3.5.7.4,1.7.4,3.1-.2.2,0,.5,0,.7,0,.2.1.3.3.3.6,0,0,.3,2.3,2.6,5.5,2.6,3.6.6,11.8-4.2,17h0Z"/>
    </g>
  </g>
  <g id="Layer_37" data-name="Layer 37">
    <path class="cls-1" d="M197.7,94.7c0,0,.2,0,.2.1.3.2.4.7.2,1,0,.1-2.4,3.2-6,2.3-3.6-.9-4.3-4.1-4.3-4.3,0-.4.2-.8.6-.9s.8.2.9.6c0,.1.6,2.5,3.2,3.1,2.7.6,4.4-1.7,4.5-1.8.2-.3.5-.4.8-.3h0Z"/>
    <circle class="cls-1" cx="187.5" cy="83.1" r="1.7"/>
    <circle class="cls-1" cx="202.3" cy="85.2" r="1.7"/>
  </g>
  <polygon class="cls-2" points="89.1 67.9 114.8 39.9 147.6 62.1 152.4 101.4 92 108.3 89.1 67.9"/>
  <g>
    <polygon class="cls-4" points="91.8 39.1 96.1 71.9 122.5 85.4 143.1 66.4 138.5 34 91.8 39.1"/>
    <path class="cls-1" d="M122.7,86.3l-27.3-14-4.4-34,48.1-5.2,4.8,33.5-.3.3-21,19.4ZM96.8,71.4l25.6,13.1,19.9-18.4-4.5-31.3-45.1,4.9,4.1,31.7Z"/>
  </g>
  <path class="cls-3" d="M118.8,47c-.4,0-.7-.3-.7-.7,0-.4.2-.8.7-.8l13.4-1.6c.4,0,.8.2.8.7,0,.4-.2.8-.7.8l-13.4,1.6s0,0,0,0Z"/>
  <path class="cls-3" d="M119.6,54.8c-.4,0-.7-.3-.7-.7,0-.4.3-.8.7-.8l10.5-1.1c.4,0,.8.3.8.7,0,.4-.3.8-.7.8l-10.5,1.1s0,0,0,0Z"/>
  <path class="cls-3" d="M102.2,66.3c-.4,0-.7-.3-.7-.7,0-.4.2-.8.7-.8l34.3-3.9c.4,0,.8.2.8.7,0,.4-.2.8-.7.8l-34.3,3.9s0,0,0,0Z"/>
  <path class="cls-3" d="M103.9,73.8c-.4,0-.7-.3-.7-.7,0-.4.3-.8.7-.8l29-2.8c.4,0,.8.3.8.7,0,.4-.3.8-.7.8l-29,2.8s0,0,0,0Z"/>
  <path class="cls-3" d="M116.4,79.1c-.4,0-.7-.3-.7-.7,0-.4.3-.8.7-.8l8.4-.7c.4,0,.8.3.8.7,0,.4-.3.8-.7.8l-8.4.7s0,0,0,0Z"/>
  <path class="cls-3" d="M96.1,72.6c-.1,0-.3,0-.4-.1l-6.2-3.6c-.4-.2-.5-.7-.3-1,.2-.4.7-.5,1-.3l6.2,3.6c.4.2.5.7.3,1-.1.2-.4.4-.6.4Z"/>
  <path class="cls-3" d="M142.7,67.6c-.2,0-.4,0-.5-.2-.3-.3-.3-.8,0-1.1l4.4-4.3c.3-.3.8-.3,1.1,0,.3.3.3.8,0,1.1l-4.4,4.3c-.1.1-.3.2-.5.2Z"/>
  <g id="Layer_47" data-name="Layer 47">
    <path class="cls-1" d="M106.7,42c-3-.6-2.7,2.4-1.8,3.2,0,0-3.3.9-1.3,4.8l6-.4s.4-2.8-1.5-4.4c0,0,2.3-2.5-1.3-3.2h0Z"/>
    <g>
      <path class="cls-4" d="M114.9,55.8c-1.8,2.3-4.7,3.8-8,3.8s-4.4-.7-6-1.9c-.1,0-.2-.1-.4-.2-.2,0-.4-.1-.7-.1,1-1.1,2.9-2.2,3.6-2.7.9-.6.3-3.3.3-3.3,0,0-1,.3-1.2-.8-.2-1.1.8-1,.8-1,0,.3.4.7.4.5s.2-.6.6-.9c.4-.3,1.2-1.5,1.2-1.5.3,1.7,2,1.6,2,1.6-.5,0-1.1-1.2-1.2-1.3.1.2,2.2.9,2.4,1s.2.6.3.6c.1,0,0-.2.2-.4.2-.3,1.2,0,1.1.8,0,.8-.9.6-.9.6-.2,2.3,1.1,3.3,1.1,3.3,1.7,0,3.6,1.3,4.3,1.9h0Z"/>
      <path class="cls-1" d="M106.9,59.7c-2.2,0-4.4-.7-6.1-1.9,0,0-.2-.1-.3-.2h0c-.1-.1-.3-.1-.6-.2,0,0-.1,0-.2-.1s0-.1,0-.2c.8-.9,2.2-1.7,3-2.3.2-.2.5-.3.6-.4.6-.4.4-2.1.2-2.9-.2,0-.5,0-.7-.1-.3-.2-.5-.4-.5-.8s0-.7.2-.9c.3-.3.8-.3.8-.3,0,0,.2,0,.2.2s0,0,0,.2c.1-.2.3-.5.6-.7.3-.2.9-1.1,1.2-1.4,0,0,.1,0,.2,0s.1,0,.1.1c.2.8.7,1.2,1.1,1.3-.4-.4-.6-.9-.6-.9,0,0,0-.2,0-.2s.2,0,.2,0c.2.2,2.1.8,2.3.9.2,0,.2.2.3.4,0,0,0,0,0-.1.1-.2.4-.2.7-.1.4.1.8.5.7,1.1,0,.3-.1.5-.3.6-.2.1-.4.2-.6.2h0c0,1.8.8,2.7,1,2.9,1.8,0,3.7,1.4,4.4,1.9,0,0,0,.2,0,.3-1.9,2.4-4.9,3.8-8.1,3.8h0ZM100.2,57.1c.1,0,.2,0,.3.1h0c.1.1.2.2.4.2,1.7,1.3,3.8,1.9,5.9,1.9s5.9-1.3,7.7-3.6c-.8-.6-2.5-1.8-4.1-1.8s0,0-.1,0c0,0-1.4-1.1-1.2-3.5,0,0,0-.1,0-.1s.1,0,.1,0c0,0,.3,0,.5-.1.1,0,.2-.2.2-.4,0-.4-.2-.6-.5-.7-.2,0-.3,0-.3,0,0,.1-.1.2-.1.3,0,0,0,.3-.3.2-.2,0-.2-.2-.3-.4,0,0,0-.2,0-.2-.2,0-1.2-.4-1.8-.7.2.3.5.6.7.6,0,0,.2,0,.2.2s0,.2-.2.2c0,0-1.6,0-2.1-1.4-.3.4-.7,1-1,1.2-.3.2-.5.6-.5.7,0,.1,0,.2,0,.2,0,0-.1,0-.2,0-.1,0-.3-.3-.4-.5-.1,0-.3,0-.4.2-.1.1-.1.3,0,.6,0,.3.2.5.4.6.3.2.6,0,.6,0,0,0,0,0,.1,0s0,0,0,.1c0,.3.7,2.8-.3,3.5-.2.1-.4.2-.6.4-.8.5-1.9,1.2-2.7,1.9h0ZM108.7,49.1h0,0Z"/>
    </g>
    <path class="cls-1" d="M106.5,56.9c-2.4,0-3.3-2.1-3.3-2.1,0,0,0-.2,0-.2s.2,0,.2.1,1,2.3,3.9,1.8c2.8-.6,3.1-2.5,3.1-2.6,0-.1.1-.2.2-.2s.2.1.2.2c0,0-.4,2.3-3.4,2.9-.3,0-.7.1-.9.1h0Z"/>
  </g>
  <path class="cls-3" d="M132.1,132.3c-.3,0-.6-.2-.7-.5l-4.3-11.1c-.1-.4,0-.8.4-1,.4-.1.8,0,1,.4l4.3,11.1c.1.4,0,.8-.4,1,0,0-.2,0-.3,0Z"/>
  <path class="cls-3" d="M127.8,135.9c-.2,0-.3,0-.4-.1l-10.2-7.5c-.3-.2-.4-.7-.2-1,.2-.3.7-.4,1-.2l10.2,7.5c.3.2.4.7.2,1-.1.2-.4.3-.6.3Z"/>
  <path class="cls-3" d="M126.2,140.9s0,0-.1,0l-11.5-1.6c-.4,0-.7-.4-.6-.8,0-.4.4-.7.8-.6l11.5,1.6c.4,0,.7.4.6.8,0,.4-.4.6-.7.6Z"/>
</svg>