<?xml version="1.0" encoding="UTF-8"?>
<svg id="Layer_1" data-name="Layer 1" xmlns="http://www.w3.org/2000/svg" version="1.1" viewBox="0 0 346 233.7">
  <defs>
    <style>
      .cls-1 {
        fill: #000;
      }

      .cls-1, .cls-2, .cls-3 {
        stroke-width: 0px;
      }

      .cls-2 {
        fill: #fdc830;
      }

      .cls-3 {
        fill: #fff;
      }
    </style>
  </defs>
  <g>
    <path class="cls-3" d="M176.8,110.2s-30.4,12-31.4,28.5h-12.9c-1.8,0-3.2,1.8-2.6,3.5l11.2,36.7c.4,1.2,1.6,1.9,2.8,1.7h.8c0-.1,9.9,13.1,28.9,20.8,19,7.7,53.3,10.1,69.7-6.3s27.6-56.4-17.3-77.2l-49.1-7.8Z"/>
    <path class="cls-1" d="M206.3,208.2c-12.3,0-24.4-2.5-33-6-17.2-6.9-27.2-18.6-29-20.8h-.4c-1.6.3-3.2-.6-3.6-2.2l-11.2-36.7c-.3-1.1-.1-2.2.5-3.1.7-.9,1.7-1.4,2.8-1.4h12.2c.7-6.9,6.3-13.7,16.4-20.3,7.7-5.1,15.4-8.1,15.5-8.1.1,0,.3,0,.4,0l49.1,7.8c0,0,.1,0,.2,0,22.6,10.5,29.6,25.2,31.4,35.7,3,16.9-4.9,33.6-14,42.7-9.1,9.1-23.3,12.4-37.5,12.4ZM144.6,179.8c.2,0,.5.1.6.3,0,.1,10,13.2,28.6,20.7,18,7.3,52.4,10.4,68.8-6.1,8.8-8.8,16.4-25,13.5-41.4-2.6-14.5-13.1-26.5-30.5-34.6l-48.8-7.8c-2.5,1-29.8,12.6-30.8,27.8,0,.4-.4.7-.7.7h-12.9c-.6,0-1.2.3-1.6.8-.4.5-.5,1.2-.3,1.8l11.2,36.7c.3.8,1.1,1.3,1.9,1.2h.8c0-.1,0-.2.1-.2Z"/>
  </g>
  <path class="cls-1" d="M191.8,186.1c-5.4,0-9.7-.7-11.4-1.3-6.2-2-11.6-7.8-13-11.1-.4-1-.7-2.5-1-4.2-.4-2.2-1-5.5-1.9-6,0,0-.1,0-.3,0-.8.3-1.3,2.6.2,11.7.2,1.1.3,1.6.3,2,0,.5-.3.8-.6.9-1.7.5-8.3-9.8-8.4-9.9-.3-.5-.5-1.1-.9-1.7-.9-1.8-2.2-4.5-3.3-4.9-.2,0-.4,0-.6,0-1,.6.3,5.9,2.7,11.3.2.4,0,.8-.3,1-.3.2-.8,0-1-.2-.5-.8-1.2-2.1-1.9-3.7-1.2-2.6-3-6.5-4.4-7-.2,0-.3,0-.4,0-.4.2-.7.6-.8,1.2-.6,2.2,1.2,6.3,2.7,9.1.6,1,1,1.7,1.2,2.1.2.4,0,.8-.3,1-.3.2-.8,0-1-.2,0,0-.5-.9-1.2-2-1.5-2.5-3.6-5.2-4.8-5.4-.2,0-.3,0-.4.1-1.2,1,1.2,6.6,4.1,11.2.2.4.1.8-.2,1-.4.2-.8.1-1-.2-1.6-2.5-6.5-10.8-3.8-13.1.5-.4,1-.6,1.7-.5.7.1,1.4.6,2.1,1.2-.5-1.7-.8-3.4-.4-4.7.2-1,.8-1.7,1.6-2.1.5-.2,1.1-.3,1.6,0,.9.3,1.8,1.4,2.7,2.8-.4-2.9.5-3.8.9-4,.6-.3,1.2-.4,1.8-.2,1.8.5,3.1,3.3,4.2,5.7.3.6.6,1.2.8,1.7,1,1.8,4.1,6,5.9,8.1h0c-1.2-7.6-1.6-12.4.7-13.4.5-.2,1.1-.2,1.6,0,1.4.8,1.9,3.3,2.6,7,.3,1.6.6,3.1.9,3.9,1.1,2.6,6.1,8.3,12.1,10.2,4.8,1.6,21.6,2.7,32.9-4,6-3.5,9.8-8.8,11.1-15.6,0-.4.5-.7.9-.6.4,0,.7.5.6.9-1.4,7.2-5.4,12.8-11.8,16.6-7.1,4.2-15.8,5.4-22.8,5.4Z"/>
  <path class="cls-1" d="M157.4,179.2c-.2,0-.4,0-.5-.2-.2-.1-4-3.5-5.1-6.5-.1-.4,0-.8.4-1,.4-.1.8,0,1,.4,1,2.6,4.6,5.9,4.7,5.9.3.3.3.8,0,1.1-.1.2-.4.2-.6.2Z"/>
  <path class="cls-1" d="M154.2,183.8c-.2,0-.4,0-.5-.2-.2-.2-4.6-4.8-7-8.8-.2-.4,0-.8.3-1,.4-.2.8,0,1,.3,2.3,3.8,6.7,8.5,6.8,8.5.3.3.3.8,0,1.1-.1.1-.3.2-.5.2Z"/>
  <path class="cls-1" d="M173.1,202.1c-.3,0-.5-.1-.6-.4-.2-.4,0-.8.3-1,7.1-4.1,7.2-16,7.2-16.1,0-.4.3-.7.8-.7h0c.4,0,.7.3.7.8,0,.5-.2,12.9-8,17.4-.1,0-.2.1-.4.1Z"/>
  <path class="cls-1" d="M163.3,173.6c-.3,0-.6-.2-.7-.5l-8.9-32.1c-.2-.9-1.1-1.6-2-1.6h-6.7c0,0,0,0,0,0-.4,0-.7-.3-.8-.7,0-.4.3-.8.7-.8h6.7c0,0,0,0,0,0,1.6,0,3,1.1,3.4,2.7l8.9,32c.1.4-.1.8-.5.9,0,0-.1,0-.2,0Z"/>
  <g>
    <path class="cls-3" d="M124.8,105.3c-9,.9-5.2,11.6.2,11.6s7.7-3.3,7.6-5.8c-.2-3.5-1.7-6.4-7.8-5.8Z"/>
    <path class="cls-1" d="M125,117.6c-3.5,0-6.2-3.7-6.4-7-.1-2.6,1.4-5.6,6.1-6.1h0c3-.3,5.2.2,6.6,1.5,1.3,1.1,1.9,2.8,2,5,0,1.5,0,3.2-1.3,4.5-1.3,1.4-3.6,2.1-7,2.1ZM124.9,106h0c-3.1.3-4.8,1.9-4.7,4.5.1,2.6,2.3,5.6,4.9,5.6s4.9-.5,6-1.6c.8-.9,1-2,.9-3.4,0-1.8-.6-3.1-1.5-4-1.1-1-3-1.3-5.5-1.1Z"/>
  </g>
  <g>
    <path class="cls-3" d="M130.5,125.2c-4.2,3.1,2.6,7.8,4.8,5.4s-.3-8.7-4.8-5.4Z"/>
    <path class="cls-1" d="M133.6,132c-.5,0-.9,0-1.4-.2-1.7-.5-3.5-2-3.8-3.8-.2-1.3.4-2.5,1.6-3.4h0c2.1-1.5,4.2-1.4,5.6.2,1.4,1.6,1.8,4.6.2,6.3-.6.6-1.3.9-2.2.9ZM130.9,125.8h0c-.8.6-1.1,1.2-1,1.9.2,1,1.4,2.2,2.8,2.6.4.1,1.5.4,2.1-.3.9-1,.8-3.1-.2-4.3-.9-1-2.2-1-3.6,0Z"/>
  </g>
  <path class="cls-2" d="M160.4,61.9c0,8.3-2.8,15.9-7.4,22-.2.3-.4.6-.7.8-.2.3-.5.6-.7.8-6.7,7.8-16.6,12.7-27.6,12.7s-15.8-2.7-21.8-7.3c-.3-.2-.5-.4-.8-.6s-.5-.4-.8-.6c-7.9-6.7-13-16.7-13-27.8,0-20.1,16.3-36.4,36.4-36.4s36.4,16.3,36.4,36.4Z"/>
  <path class="cls-3" d="M152.3,84.8c-6.7,8.2-16.8,13.5-28.3,13.5s-16.4-3-22.6-7.9l-3.5-49,50-3.9,4.3,47.3Z"/>
  <path class="cls-1" d="M153,83.9c-.2.3-.4.6-.7.8-.2.3-.5.6-.7.8l-4.3-47.3-48.6,3.8,3.5,48.9c-.3-.2-.5-.4-.8-.6s-.5-.4-.8-.6l-3.4-48.3c0-.4.3-.8.7-.8l50-3.9c.4,0,.8.3.8.7l4.3,46.5Z"/>
  <path class="cls-1" d="M111.8,45.2c-3-.6-2.7,2.4-1.9,3.2,0,0-3.3.9-1.3,4.8l6-.4s.4-2.8-1.5-4.4c0,0,2.3-2.5-1.4-3.2h0Z"/>
  <g>
    <path class="cls-3" d="M119.9,59c-1.8,2.3-4.7,3.8-8,3.8s-4.4-.7-6-1.9c-.1,0-.3-.1-.4-.2-.2,0-.4-.1-.7-.1,1-1.1,2.9-2.2,3.6-2.7.9-.6.3-3.3.3-3.3,0,0-1,.3-1.2-.8-.2-1.1.8-1,.8-1,0,.3.4.7.4.5,0-.2.2-.6.6-.9.4-.3,1.2-1.5,1.2-1.5.3,1.7,2,1.6,2,1.6-.5,0-1.1-1.2-1.2-1.3.1.2,2.2.9,2.4,1,.2,0,.2.6.3.6.1,0,0-.1.2-.5.2-.3,1.2,0,1.1.8,0,.8-.9.6-.9.6-.2,2.3,1.1,3.3,1.1,3.3,1.7,0,3.6,1.3,4.3,1.9Z"/>
    <path class="cls-1" d="M111.9,63c-2.2,0-4.4-.7-6.1-2,0,0-.2,0-.3-.2h0c-.1-.1-.3-.2-.6-.2,0,0-.1,0-.2-.1,0,0,0-.1,0-.2.8-.9,2.2-1.7,3-2.3.3-.2.5-.3.6-.4.6-.4.4-2.1.2-2.9-.2,0-.4,0-.7-.2-.3-.2-.4-.4-.5-.8,0-.4,0-.7.2-.9.3-.3.8-.3.8-.3,0,0,.2,0,.2.2,0,0,0,0,0,.2.1-.2.3-.5.6-.7.3-.2.9-1.1,1.2-1.4,0,0,.1,0,.2,0,0,0,.1,0,.1.1.2.9.7,1.2,1.1,1.4-.4-.4-.6-.9-.6-.9,0,0,0-.2,0-.2s.2,0,.2,0c.2.1,2.1.8,2.3.9.2,0,.3.2.3.4,0,0,0,0,0-.1.1-.2.4-.2.7-.1.4.1.8.5.7,1.1,0,.3-.1.5-.3.6-.2.1-.4.2-.6.2h0c0,1.8.8,2.7,1,2.9,1.8,0,3.7,1.4,4.4,1.9,0,0,0,.2,0,.3-1.9,2.4-4.9,3.8-8.1,3.8h0ZM105.2,60.4c.1,0,.3,0,.4.1h0c.1.1.3.2.3.2,1.7,1.2,3.8,1.9,5.9,1.9s5.9-1.3,7.7-3.6c-.8-.6-2.5-1.8-4.1-1.8s0,0-.1,0c0,0-1.4-1.1-1.2-3.5,0,0,0-.1,0-.1,0,0,0,0,.1,0,0,0,.3,0,.5,0,.1,0,.2-.2.2-.4,0-.4-.2-.6-.5-.7-.2,0-.3,0-.3,0,0,.1-.1.2-.1.3,0,0,0,.3-.3.3-.2,0-.2-.2-.3-.4,0,0,0-.2,0-.2-.2,0-1.2-.4-1.8-.6.2.3.5.6.7.6,0,0,.2,0,.2.2,0,0,0,.2-.2.2,0,0-1.6.1-2.1-1.4-.3.4-.7,1-1,1.2-.4.2-.5.6-.5.7,0,.1,0,.2,0,.2,0,0-.1,0-.2,0-.1,0-.3-.3-.4-.5-.1,0-.3,0-.4.2-.1.1-.1.3,0,.6,0,.3.2.5.4.6.3.2.6,0,.6,0,0,0,0,0,.1,0,0,0,0,0,0,.1,0,.3.7,2.8-.3,3.5-.2.1-.4.3-.6.4-.8.5-1.9,1.2-2.7,2h0ZM113.7,52.3s0,0,0,0c0,0,0,0,0,0Z"/>
  </g>
  <path class="cls-1" d="M111.5,60.1c-2.4,0-3.3-2-3.3-2.1,0,0,0-.2,0-.2s.2,0,.2,0c0,0,1,2.3,3.9,1.8,2.8-.6,3.1-2.5,3.1-2.6,0-.1.1-.2.2-.2.1,0,.2.1.2.2,0,0-.4,2.3-3.4,2.9-.3,0-.7.1-.9.1h0Z"/>
  <path class="cls-1" d="M125.9,50.2c-.4,0-.7-.3-.7-.7,0-.4.3-.8.7-.8l14.4-1.2c.4,0,.8.3.8.7,0,.4-.3.8-.7.8l-14.4,1.2s0,0,0,0Z"/>
  <path class="cls-1" d="M137.1,58.3h-11.1c-.4,0-.8-.3-.8-.8s.3-.8.8-.8h11.1c.4,0,.8.3.8.8s-.3.8-.8.8Z"/>
  <path class="cls-1" d="M107.6,70.5c-.4,0-.7-.3-.7-.7,0-.4.3-.8.7-.8l36.4-3c.4,0,.8.3.8.7,0,.4-.3.8-.7.8l-36.4,3s0,0,0,0Z"/>
  <path class="cls-1" d="M108.4,79.2c-.4,0-.7-.3-.7-.7,0-.4.3-.8.7-.8l15.7-1.6c.4,0,.8.3.8.7,0,.4-.3.8-.7.8l-15.7,1.6s0,0,0,0Z"/>
  <path class="cls-1" d="M109.8,87.4c-.4,0-.7-.3-.7-.7,0-.4.3-.8.7-.8l28.7-1.7c.4,0,.8.3.8.7,0,.4-.3.8-.7.8l-28.7,1.7s0,0,0,0Z"/>
  <path class="cls-1" d="M187,154.7s0,0,0,0c-.4,0-.7-.4-.7-.8.1-1,2.8-24.8,4.9-29.2.2-.4.6-.5,1-.4.4.2.5.6.4,1-2,4.2-4.7,28.5-4.8,28.8,0,.4-.4.7-.7.7Z"/>
  <circle class="cls-1" cx="196.2" cy="135.5" r="1.1"/>
  <circle class="cls-1" cx="144" cy="148.3" r="1.5"/>
  <circle class="cls-1" cx="195.1" cy="148.3" r="1.1"/>
  <path class="cls-1" d="M200.8,64s6.7-6.2,13.2,2.7c6.5,9,3,16.3,3,19.3,0,3,1.9,8.9,7.2,11.6s-.7,7.6-.5,10c.2,2.3,8.7,7,5.2,14.3-3.4,7.3-13.3,11-23.6,2.2l-29-9.2s-5.9,4.8-11.5,2.7c-5.6-2.1-7.1-7.9-3.2-10.5s10.8-3.7,8-6.7c-2.8-3-9.7-6.1-5.5-11.9,4.1-5.8,10.6-2.9,11.9-6.2,1.2-3.3-5.5-15.8,6.5-21.4s18.6,3,18.6,3Z"/>
  <g>
    <path class="cls-3" d="M199.9,71.5s-6.9,6.2-12.2,8.2-8.3,4.9-8.5,7.1c-.2,2.1-1.3-3.2-1.4-3.4s-4.9.2-4.6,4.6c.3,4.3,2.1,5.3,5.4,4,0,0,.3,2.4,2.7,5.8,2.5,3.4.2,11.6-4.4,16.4,0,0,6.2,14.8,28.8,9.5,0,0-1.2-6.8,2.7-9.3,4-2.5.8-5.2,0-6.7s-2.7-6.2-.3-9.3,1.1-2.2.8-3.4v-.2s2.2,2.1,4.1,1.5c3.2-1,4.2-8.1,1.1-8.9-3.4-.9-3.5,1.9-3.5,1.9,0,0-.6-1.6-1.4-3.7-.8-2.1-6.9-4.5-7.6-8.9-.7-4.4-1.7-5.2-1.7-5.2Z"/>
    <path class="cls-1" d="M196.7,125.7c-6.7,0-11.3-2-14.2-4.1-4.5-3.1-6.1-6.9-6.2-7-.1-.3,0-.6.2-.8,4.4-4.4,6.6-12.4,4.4-15.4-1.7-2.3-2.4-4.2-2.7-5.3-1.5.4-2.7.3-3.6-.2-1.2-.8-1.8-2.3-2-4.7-.2-2.4,1.1-4.3,3.5-5.1.9-.3,2.1-.6,2.5,0,0,.1.1.2.3.9,0,.2.2.7.3,1.1,1.2-2.2,4.3-4.5,8.4-6,5.1-1.9,11.9-8,12-8.1.3-.3.7-.3,1,0,.2.2,1.2,1.3,2,5.7.4,2.4,2.8,4.2,4.7,5.7,1.4,1.1,2.6,2,2.9,3,.3.8.5,1.5.7,2.1,0,0,.2-.2.3-.3.8-.6,1.9-.7,3.3-.4,1.5.4,2.4,1.8,2.4,3.9,0,2.6-1.2,5.7-3.5,6.5-1.3.4-2.6,0-3.5-.6,0,.9-.4,1.7-1,2.5-2,2.7-.4,7.1.4,8.5.1.2.3.5.5.8.7,1,1.7,2.4,1.4,4-.2,1.1-1,2-2.2,2.8-3.5,2.2-2.4,8.4-2.4,8.5,0,.4-.2.8-.6.9-3.4.8-6.5,1.1-9.2,1.1ZM177.8,114.4c1.2,2.4,7.9,13,27.1,8.8-.2-1.9-.4-7,3.2-9.3.9-.6,1.4-1.2,1.6-1.8.2-1-.6-2-1.2-2.9-.2-.3-.5-.7-.6-1-1.1-2.1-2.6-7-.2-10.1.6-.9.9-1.8.7-2.8v-.2c-.1-.3,0-.6.3-.8s.6-.1.9,0c.5.5,2.2,1.7,3.4,1.3,1.5-.5,2.5-3,2.5-5,0-.6-.2-2.2-1.3-2.5-.6-.2-1.5-.3-2,.1-.5.4-.6,1.1-.6,1.1,0,.4-.3.6-.6.7-.3,0-.7-.2-.8-.5,0,0-.6-1.6-1.3-3.7-.2-.6-1.3-1.5-2.5-2.4-2.1-1.6-4.7-3.7-5.2-6.7-.4-2.3-.8-3.6-1.2-4.2-1.9,1.6-7.3,6.1-11.8,7.8-5.1,1.9-7.9,4.7-8,6.4,0,.3,0,1.1-.8,1.2-.8,0-1.1-.6-1.9-3.8,0,0,0,0,0,0-.6.1-1.7.4-2.5,1.2-.6.7-.9,1.5-.9,2.6.1,1.9.6,3.1,1.3,3.5.7.4,1.7.4,3.1-.2.2,0,.5,0,.7,0,.2.1.3.3.4.6,0,0,.3,2.3,2.6,5.5,2.6,3.6.6,11.9-4.2,17Z"/>
  </g>
  <path class="cls-1" d="M195.6,99.8c-.3,0-.6-.2-.7-.5,0-.1-1.1-2.8-3.8-2.9-2.7-.1-3.9,2.1-3.9,2.2-.2.4-.6.5-1,.3s-.5-.6-.3-1c0-.1,1.6-3.1,5.3-3,3.7.1,5.1,3.7,5.2,3.9.1.4,0,.8-.4,1,0,0-.2,0-.3,0Z"/>
  <circle class="cls-1" cx="185.8" cy="84.6" r="1.7"/>
  <circle class="cls-1" cx="200.6" cy="86.7" r="1.7"/>
</svg>