<?xml version="1.0" encoding="UTF-8"?>
<svg id="Layer_1" data-name="Layer 1" xmlns="http://www.w3.org/2000/svg" version="1.1" viewBox="0 0 346 233.7">
  <defs>
    <style>
      .cls-1 {
        fill: #fac92d;
      }

      .cls-1, .cls-2, .cls-3, .cls-4 {
        stroke-width: 0px;
      }

      .cls-2 {
        fill: #000;
      }

      .cls-3 {
        fill: #fac82f;
      }

      .cls-4 {
        fill: #fff;
      }
    </style>
  </defs>
  <g>
    <path class="cls-4" d="M119,97.3s-30.8,9.2-33.1,35.5,16.7,41.1,37.5,45.7,38.5-7.5,43.9-12.3,21.1-21.7,29.2-24.6c8.1-2.9,15.6-2,16.2-4,.6-1.9-1.7-4.1-3.5-4,0,0,3.4-.3,3.6-2s-3.9-3.4-3.9-3.4c0,0,4.6-.3,4.7-1.1.2-2.9-2-3.9-6.2-3.9s-33.2-.9-33.2-.9c0,0-6.5-19.6-22.2-21.8-15.7-2.2-32.9-3.2-32.9-3.2Z"/>
    <path class="cls-2" d="M132.8,180.3c-3.1,0-6.3-.3-9.6-1-20-4.4-40.5-18.9-38.1-46.5,2.3-26.6,33.3-36.1,33.6-36.2,0,0,.2,0,.3,0,.2,0,17.4,1,33,3.2,6.7.9,12.7,5.1,17.5,12,3,4.3,4.6,8.4,5.1,9.8,3.9.1,28.9.9,32.7.9s5,.5,6.1,1.7c.7.8,1,1.8.9,3,0,.4,0,1.1-2.6,1.5,1,.7,1.9,1.7,1.8,3,0,1.1-.9,1.7-1.8,2.1.3.3.6.6.9.9.8,1,1.1,2.2.8,3.2-.4,1.4-2.5,1.7-5.9,2.2-2.9.4-6.8.9-10.7,2.3-5.9,2.1-16.4,12.4-23.4,19.1-2.3,2.2-4.3,4.2-5.6,5.3-1.8,1.6-16,13.5-34.9,13.5ZM119.1,98.1c-2.1.7-30.3,10.1-32.4,34.8-2.3,26.6,17.6,40.6,36.9,44.9,22.9,5,41.2-10.3,43.2-12.1,1.3-1.2,3.3-3.1,5.6-5.3,7-6.9,17.6-17.2,23.9-19.5,4.1-1.5,8.1-2,11.1-2.4,1.9-.2,4.5-.6,4.6-1.1.2-.6,0-1.2-.5-1.9-.6-.8-1.5-1.3-2.2-1.2-.4,0-.8-.3-.8-.7s.3-.8.7-.8c.9,0,2.8-.5,2.9-1.4.1-1.4-2.4-2.4-3.4-2.6-.4,0-.6-.4-.6-.8,0-.4.3-.7.7-.7,1.7,0,3.5-.4,4-.6,0-.7-.1-1.3-.5-1.7-.7-.8-2.4-1.2-4.9-1.2-4.1,0-32.9-.9-33.2-.9-.3,0-.6-.2-.7-.5,0-.2-6.5-19.2-21.6-21.3-14.8-2-31.1-3.1-32.7-3.2Z"/>
  </g>
  <polygon class="cls-1" points="219.1 180.1 219.1 187.2 236.7 187.2 236.7 179.5 219.1 180.1"/>
  <path class="cls-2" d="M219.7,177.7c-.3,0-.6-.2-.7-.5-.3-1.2-6.5-16.9-9.7-25-.2-.4,0-.8.4-1,.4-.2.8,0,1,.4.4,1,9.3,23.7,9.8,25.2.1.4-.1.8-.5.9,0,0-.1,0-.2,0Z"/>
  <path class="cls-2" d="M227,176.2c-.4,0-.7-.3-.7-.7-.2-3,2.5-36.2,2.6-37.6,0-.4.4-.7.8-.7.4,0,.7.4.7.8,0,.3-2.8,34.5-2.6,37.4,0,.4-.3.8-.7.8,0,0,0,0,0,0Z"/>
  <path class="cls-2" d="M235.8,177.7c-.4,0-.8-.3-.8-.8,0-4.9,16.5-47.5,17.2-49.3.1-.4.6-.6,1-.4.4.1.6.6.4,1-4.8,12.3-17.1,44.9-17.1,48.8s-.3.8-.8.8Z"/>
  <g>
    <polygon class="cls-4" points="163.9 34.7 165.8 100.8 256.5 98.6 254.4 33.6 163.9 34.7"/>
    <path class="cls-2" d="M165.8,101.5c-.4,0-.7-.3-.7-.7l-1.9-66.1c0-.2,0-.4.2-.5s.3-.2.5-.2l90.4-1.1h0c.4,0,.7.3.7.7l2.2,65c0,.2,0,.4-.2.5-.1.1-.3.2-.5.2l-90.7,2.1h0ZM164.7,35.4l1.8,64.6,89.2-2.1-2.1-63.6-88.9,1.1Z"/>
  </g>
  <path class="cls-2" d="M262.5,36.6c-.1,0-.2,0-.3,0-.4-.2-.5-.6-.4-1l4.9-10.2c.2-.4.6-.5,1-.4.4.2.5.6.4,1l-4.9,10.2c-.1.3-.4.4-.7.4Z"/>
  <path class="cls-2" d="M267.4,41c-.2,0-.4,0-.5-.2-.3-.3-.3-.8,0-1.1l9.2-8.7c.3-.3.8-.3,1.1,0,.3.3.3.8,0,1.1l-9.2,8.7c-.1.1-.3.2-.5.2Z"/>
  <path class="cls-2" d="M268.5,46.9c-.3,0-.6-.2-.7-.5-.1-.4,0-.8.4-1l12.1-4.6c.4-.1.8,0,1,.4.1.4,0,.8-.4,1l-12.1,4.6c0,0-.2,0-.3,0Z"/>
  <g>
    <rect class="cls-4" x="207.8" y="185.3" width="39.8" height="12.4"/>
    <path class="cls-2" d="M247.5,198.4h-39.8c-.4,0-.8-.3-.8-.8v-12.4c0-.4.3-.8.8-.8h39.8c.4,0,.8.3.8.8v12.4c0,.4-.3.8-.8.8ZM208.5,196.9h38.3v-10.9h-38.3v10.9Z"/>
  </g>
  <g>
    <polygon class="cls-4" points="173.4 43.9 174.7 109.9 262.5 109.9 262.5 43.9 173.4 43.9"/>
    <path class="cls-2" d="M262.5,110.6h-87.8c-.4,0-.7-.3-.8-.7l-1.3-66c0-.2,0-.4.2-.5.1-.1.3-.2.5-.2h89.1c.4,0,.8.3.8.8v66c0,.4-.3.8-.8.8ZM175.4,109.1h86.3V44.6h-87.6l1.3,64.5Z"/>
  </g>
  <path class="cls-2" d="M130.4,151.4c-3.7,0-6.8-1-9-3.1-4.1-3.8-4.1-9.6-4.1-9.9,0-.4.4-.7.8-.7.4,0,.7.3.7.8,0,0,0,5.4,3.6,8.7,2.4,2.2,5.8,3,10.2,2.6,15.3-1.6,29-7.8,34.1-10.9,4.4-2.7,7.8-6,8.2-8,0-.4,0-.7-.1-.9-1.5-2.1-4.4-2.5-5.7-2.6-1.6-.1-4.4-1.3-5.2-2.9-.3-.7-.3-1.3,0-1.9,1.2-1.8,7.5-1.3,10.2-1,.4,0,.7.4.7.8,0,.4-.4.7-.8.7-4.2-.5-8.3-.4-8.8.3,0,.1-.1.2,0,.5.5.9,2.6,1.9,3.9,2,1.4.1,5,.6,6.8,3.2.4.6.5,1.3.4,2.1-.5,2.5-4,6-8.9,9-5.2,3.1-19.1,9.5-34.7,11.1-.8,0-1.6.1-2.3.1Z"/>
  <path class="cls-2" d="M210,128.9h0l-15.4-.3c-.4,0-.7-.3-.7-.8,0-.4.3-.7.7-.7h0l15.4.3c.4,0,.7.3.7.8,0,.4-.3.7-.7.7Z"/>
  <path class="cls-2" d="M210,134.5h0l-15.9-.4c-.4,0-.7-.4-.7-.8,0-.4.4-.7.8-.7l15.9.4c.4,0,.7.4.7.8,0,.4-.3.7-.7.7Z"/>
  <path class="cls-2" d="M178.9,154.2c-9.6,0-13.7-13.6-13.8-13.7-.1-.4.1-.8.5-.9.4-.1.8.1.9.5,0,.1,4.4,14.5,14.2,12.5.4,0,.8.2.9.6,0,.4-.2.8-.6.9-.8.2-1.5.2-2.2.2Z"/>
  <g>
    <polygon class="cls-4" points="182.1 53.5 271.9 52.8 271.9 117.8 183.5 118.9 182.1 53.5"/>
    <path class="cls-2" d="M183.5,119.6c-.4,0-.7-.3-.8-.7l-1.4-65.3c0-.2,0-.4.2-.5.1-.1.3-.2.5-.2l89.7-.7c.2,0,.4,0,.5.2.1.1.2.3.2.5v65c0,.4-.3.7-.7.8l-88.4,1h0ZM182.9,54.3l1.4,63.8,86.9-1v-63.5l-88.2.7Z"/>
  </g>
  <path class="cls-2" d="M203.4,70.3h-14.5c-.4,0-.8-.3-.8-.8v-10.4c0-.4.3-.8.8-.8h14.5c.4,0,.8.3.8.8v10.4c0,.4-.3.8-.8.8ZM189.7,68.8h13v-8.9h-13v8.9Z"/>
  <path class="cls-2" d="M203.4,85.4h-14.5c-.4,0-.8-.3-.8-.8v-10.4c0-.4.3-.8.8-.8h14.5c.4,0,.8.3.8.8v10.4c0,.4-.3.8-.8.8ZM189.7,83.9h13v-8.9h-13v8.9Z"/>
  <rect class="cls-3" x="211.4" y="59.2" width="27" height="25.5"/>
  <path class="cls-2" d="M265.3,114.6h-21.8c-.4,0-.8-.3-.8-.8v-54.6c0-.4.3-.8.8-.8h21.8c.4,0,.8.3.8.8v54.6c0,.4-.3.8-.8.8ZM244.2,113.1h20.3v-53.1h-20.3v53.1Z"/>
  <rect class="cls-2" x="190.7" y="96.2" width="8.2" height="16.4"/>
  <rect class="cls-1" x="203.4" y="88.9" width="8" height="23.7"/>
  <rect class="cls-2" x="215.1" y="101.6" width="7.7" height="11"/>
  <rect class="cls-1" x="227.6" y="96.2" width="7.7" height="16.4"/>
  <path class="cls-2" d="M256.5,71.7h-8.9c-.4,0-.8-.3-.8-.8s.3-.8.8-.8h8.9c.4,0,.8.3.8.8s-.3.8-.8.8Z"/>
  <path class="cls-2" d="M256.5,83h-8.9c-.4,0-.8-.3-.8-.8s.3-.8.8-.8h8.9c.4,0,.8.3.8.8s-.3.8-.8.8Z"/>
  <path class="cls-2" d="M256.1,102.9h-8.9c-.4,0-.8-.3-.8-.8s.3-.8.8-.8h8.9c.4,0,.8.3.8.8s-.3.8-.8.8Z"/>
  <path class="cls-2" d="M259.6,94.3h-11.9c-.4,0-.8-.3-.8-.8s.3-.8.8-.8h11.9c.4,0,.8.3.8.8s-.3.8-.8.8Z"/>
  <path class="cls-2" d="M213.6,78.7c0,0-.2,0-.2,0-.4-.1-.6-.6-.5-.9.4-1.2,3.9-11.6,8.6-11.3,2.7.2,3.6,3.1,4.4,5.4.3,1.1.8,2.5,1.3,2.7,0,0,.1,0,.3,0,2.2-.8,5.4-6.6,6.5-8.8.2-.4.6-.5,1-.3.4.2.5.6.3,1-.4.9-4.2,8.4-7.3,9.6-.7.2-1.2.1-1.5,0-1-.5-1.5-2-2-3.6-.8-2.5-1.5-4.3-3-4.4-2.6-.2-5.7,6.2-7,10.3-.1.3-.4.5-.7.5Z"/>
  <path class="cls-2" d="M132.8,51.4c-20.3,1.5-19.1,21.9-19.1,21.9,0,0-.8,18.5-16.2,25.9,0,0,13,18,18.9,2.1h37.2s6.3,7.1,12.6-.9c0,0-10.5-11.2-11.9-19.6-1.3-8.5-3.7-30.7-21.5-29.3Z"/>
  <g>
    <path class="cls-4" d="M112.8,72.6c-2.2,0-4.1,1-4.8,3.3-.6,2-.3,4.6.1,6.6.4,1.8,1.4,3.2,3.3,3.5,1.4.2,2.9,0,4.2-.5,0,0,1.9,10.2.8,14.2,0,0,17.6,22.2,37.3,1.1,0,0-.7-1.2-.7-1.2-.6-1.1-1.1-2.2-1.6-3.4-1.3-3.4-1.9-7-1.2-10.6,0,0,0-.2,0-.2.9.3,1.9.5,2.8.4,1.5-.2,2.8-1.3,3.5-2.7s.9-2.9,1-4.4c0-1.6-.1-3.4-1.3-4.4-1-.8-2.4-1-3.7-.7-.5.1-1.1.3-1.3.8-.4.6,0,1.5-.2,2.2-.2.7-1.7-.3-1.6-1,0-1.1-8.3-15.7-12.4-15.6,0,0,.6,4.3,0,4.2s-3.6-5-4.2-4.7-3.7,5.2-8.7,8.4c-4.9,3.2-6.7,4.6-7,6.9-.3,2.4-.4,3.1-.4,3.1,0,0-1.1-.8-1.3-2.2-.2-1.4.8-2.9-2.5-2.9Z"/>
    <path class="cls-2" d="M135.8,110.6c-.3,0-.5,0-.8,0-11.2-.5-18.9-10.1-19.2-10.5-.1-.2-.2-.4-.1-.7.8-3.2-.3-10.6-.7-13.1-1.1.3-2.4.5-3.7.3-2-.3-3.4-1.8-3.9-4.1-.3-1.5-.8-4.5-.1-7,.7-2.4,2.7-3.8,5.5-3.8s2.2.2,2.7.8c.6.6.5,1.4.5,2,0,.3,0,.5,0,.8,0,.1,0,.2,0,.3,0-.4.1-.8.2-1.3.4-2.7,2.3-4.2,7.3-7.5,3.6-2.3,6.2-5.5,7.6-7.2.7-.8.9-1.1,1.2-1.2.9-.5,1.6.5,3.3,2.8.2.3.5.6.7,1,0-.7-.1-1.6-.2-2.4,0-.2,0-.4.2-.6.1-.2.3-.3.6-.3,1.2,0,2.7.9,4.5,2.8,3.7,3.9,8.7,12.3,8.6,13.6,0,0,.1.1.2.2,0,0,0-.2,0-.2,0-.5,0-1.1.3-1.6.3-.6.9-.9,1.8-1.1,1.7-.3,3.3,0,4.3.9,1.2,1,1.7,2.7,1.6,5,0,1.2-.2,3.1-1.1,4.7-.9,1.7-2.4,2.8-4,3.1-.8.1-1.6,0-2.3-.2-.5,3,0,6.2,1.3,9.6.4,1.1,1,2.3,1.5,3.3v.2c.9,1.2,1,1.5.6,1.9-5.8,6.2-12,9.4-18.5,9.4ZM117.2,99.5c1.3,1.6,8.4,9.2,17.9,9.6,6.2.2,12.1-2.6,17.8-8.5-.1-.2-.2-.3-.3-.5,0-.2-.2-.3-.2-.3-.6-1.1-1.2-2.3-1.6-3.5-1.5-3.9-1.9-7.6-1.3-11v-.2c0-.2.2-.4.4-.5s.4-.1.6,0c.9.3,1.7.4,2.5.3,1.1-.2,2.3-1,2.9-2.3.5-1,.8-2.3.9-4.1,0-1.9-.3-3.1-1.1-3.8-.7-.6-1.8-.8-3-.6-.6.1-.8.3-.8.4-.1.2,0,.5,0,.8,0,.4,0,.8,0,1.2-.2.6-.7.9-1.3.8-.8-.1-1.9-1-1.8-2,0-.5-2-4.1-4.7-8-2.4-3.5-4.6-5.8-6.1-6.6.4,3.2,0,3.5-.3,3.7-.2.2-.5.3-.8.2-.5-.1-.9-.6-2.2-2.4-.5-.6-1.2-1.6-1.6-2.1-.1.2-.3.4-.5.6-1.3,1.6-4.1,5-7.9,7.5-4.9,3.2-6.4,4.4-6.7,6.4-.3,2.4-.4,3.1-.4,3.1,0,.3-.2.5-.5.6-.2,0-.5,0-.7,0,0,0-1.3-1-1.6-2.7,0-.4,0-.8,0-1.1,0-.4,0-.7,0-.9,0,0-.4-.3-1.6-.3s-3.4.4-4,2.7c-.6,2.2-.2,4.8.1,6.3.4,1.7,1.3,2.7,2.7,3,1.4.2,2.8-.2,3.8-.5.2,0,.4,0,.6,0,.2.1.3.3.4.5,0,.4,1.8,9.8.9,14.2Z"/>
  </g>
  <ellipse class="cls-2" cx="128.6" cy="77.1" rx="1.8" ry="1.6"/>
  <ellipse class="cls-2" cx="141.7" cy="76.3" rx="1.8" ry="1.6"/>
  <path class="cls-2" d="M112.8,82.5c-.5,0-1.2,0-1.8-.6-.6-.5-.9-1.3-.9-2.2s.3-1.7.9-2.3c.9-.8,2.1-.7,2.2-.7.4,0,.7.4.7.8,0,.4-.4.7-.8.7,0,0-.6,0-1,.3-.2.2-.4.6-.4,1.1s.1.9.4,1.1c.3.3.8.3,1,.3.4,0,.8.2.8.6,0,.4-.2.8-.6.8,0,0-.2,0-.4,0Z"/>
  <path class="cls-2" d="M152.9,82.4c-.2,0-.4,0-.4,0-.4,0-.7-.4-.6-.9s.4-.7.9-.6c.2,0,.7,0,1-.3.2-.2.4-.6.4-1.1s-.1-.9-.4-1.1c-.4-.3-1-.3-1-.3-.4,0-.8-.2-.8-.7,0-.4.2-.8.7-.8.1,0,1.3-.1,2.2.7.6.5.9,1.3.9,2.3s-.3,1.7-.9,2.2c-.6.5-1.4.6-1.8.6Z"/>
  <path class="cls-2" d="M135.9,89.6c-3.8,0-5.2-3.7-4.8-6.1s.3-.5.6-.4c1,.3,3.4.9,4.7.7,1.1-.2,2.5-.7,3.3-1.1s.7,0,.7.4c0,1.8,0,6.5-4.5,6.4Z"/>
</svg>