<?xml version="1.0" encoding="utf-8"?>
<!-- Generator: Adobe Illustrator 27.1.1, SVG Export Plug-In . SVG Version: 6.00 Build 0)  -->
<svg version="1.1" id="Layer_1" xmlns="http://www.w3.org/2000/svg" xmlns:xlink="http://www.w3.org/1999/xlink" x="0px" y="0px"
	 viewBox="0 0 291 220" style="enable-background:new 0 0 291 220;" xml:space="preserve">
<style type="text/css">
	.st0{fill:#FFFFFF;}
	.st1{fill:#C4C4C4;}
</style>
<g>
	<g>
		<path class="st0" d="M88.43,84.59l1.82-0.87l16.19,3.98l20.49,18.39l7.61-2.04l9.97-10.4c0,0,17.99,0.06,26.2,7.42
			c0.62,0.01,5.23,2.99,7.56,6.16s3.98,4.34,6.27,7.97c2.29,3.63,4.89,7.61,6.27,11.44c1.38,3.83,4.06,11.6,4.73,14.32
			c0.67,2.72,1.41,8.28,1.41,8.28l-15.1,34.65H68.41L88.43,84.59z"/>
		<g id="ylUHV0.tif_00000011714004056598295810000017454836047818533271_">
			<g>
				<g>
					<path d="M146.64,179.35c-0.58,0-1.16,0-1.75,0c-0.05,0.09-0.1,0.18-0.15,0.27c0.39,0.31,0.77,0.66,1.19,0.93
						c5.7,3.77,11.02,7.99,15.35,13.31c1.69,2.07,3.04,4.42,4.54,6.64c0.04,0.06,0.09,0.12,0.09,0.18c0.02,0.69,0.31,1.66-0.03,2
						c-0.35,0.36-1.4,0.33-1.99,0.09c-1.49-0.62-2.89-1.44-4.32-2.2c-0.65-0.35-1.28-0.74-1.92-1.11c-0.07,0.07-0.14,0.13-0.21,0.2
						c0.36,0.55,0.74,1.09,1.06,1.66c1.19,2.13,2.4,4.25,3.49,6.42c0.21,0.43,0.14,1.43-0.13,1.57c-0.48,0.26-1.33,0.3-1.8,0.03
						c-1.87-1.02-3.69-2.15-5.45-3.34c-1.4-0.94-2.7-2.04-4.04-3.06c-0.26-0.19-0.53-0.36-0.8-0.54c-0.07,0.06-0.14,0.12-0.21,0.18
						c0.48,0.92,1.01,1.82,1.43,2.77c0.47,1.03,0.95,2.08,1.21,3.17c0.12,0.49-0.13,1.22-0.47,1.62c-0.2,0.23-1.01,0.2-1.37-0.01
						c-1.81-1.05-3.57-2.19-5.32-3.33c-0.94-0.61-1.84-1.28-2.94-1.77c0.29,0.78,0.59,1.56,0.87,2.35c0.12,0.35,0.25,0.72,0.28,1.09
						c0.08,1.21-0.55,1.71-1.65,1.21c-2.25-1.02-4.52-2.02-6.67-3.23c-4.54-2.55-9-5.23-13.91-7.03c-4.03-1.48-8.16-2.49-12.4-3.14
						c-7.29-1.11-14.63-1.48-21.98-1.68c-7.37-0.21-14.75-0.35-22.12-0.58c-3.13-0.1-6.27-0.28-9.29-1.28
						c-3.93-1.3-6.9-3.82-9.22-7.16c-0.73-1.05-1.39-2.14-2-3.26c-0.33-0.6-0.69-0.73-1.33-0.64c-1.43,0.21-2.87,0.42-4.32,0.47
						c-0.99,0.04-2.01-0.09-2.96-0.35c-0.53-0.14-1.12-0.61-1.39-1.09c-1.64-2.93-2.62-6.13-3.28-9.4c-0.3-1.47-0.36-2.99-0.5-4.49
						c-0.22-2.55,0.8-4.64,2.49-6.44c0.71-0.75,1.46-1.49,2.31-2.06c0.81-0.55,1.12-1.17,1.12-2.13c0.02-6.83,1.13-13.52,2.67-20.16
						c1.82-7.84,4.22-15.49,7.59-22.8c3.74-8.12,8.45-15.58,15.35-21.45c5-4.26,10.68-7.13,17.23-8.22c4.98-0.83,9.91-0.7,14.8,0.41
						c4.06,0.92,8.06,2.1,12.1,3.13c0.41,0.1,0.97,0.04,1.32-0.17c1.97-1.21,3.99-2.37,5.79-3.8c0.85-0.68,1.42-1.84,1.85-2.9
						c1.39-3.41,2.65-6.87,3.97-10.31c0.29-0.75-0.26-0.83-0.74-1.05c-1.62-0.73-3.32-1.36-4.82-2.3c-2.26-1.42-3.97-3.38-4.89-5.97
						c-1.77-4.95,2.18-10.4,7.37-10.09c0.74,0.04,1.47,0.28,2.45,0.47c-0.08-1.29-0.06-2.45-0.25-3.58c-0.45-2.7-1.35-5.27-2.62-7.7
						c-2.57-4.93-0.06-9.94,4.01-12.35c3.05-1.8,6.21-1.84,9.37-0.15c0.27,0.14,0.55,0.27,0.87,0.42c0.14-0.23,0.31-0.41,0.39-0.63
						c1.06-2.94,3.29-4.36,6.19-5.22c3.17-0.94,7.54,0.87,9.25,3.73c0.41,0.69,0.4,1.07-0.26,1.61c-1.47,1.22-2.31,2.9-2.9,4.69
						c-0.08,0.25,0.13,0.59,0.21,0.89c0.24-0.19,0.57-0.33,0.72-0.57c0.81-1.31,1.35-2.85,2.39-3.92
						c2.98-3.06,10.46-3.17,13.08,2.89c2.04,4.71,0.72,10.53-3.95,12.82c-0.29,0.14-0.59,0.64-0.59,0.96
						c0.03,4.66,0.04,9.36,1.35,13.86c0.69,2.35,1.95,4.54,3.01,6.78c0.91,1.94,1.82,3.87,1.92,6.06c0.18,4.09-2.11,6.75-5.35,8.66
						c-2.99,1.77-6.34,2.09-9.73,1.49c-1.79-0.32-3.52-0.93-5.28-1.41c-0.19-0.05-0.39-0.08-0.62-0.12
						c-0.07,0.17-0.17,0.29-0.16,0.41c0.04,2.52,0.04,5.04,0.19,7.55c0.04,0.63,0.54,1.28,0.96,1.82c0.32,0.43,0.89,0.67,1.26,1.07
						c1.67,1.81,3.68,2.2,6.12,2.18c11.61-0.1,21.39,4.33,29.57,12.45c6.21,6.17,10.64,13.51,14.07,21.5
						c2.65,6.17,4.49,12.58,5.59,19.2c0.07,0.42-0.1,0.87-0.16,1.31c-0.09-0.01-0.17-0.01-0.26-0.02c-0.29-1.43-0.57-2.87-0.86-4.3
						c-1.25-6.24-3.23-12.25-5.9-18.03c-3.28-7.1-7.41-13.63-12.97-19.18c-5.15-5.13-11.13-8.89-18.17-10.86
						c-4.22-1.18-8.54-1.56-12.92-1.35c-0.69,0.03-0.87,0.33-0.84,0.98c0.25,5.57-0.08,11.12-1.18,16.59
						c-0.3,1.5-0.88,2.98-1.58,4.34c-0.8,1.56-2.21,1.85-3.38,0.59c-1.19-1.29-1.95-1.15-3.44-0.34c-2.82,1.54-5.87,1.3-8.74-0.16
						c-0.72-0.37-1.05-0.21-1.56,0.32c-0.88,0.91-1.79,1.84-2.86,2.5c-1.37,0.85-2.34,0.73-3.28-0.55c-1.48-2.02-2.94-4.11-4-6.36
						c-1.83-3.89-3.44-7.89-4.99-11.91c-1.41-3.66-2.61-7.4-3.89-11.11c-0.23-0.69-0.51-1.23-1.3-1.42
						c-4.49-1.08-8.97-2.17-13.45-3.26c-0.09-0.02-0.2,0.01-0.45,0.03c0.31,0.27,0.5,0.51,0.75,0.65c4.27,2.35,6.84,6.12,8.67,10.47
						c2.74,6.52,3.41,13.41,3.25,20.39c-0.14,5.84-0.82,11.62-1.86,17.38c-1.12,6.18-2.57,12.27-4.41,18.27
						c-0.19,0.61-0.15,0.92,0.5,1.19c1.59,0.64,2.39,1.88,2.19,3.59c-0.17,1.5-0.42,3-0.77,4.47c-0.34,1.44-0.32,1.57,1.1,1.84
						c0.3,0.06,0.6,0.15,0.9,0.23c0.81,0.22,1.45,0.11,2.18-0.46c2.77-2.19,6.04-2.59,9.42-2.2c3.34,0.38,6.5,1.41,9.08,3.65
						c1.22,1.06,2.18,2.43,3.39,3.82 M50.36,146c-0.01-0.15-0.01-0.3-0.02-0.45c0.27-0.07,0.54-0.16,0.82-0.19
						c7.41-0.92,14.75-0.1,22.06,1.06c3.88,0.61,7.73,1.43,11.55,2.32c3.25,0.76,6.46,1.69,9.66,2.66c1.86,0.56,1.83,0.67,2.41-1.15
						c0.01-0.03,0.02-0.07,0.03-0.1c2.01-7.03,3.7-14.13,4.73-21.38c1.18-8.31,1.77-16.61,0.35-24.94c-0.76-4.46-2.12-8.7-4.6-12.52
						c-3.22-4.96-7.73-7.78-13.73-7.58c-4.72,0.16-9.27,1.29-13.54,3.4c-6.37,3.15-11.35,7.88-15.51,13.54
						c-4.25,5.79-7.52,12.12-9.94,18.86c-1.46,4.08-2.89,8.19-4.01,12.37c-1.11,4.15-2,8.39-2.66,12.63
						c-0.6,3.8-0.76,7.68-1.1,11.52c-0.02,0.25,0.07,0.51,0.12,0.84c0.35-0.12,0.6-0.21,0.86-0.29c3.14-1.01,6.25-2.15,9.43-3
						c6.73-1.8,13.64-2.44,20.57-2.79c7.11-0.36,14.22-0.37,21.31,0.33c0.36,0.04,0.73-0.04,1.1-0.06
						c-6.51-2.09-13.12-3.44-19.8-4.41C63.79,145.71,57.09,145.45,50.36,146z M133.13,195.8c0.08-0.1,0.16-0.2,0.25-0.31
						c0.31,0.21,0.66,0.38,0.92,0.63c2.86,2.74,5.59,5.63,8.61,8.19c2.21,1.88,4.78,3.36,7.22,4.97c0.35,0.23,0.89,0.15,1.35,0.21
						c0-0.46,0.12-0.97-0.03-1.38c-1.28-3.37-3.02-6.52-5.32-9.28c-1.63-1.95-3.62-3.59-5.44-5.37c-0.26-0.25-0.47-0.55-0.7-0.82
						c0.08-0.09,0.17-0.18,0.25-0.27c0.29,0.19,0.62,0.34,0.87,0.58c1.45,1.32,2.92,2.63,4.32,4.01c1,0.99,1.76,2.26,2.85,3.13
						c3.15,2.52,6.39,4.92,9.64,7.31c0.82,0.6,1.79,1.04,2.75,1.39c0.77,0.29,1.07-0.07,0.76-0.84c-0.37-0.92-0.77-1.85-1.27-2.71
						c-3.38-5.79-7.4-11.06-12.65-15.31c-0.31-0.25-0.56-0.59-0.84-0.89c0.07-0.09,0.14-0.17,0.22-0.26c0.3,0.16,0.65,0.27,0.89,0.5
						c2.29,2.19,4.56,4.4,6.83,6.62c0.44,0.43,0.76,1.03,1.27,1.34c2.57,1.6,5.17,3.16,7.8,4.65c0.47,0.27,1.16,0.17,1.74,0.24
						c-0.12-0.58-0.09-1.26-0.4-1.71c-1.86-2.64-3.62-5.38-5.75-7.8c-4.1-4.67-9-8.43-14.21-11.79c-5.84-3.76-11.99-6.93-18.42-9.54
						c-0.5-0.2-0.98-0.49-1.12,0.4c-0.28,1.86-1.37,3.21-2.87,4.25c-1.56,1.08-3.29,1.65-5.18,1.88c-5.81,0.7-10.97-0.56-15.08-4.93
						c-2.13-2.26-3.16-5.93-1.09-8.71c0.57-0.76-0.13-0.85-0.64-0.95c-5.36-1.03-10.75-1.75-16.23-1.76
						c-5.37-0.02-10.7,0.38-15.92,1.62c-3.61,0.86-7.2,1.87-10.72,3.05c-5.44,1.82-10.63,4.2-15.33,7.55
						c-0.63,0.45-0.76,0.91-0.5,1.58c0.8,2.01,1.47,4.09,2.41,6.04c3.49,7.25,8.97,11.63,17.33,11.85c7.55,0.2,15.1,0.49,22.65,0.74
						c4.41,0.15,8.83,0.3,13.24,0.48c1.47,0.06,1.5,0.11,1.69-1.31c0.72-5.62,2.05-11.1,3.81-16.49c0.31-0.96,0.6-0.96,1.33-0.46
						c2.41,1.63,5.06,2.63,7.98,2.88c1.39,0.12,2.78,0.2,4.24,0.31c-0.12,0.41-0.19,0.74-0.31,1.06c-1.83,4.75-3.08,9.64-3.79,14.67
						c-0.12,0.84,0.04,1.21,0.96,1.41c4.38,0.97,8.67,2.3,12.65,4.4c4.75,2.51,9.41,5.2,14.12,7.78c0.73,0.4,1.62,1.06,2.36,0.31
						c0.66-0.68,0-1.49-0.37-2.16c-2.18-3.89-5.09-7.19-8.39-10.16C133.58,196.37,133.37,196.07,133.13,195.8z M122.89,68.31
						c0.03,0.16,0.05,0.31,0.08,0.47c-0.7,0.12-1.41,0.36-2.11,0.35c-0.85-0.01-1.21,0.37-1.49,1.1c-1.54,4.02-3.12,8.01-4.64,12.03
						c-0.16,0.43-0.23,1.04-0.06,1.43c1.26,2.83,2.43,5.71,3.94,8.4c1.87,3.33,4.23,6.31,7.59,8.32c2.4,1.44,4.95,1.85,7.65,1.03
						c2.87-0.87,3.84-3.28,4.51-5.84c0.78-2.96,0.49-5.97,0.12-8.95c-0.05-0.38-0.45-0.83-0.81-1.03c-2.81-1.54-4.96-3.63-5.74-6.83
						c-0.31-1.28-0.5-2.61,0.31-3.89c0.22,0.12,0.35,0.17,0.44,0.25c3.54,3.09,7.65,5.05,12.26,5.83c3.46,0.59,6.92,0.39,10.01-1.52
						c2.91-1.81,5.43-4.84,4.5-8.98c-0.38-1.69-1.1-3.33-1.85-4.91c-1.23-2.58-2.76-5.04-3.25-7.9c-0.38-2.2-0.55-4.44-0.8-6.66
						c-0.31-2.75-0.31-2.75-3.02-3.36c-2.36-0.53-2.49-0.84-1.14-2.73c0.01-0.02-0.01-0.06-0.05-0.24c-2.15-0.1-4.32-0.11-6.6,0.6
						c0.43,0.26,0.7,0.41,0.96,0.57c1.27,0.79,1.24,1.77-0.07,2.49c-0.7,0.38-1.41,0.72-2.09,1.12c-1.34,0.78-2.62,1.65-3.99,2.37
						c-1.08,0.57-1.77,0.06-1.66-1.14c0.06-0.7,0.28-1.38,0.42-2.08c-0.43,0.08-0.71,0.26-0.91,0.51c-0.98,1.16-2.05,2.26-2.88,3.51
						c-1.18,1.78-2.13,3.7-3.26,5.51c-1.06,1.7-2.18,1.87-3.64,0.51c-1.19-1.1-2.19-2.39-3.36-3.51c-1.07-1.02-2.14-2.09-3.4-2.83
						c-2.51-1.5-5.13-1.63-7.53,0.3c-2.25,1.82-3.14,4.18-2.49,7.08c0.45,2.01,1.58,3.59,3.06,4.92c2.9,2.59,6.13,4.34,10.22,3.66
						C122.37,68.24,122.64,68.3,122.89,68.31z M33.95,179.61c1.03-0.99,1.72-1.75,2.51-2.39c5.79-4.7,12.1-8.51,19.12-11.09
						c5.88-2.16,11.86-3.89,18.11-4.68c5.6-0.71,11.19-1.01,16.81-0.38c2.15,0.24,4.3,0.54,6.45,0.84c0.76,0.11,1.23,0.01,1.38-0.88
						c0.22-1.32,0.62-2.61,0.84-3.93c0.43-2.55-0.5-3.98-3.07-4.29c-4.65-0.57-9.31-1.14-13.99-1.39
						c-8.98-0.48-17.93,0.05-26.83,1.34c-4.89,0.71-9.69,1.73-14.36,3.37c-2.87,1.01-5.51,2.35-7.61,4.61
						c-1.54,1.65-2.36,3.53-2.37,5.87c-0.01,2.09,0.18,4.14,0.73,6.13C32.31,174.97,33.13,177.15,33.95,179.61z M113.72,83.58
						c-2.32,1.51-4.57,2.95-6.79,4.45c-0.19,0.13-0.27,0.68-0.18,0.96c1.14,3.38,2.23,6.79,3.52,10.12
						c1.67,4.29,3.43,8.56,5.33,12.76c0.89,1.96,2.11,3.79,3.35,5.56c0.98,1.39,2.1,1.47,3.48,0.45c0.71-0.53,1.36-1.17,1.91-1.87
						c2.83-3.63,4.6-7.82,6.18-12.09c0.47-1.27,0.45-1.31-0.9-1.51c-2.04-0.3-3.79-1.23-5.37-2.48c-3.75-2.96-6.2-6.89-8.24-11.11
						C115.21,87.14,114.52,85.42,113.72,83.58z M115.46,174.99c1.32-0.2,2.69-0.25,3.95-0.64c1.19-0.37,2.39-0.96,3.35-1.74
						c2.21-1.79,2.06-4.81-0.21-7.3c-3.78-4.15-11.72-5.91-16.92-3.74c-2.93,1.22-4.36,3.74-3.22,6.3c0.6,1.35,1.69,2.63,2.85,3.57
						C108.19,173.8,111.68,174.8,115.46,174.99z M139.9,90.55c-0.09,0.06-0.19,0.12-0.28,0.19c-0.02,0.3-0.02,0.6-0.06,0.9
						c-0.27,1.76-0.38,3.58-0.86,5.28c-0.79,2.77-2.42,4.87-5.5,5.38c-0.78,0.13-0.72,0.6-0.51,1.15c0.79,2.05,1.46,4.17,2.42,6.14
						c0.99,2.03,2.14,4.01,3.45,5.85c1.12,1.56,2.46,1.37,3.22-0.39c0.66-1.53,1.19-3.17,1.47-4.82c0.87-5.04,1.08-10.15,0.9-15.26
						c-0.01-0.37-0.03-0.87-0.25-1.07C142.61,92.74,141.24,91.66,139.9,90.55z M40.97,174.85c-2.13,1.3-4.01,2.6-5.51,4.38
						c-1.03,1.22-0.79,1.86,0.77,2.14c0.34,0.06,0.69,0.09,1.03,0.07c1.71-0.12,3.42-0.27,5.14-0.4c0.73-0.05,0.74-0.44,0.52-0.99
						c-0.47-1.18-0.93-2.36-1.38-3.55C41.35,175.99,41.19,175.48,40.97,174.85z"/>
					<path d="M161.06,120.94c0.16,0.22,0.37,0.42,0.48,0.66c1.81,3.92,3.1,8.02,4.17,12.19c1.55,6.05,2.56,12.21,3.17,18.42
						c0.69,6.97,1.11,13.96,0.64,20.98c-0.12,1.79-0.26,3.58-0.41,5.36c-0.03,0.32-0.19,0.63-0.45,0.93
						c1.19-19.99-0.37-39.58-7.91-58.36C160.86,121.05,160.96,121,161.06,120.94z"/>
					<path class="st0" d="M50.36,146c6.73-0.55,13.43-0.29,20.09,0.68c6.68,0.97,13.29,2.32,19.8,4.41
						c-0.37,0.02-0.74,0.09-1.1,0.06c-7.1-0.7-14.21-0.7-21.31-0.33c-6.93,0.36-13.84,0.99-20.57,2.79c-3.18,0.85-6.29,1.99-9.43,3
						c-0.25,0.08-0.51,0.17-0.86,0.29c-0.05-0.33-0.15-0.59-0.12-0.84c0.34-3.84,0.5-7.72,1.1-11.52c0.66-4.25,1.55-8.48,2.66-12.63
						c1.12-4.18,2.55-8.29,4.01-12.37c2.42-6.75,5.69-13.07,9.94-18.86c4.16-5.67,9.15-10.39,15.51-13.54
						c4.27-2.11,8.82-3.24,13.54-3.4c6-0.2,10.51,2.63,13.73,7.58c2.48,3.82,3.84,8.06,4.6,12.52c1.43,8.34,0.83,16.64-0.35,24.94
						c-1.03,7.25-2.71,14.35-4.73,21.38c-0.01,0.03-0.02,0.07-0.03,0.1c-0.58,1.82-0.55,1.71-2.41,1.15
						c-3.19-0.97-6.41-1.91-9.66-2.66c-3.82-0.89-7.67-1.71-11.55-2.32c-7.31-1.16-14.65-1.98-22.06-1.06
						c-0.28,0.03-0.55,0.13-0.82,0.19C50.35,145.7,50.35,145.85,50.36,146z"/>
					<path class="st0" d="M133.13,195.8c0.24,0.27,0.44,0.58,0.71,0.82c3.3,2.97,6.21,6.27,8.39,10.16
						c0.37,0.67,1.03,1.48,0.37,2.16c-0.74,0.76-1.63,0.09-2.36-0.31c-4.71-2.58-9.37-5.26-14.12-7.78
						c-3.98-2.11-8.26-3.43-12.65-4.4c-0.92-0.2-1.08-0.57-0.96-1.41c0.71-5.04,1.96-9.93,3.79-14.67c0.12-0.31,0.19-0.65,0.31-1.06
						c-1.47-0.11-2.86-0.19-4.24-0.31c-2.91-0.25-5.57-1.25-7.98-2.88c-0.73-0.5-1.02-0.5-1.33,0.46
						c-1.75,5.39-3.08,10.87-3.81,16.49c-0.18,1.42-0.22,1.37-1.69,1.31c-4.41-0.18-8.83-0.33-13.24-0.48
						c-7.55-0.26-15.1-0.55-22.65-0.74c-8.36-0.22-13.84-4.6-17.33-11.85c-0.94-1.95-1.61-4.02-2.41-6.04
						c-0.26-0.66-0.13-1.13,0.5-1.58c4.7-3.35,9.89-5.74,15.33-7.55c3.52-1.17,7.11-2.18,10.72-3.05
						c5.22-1.25,10.55-1.64,15.92-1.62c5.48,0.02,10.87,0.73,16.23,1.76c0.51,0.1,1.21,0.19,0.64,0.95
						c-2.07,2.77-1.04,6.45,1.09,8.71c4.11,4.37,9.27,5.64,15.08,4.93c1.89-0.23,3.63-0.8,5.18-1.88c1.5-1.04,2.58-2.39,2.87-4.25
						c0.14-0.89,0.62-0.6,1.12-0.4c6.43,2.62,12.57,5.79,18.42,9.54c5.22,3.35,10.12,7.12,14.21,11.79c2.12,2.42,3.89,5.16,5.75,7.8
						c0.31,0.44,0.28,1.13,0.4,1.71c-0.59-0.07-1.27,0.03-1.74-0.24c-2.63-1.49-5.23-3.05-7.8-4.65c-0.51-0.31-0.83-0.91-1.27-1.34
						c-2.27-2.22-4.54-4.43-6.83-6.62c-0.24-0.23-0.59-0.33-0.89-0.5c-0.07,0.09-0.14,0.17-0.22,0.26c0.28,0.3,0.52,0.64,0.84,0.89
						c5.25,4.25,9.27,9.52,12.65,15.31c0.5,0.86,0.9,1.78,1.27,2.71c0.31,0.77,0.01,1.13-0.76,0.84c-0.96-0.35-1.93-0.79-2.75-1.39
						c-3.25-2.38-6.49-4.79-9.64-7.31c-1.09-0.87-1.85-2.13-2.85-3.13c-1.39-1.38-2.86-2.69-4.32-4.01
						c-0.25-0.23-0.58-0.39-0.87-0.58c-0.08,0.09-0.17,0.18-0.25,0.27c0.23,0.27,0.45,0.57,0.7,0.82c1.82,1.78,3.82,3.42,5.44,5.37
						c2.3,2.76,4.04,5.91,5.32,9.28c0.15,0.41,0.03,0.92,0.03,1.38c-0.45-0.06-1,0.02-1.35-0.21c-2.44-1.61-5.01-3.08-7.22-4.97
						c-3.01-2.56-5.74-5.45-8.61-8.19c-0.27-0.25-0.61-0.42-0.92-0.63C133.3,195.59,133.22,195.7,133.13,195.8z"/>
					<path class="st0" d="M122.89,68.31c-0.26-0.01-0.52-0.07-0.76-0.03c-4.09,0.68-7.32-1.07-10.22-3.66
						c-1.49-1.33-2.61-2.91-3.06-4.92c-0.65-2.9,0.24-5.26,2.49-7.08c2.39-1.93,5.01-1.8,7.53-0.3c1.25,0.75,2.33,1.82,3.4,2.83
						c1.17,1.12,2.18,2.41,3.36,3.51c1.46,1.36,2.58,1.18,3.64-0.51c1.13-1.81,2.08-3.74,3.26-5.51c0.83-1.26,1.9-2.36,2.88-3.51
						c0.21-0.24,0.49-0.42,0.91-0.51c-0.14,0.69-0.36,1.38-0.42,2.08c-0.11,1.2,0.58,1.71,1.66,1.14c1.37-0.71,2.66-1.59,3.99-2.37
						c0.68-0.4,1.4-0.74,2.09-1.12c1.32-0.72,1.34-1.7,0.07-2.49c-0.26-0.16-0.53-0.31-0.96-0.57c2.28-0.71,4.45-0.7,6.6-0.6
						c0.04,0.18,0.06,0.22,0.05,0.24c-1.35,1.89-1.22,2.21,1.14,2.73c2.72,0.61,2.71,0.61,3.02,3.36c0.25,2.22,0.43,4.46,0.8,6.66
						c0.49,2.86,2.03,5.32,3.25,7.9c0.75,1.58,1.47,3.22,1.85,4.91c0.92,4.14-1.59,7.17-4.5,8.98c-3.09,1.92-6.55,2.12-10.01,1.52
						c-4.6-0.79-8.72-2.74-12.26-5.83c-0.1-0.08-0.23-0.13-0.44-0.25c-0.81,1.28-0.62,2.61-0.31,3.89c0.78,3.21,2.94,5.29,5.74,6.83
						c0.36,0.2,0.76,0.65,0.81,1.03c0.37,2.98,0.66,5.99-0.12,8.95c-0.67,2.56-1.64,4.96-4.51,5.84c-2.7,0.82-5.25,0.41-7.65-1.03
						c-3.36-2.01-5.72-4.99-7.59-8.32c-1.51-2.69-2.69-5.57-3.94-8.4c-0.18-0.4-0.1-1,0.06-1.43c1.53-4.02,3.11-8.02,4.64-12.03
						c0.28-0.73,0.65-1.11,1.49-1.1c0.7,0.01,1.41-0.22,2.11-0.35C122.94,68.62,122.92,68.47,122.89,68.31z M137.67,54.73
						c-0.04,0.15-0.08,0.3-0.12,0.45c0.79,0.3,1.57,0.72,2.39,0.89c1.69,0.35,3.36,0.21,4.88-0.68c0.71-0.42,0.75-1.35,0.26-2.29
						c-0.43-0.82-0.97-0.51-1.56-0.25c-0.5,0.23-1.02,0.42-1.54,0.58C140.55,53.88,139.11,54.3,137.67,54.73z M149.64,54.99
						c0.56-0.06,0.82-0.09,1.08-0.12c1.02-0.11,1.83-0.59,2.38-1.46c0.44-0.68,0.26-0.98-0.55-1.02c-0.89-0.05-1.78-0.12-2.67-0.19
						c-1.55-0.11-2.06,0.58-1.31,1.95c0.52,0.95,1.19,1.84,1.87,2.7c0.97,1.22,0.98,1.52-0.12,2.58c-0.19,0.18-0.35,0.4-0.69,0.79
						c1.98-0.56,2.55-2.04,1.53-3.37C150.73,56.27,150.25,55.72,149.64,54.99z M113.66,55.93c-0.04,0.14-0.09,0.28-0.13,0.41
						c0.28,0.1,0.55,0.28,0.83,0.3c3.34,0.23,5.42,2.08,6.66,5.06c0.17,0.4,0.42,0.77,0.63,1.15c0.13-0.08,0.27-0.15,0.4-0.23
						c-0.41-1.97-1.41-3.64-3.01-4.92C117.46,56.44,115.67,55.76,113.66,55.93z M150.81,65.06c-3.14,1.43-5.15,0.23-6.5-2.74
						c-0.26,2.3,1.07,4.01,3.14,4.29C149.25,66.85,150.64,66.27,150.81,65.06z"/>
					<path class="st0" d="M33.95,179.61c-0.82-2.46-1.64-4.64-2.26-6.87c-0.56-1.99-0.74-4.03-0.73-6.13
						c0.01-2.34,0.83-4.22,2.37-5.87c2.1-2.26,4.74-3.6,7.61-4.61c4.67-1.64,9.47-2.65,14.36-3.37c8.9-1.3,17.85-1.82,26.83-1.34
						c4.67,0.25,9.34,0.82,13.99,1.39c2.56,0.31,3.5,1.74,3.07,4.29c-0.22,1.32-0.62,2.61-0.84,3.93c-0.15,0.89-0.62,0.99-1.38,0.88
						c-2.15-0.31-4.3-0.6-6.45-0.84c-5.62-0.63-11.21-0.33-16.81,0.38c-6.25,0.79-12.23,2.52-18.11,4.68
						c-7.02,2.58-13.33,6.38-19.12,11.09C35.67,177.86,34.98,178.62,33.95,179.61z"/>
					<path class="st0" d="M113.72,83.58c0.8,1.84,1.49,3.56,2.3,5.22c2.04,4.22,4.5,8.15,8.24,11.11c1.59,1.25,3.33,2.18,5.37,2.48
						c1.35,0.2,1.37,0.24,0.9,1.51c-1.58,4.28-3.35,8.46-6.18,12.09c-0.54,0.7-1.2,1.34-1.91,1.87c-1.38,1.03-2.5,0.95-3.48-0.45
						c-1.24-1.77-2.46-3.6-3.35-5.56c-1.9-4.2-3.66-8.46-5.33-12.76c-1.3-3.33-2.38-6.74-3.52-10.12c-0.09-0.28-0.02-0.82,0.18-0.96
						C109.15,86.54,111.4,85.09,113.72,83.58z"/>
					<path class="st0" d="M115.46,174.99c-3.78-0.2-7.26-1.19-10.2-3.55c-1.17-0.94-2.25-2.22-2.85-3.57
						c-1.14-2.55,0.29-5.08,3.22-6.3c5.21-2.17,13.15-0.41,16.92,3.74c2.27,2.49,2.42,5.51,0.21,7.3c-0.96,0.78-2.16,1.36-3.35,1.74
						C118.15,174.75,116.78,174.79,115.46,174.99z M113.98,166.45c-0.26-0.22-0.55-0.62-0.92-0.74c-1.88-0.65-3.79-1.25-5.7-1.82
						c-0.29-0.08-0.65,0.1-0.98,0.16c0.22,0.28,0.38,0.71,0.66,0.81c1.61,0.59,3.25,1.13,4.88,1.64c0.59,0.18,0.78,0.46,0.57,1.06
						c-0.32,0.91-0.61,1.83-0.84,2.76c-0.05,0.22,0.19,0.5,0.29,0.76c0.22-0.12,0.58-0.19,0.64-0.37
						C113.06,169.38,113.47,168.03,113.98,166.45z"/>
					<path class="st0" d="M139.9,90.55c1.34,1.11,2.7,2.19,4,3.34c0.23,0.2,0.24,0.7,0.25,1.07c0.18,5.11-0.03,10.21-0.9,15.26
						c-0.28,1.64-0.81,3.28-1.47,4.82c-0.76,1.76-2.1,1.95-3.22,0.39c-1.32-1.83-2.46-3.82-3.45-5.85
						c-0.96-1.97-1.63-4.09-2.42-6.14c-0.21-0.54-0.27-1.02,0.51-1.15c3.08-0.51,4.71-2.6,5.5-5.38c0.48-1.7,0.59-3.51,0.86-5.28
						c0.05-0.3,0.04-0.6,0.06-0.9C139.72,90.68,139.81,90.61,139.9,90.55z"/>
					<path class="st0" d="M40.97,174.85c0.22,0.63,0.38,1.14,0.56,1.63c0.45,1.19,0.9,2.37,1.38,3.55c0.22,0.56,0.21,0.94-0.52,0.99
						c-1.71,0.13-3.42,0.28-5.14,0.4c-0.34,0.02-0.69-0.01-1.03-0.07c-1.56-0.28-1.8-0.92-0.77-2.14
						C36.97,177.45,38.85,176.15,40.97,174.85z"/>
					<path d="M137.67,54.73c1.44-0.43,2.88-0.85,4.31-1.29c0.52-0.16,1.04-0.36,1.54-0.58c0.59-0.27,1.13-0.57,1.56,0.25
						c0.5,0.94,0.45,1.88-0.26,2.29c-1.52,0.89-3.2,1.03-4.88,0.68c-0.82-0.17-1.59-0.59-2.39-0.89
						C137.59,55.03,137.63,54.88,137.67,54.73z"/>
					<path d="M149.64,54.99c0.6,0.73,1.08,1.28,1.52,1.86c1.01,1.33,0.45,2.81-1.53,3.37c0.34-0.39,0.5-0.61,0.69-0.79
						c1.1-1.05,1.09-1.36,0.12-2.58c-0.68-0.86-1.35-1.74-1.87-2.7c-0.75-1.37-0.24-2.06,1.31-1.95c0.89,0.07,1.78,0.14,2.67,0.19
						c0.8,0.04,0.98,0.34,0.55,1.02c-0.55,0.87-1.35,1.35-2.38,1.46C150.46,54.9,150.2,54.92,149.64,54.99z"/>
					<path d="M113.66,55.93c2.01-0.17,3.8,0.51,5.38,1.77c1.6,1.28,2.6,2.95,3.01,4.92c-0.13,0.08-0.27,0.15-0.4,0.23
						c-0.21-0.38-0.46-0.75-0.63-1.15c-1.24-2.98-3.32-4.83-6.66-5.06c-0.28-0.02-0.56-0.19-0.83-0.3
						C113.57,56.21,113.62,56.07,113.66,55.93z"/>
					<path d="M150.81,65.06c-0.16,1.21-1.56,1.79-3.37,1.55c-2.06-0.28-3.39-1.99-3.14-4.29C145.66,65.29,147.67,66.49,150.81,65.06
						z"/>
					<path d="M113.98,166.45c-0.51,1.58-0.92,2.93-1.39,4.26c-0.06,0.18-0.42,0.25-0.64,0.37c-0.1-0.25-0.34-0.54-0.29-0.76
						c0.23-0.93,0.52-1.85,0.84-2.76c0.21-0.6,0.02-0.88-0.57-1.06c-1.64-0.51-3.27-1.05-4.88-1.64c-0.28-0.1-0.44-0.53-0.66-0.81
						c0.33-0.06,0.69-0.24,0.98-0.16c1.91,0.57,3.81,1.17,5.7,1.82C113.43,165.83,113.71,166.23,113.98,166.45z"/>
				</g>
			</g>
		</g>
		<path d="M129.44,117.99c0,0,0.99,42.01-5.11,52.22c0,0,14.69,4.84,19.97,9.4h4.57c0,0,3.76-25.08-13.08-62.61
			C135.8,117,133.74,119.06,129.44,117.99z"/>
		<path class="st1" d="M207.15,124.76l-25.9,59.14h64.72l26.2-57.89c0.66-1.45-0.39-3.09-1.98-3.11l-59.3-0.57
			C209.27,122.32,207.8,123.27,207.15,124.76z"/>
		<polygon class="st1" points="144.31,179.61 181.25,179.5 179.37,183.89 150.68,183.89 		"/>
		<path class="st0" d="M173.59,182.52h-4.72c-0.46,0-0.82-0.37-0.82-0.82l0,0c0-0.46,0.37-0.82,0.82-0.82h4.72
			c0.46,0,0.82,0.37,0.82,0.82l0,0C174.42,182.15,174.05,182.52,173.59,182.52z"/>
		<circle class="st0" cx="176.75" cy="181.7" r="0.97"/>
	</g>
	<path d="M248.94,162.6c-1.26-1.27-1.27-1.99,0.07-3.2c2.19-1.98,4.88-3.08,7.6-4.09c1.26-0.47,2.52-0.87,3.92-0.48
		c2.74,0.77,3.7,4.03,1.69,6.06c-0.54,0.54-0.68,0.91-0.36,1.65c0.58,1.34,0.07,2.9-1.23,3.95c-0.69,0.56-1.49,0.98-2.24,1.46
		c0.96,2.85,0.2,4.45-2.63,5.61c-0.22,0.09-0.48,0.38-0.51,0.61c-0.26,1.85-1.31,3.14-3.12,3.48c-2.97,0.57-5.83,0.17-8.54-1.22
		c-0.09-0.05-0.18-0.1-0.27-0.16c-0.71-0.54-1.59-1.03-1.34-2.12c0.23-1.02,1.21-1.11,2.01-1.39c0.28-0.09,0.58-0.11,1.06-0.19
		c-0.33-0.31-0.54-0.52-0.75-0.71c-1.04-0.92-1-2.02,0.24-2.68c0.9-0.47,1.94-0.68,2.91-1c0.18-0.06,0.37-0.1,0.73-0.19
		c-0.89-0.39-1.63-0.64-2.3-1.02c-1.25-0.71-1.37-1.66-0.21-2.51C246.66,163.75,247.81,163.24,248.94,162.6z M254.21,162.26
		c2.01-0.26,3.73-0.41,5.42-0.72c1.97-0.36,3.31-2.16,2.89-3.75c-0.51-1.94-2.18-2.82-4.28-2.21c-0.99,0.29-2.01,0.55-2.91,1.02
		c-2,1.06-3.94,2.21-5.86,3.4c-0.34,0.21-0.71,0.92-0.59,1.18c0.16,0.37,0.76,0.7,1.2,0.76
		C251.54,162.13,253.02,162.18,254.21,162.26z M252.45,167.78c0.02-0.09,0.03-0.19,0.05-0.28c1.03,0,2.07,0.04,3.1-0.01
		c1.52-0.08,3.09-0.23,4.25-1.34c0.64-0.61,1.18-1.44,1.49-2.27c0.35-0.96-0.42-1.8-1.25-1.71c-2.5,0.27-4.99,0.59-7.5,0.68
		c-2.21,0.08-4.17,0.8-6.04,1.87c-0.35,0.2-0.83,0.71-0.77,0.95c0.09,0.37,0.57,0.8,0.96,0.9
		C248.62,167.02,250.54,167.38,252.45,167.78z M252.55,173.26c0.02-0.09,0.03-0.17,0.05-0.26c0.62,0,1.24,0.04,1.86-0.01
		c1.41-0.12,2.67-0.62,3.31-1.95c0.28-0.58,0.41-1.49,0.13-2c-0.24-0.44-1.12-0.62-1.76-0.74c-0.52-0.1-1.09,0.05-1.64,0.08
		c-2.91,0.19-5.87,0.06-8.68,1.03c-0.54,0.19-0.96,0.75-1.43,1.14c0.41,0.42,0.82,0.85,1.24,1.25c0.09,0.09,0.25,0.11,0.38,0.14
		C248.19,172.4,250.37,172.83,252.55,173.26z M246.43,173.26c-0.68,0.08-1.52,0.11-2.32,0.31c-0.48,0.12-0.9,0.52-1.34,0.79
		c0.3,0.42,0.52,0.99,0.93,1.23c2.19,1.32,4.64,1.75,7.15,1.59c1.27-0.08,2.51-0.54,3.29-1.69c0.58-0.86,0.36-1.59-0.56-1.67
		C251.25,173.6,248.91,173.45,246.43,173.26z"/>
	<path class="st0" d="M254.21,162.26c-1.19-0.08-2.67-0.13-4.14-0.31c-0.45-0.06-1.04-0.39-1.2-0.76c-0.12-0.27,0.25-0.97,0.59-1.18
		c1.92-1.19,3.86-2.35,5.86-3.4c0.9-0.48,1.93-0.73,2.91-1.02c2.1-0.61,3.77,0.27,4.28,2.21c0.42,1.58-0.91,3.39-2.89,3.75
		C257.94,161.85,256.22,162,254.21,162.26z"/>
	<path class="st0" d="M252.45,167.78c-1.91-0.4-3.83-0.75-5.72-1.22c-0.39-0.09-0.87-0.53-0.96-0.9c-0.06-0.25,0.42-0.76,0.77-0.95
		c1.87-1.06,3.83-1.78,6.04-1.87c2.51-0.1,5-0.42,7.5-0.68c0.83-0.09,1.6,0.75,1.25,1.71c-0.3,0.83-0.85,1.65-1.49,2.27
		c-1.16,1.11-2.72,1.26-4.25,1.34c-1.03,0.05-2.07,0.01-3.1,0.01C252.48,167.59,252.47,167.68,252.45,167.78z"/>
	<path class="st0" d="M252.55,173.26c-2.18-0.43-4.36-0.87-6.54-1.3c-0.13-0.03-0.29-0.05-0.38-0.14c-0.43-0.41-0.83-0.83-1.24-1.25
		c0.48-0.39,0.89-0.95,1.43-1.14c2.81-0.97,5.77-0.84,8.68-1.03c0.55-0.04,1.12-0.18,1.64-0.08c0.63,0.12,1.52,0.3,1.76,0.74
		c0.27,0.5,0.14,1.42-0.13,2c-0.64,1.32-1.9,1.83-3.31,1.95c-0.62,0.05-1.24,0.01-1.86,0.01
		C252.59,173.09,252.57,173.18,252.55,173.26z"/>
	<path class="st0" d="M246.43,173.26c2.48,0.19,4.82,0.34,7.15,0.55c0.92,0.09,1.14,0.82,0.56,1.67c-0.79,1.16-2.02,1.61-3.29,1.69
		c-2.51,0.16-4.96-0.27-7.15-1.59c-0.41-0.24-0.62-0.81-0.93-1.23c0.44-0.27,0.86-0.67,1.34-0.79
		C244.91,173.37,245.75,173.35,246.43,173.26z"/>
</g>
</svg>
