<svg version="1.1" id="Layer_1" xmlns="http://www.w3.org/2000/svg" x="0" y="0" viewBox="0 0 291 220" style="enable-background:new 0 0 291 220" xml:space="preserve"><style>.st0{fill:#fff}.st1{fill:#c4c4c4}</style><path class="st0" d="m88.43 84.59 1.82-.87 16.19 3.98 20.49 18.39 7.61-2.04 9.97-10.4s17.99.06 26.2 7.42c.62.01 5.23 2.99 7.56 6.16s3.98 4.34 6.27 7.97c2.29 3.63 4.89 7.61 6.27 11.44 1.38 3.83 4.06 11.6 4.73 14.32.67 2.72 1.41 8.28 1.41 8.28l-15.1 34.65H68.41l20.02-99.3z"/><g id="ylUHV0.tif_00000011714004056598295810000017454836047818533271_"><path d="M146.64 179.35h-1.75l-.15.27c.39.31.77.66 1.19.93 5.7 3.77 11.02 7.99 15.35 13.31 1.69 2.07 3.04 4.42 4.54 6.64.04.06.09.12.09.18.02.69.31 1.66-.03 2-.35.36-1.4.33-1.99.09-1.49-.62-2.89-1.44-4.32-2.2-.65-.35-1.28-.74-1.92-1.11-.07.07-.14.13-.21.2.36.55.74 1.09 1.06 1.66 1.19 2.13 2.4 4.25 3.49 6.42.21.43.14 1.43-.13 1.57-.48.26-1.33.3-1.8.03a67.32 67.32 0 0 1-5.45-3.34c-1.4-.94-2.7-2.04-4.04-3.06-.26-.19-.53-.36-.8-.54l-.21.18c.48.92 1.01 1.82 1.43 2.77.47 1.03.95 2.08 1.21 3.17.12.49-.13 1.22-.47 1.62-.2.23-1.01.2-1.37-.01-1.81-1.05-3.57-2.19-5.32-3.33-.94-.61-1.84-1.28-2.94-1.77.29.78.59 1.56.87 2.35.12.35.25.72.28 1.09.08 1.21-.55 1.71-1.65 1.21-2.25-1.02-4.52-2.02-6.67-3.23-4.54-2.55-9-5.23-13.91-7.03-4.03-1.48-8.16-2.49-12.4-3.14-7.29-1.11-14.63-1.48-21.98-1.68-7.37-.21-14.75-.35-22.12-.58-3.13-.1-6.27-.28-9.29-1.28-3.93-1.3-6.9-3.82-9.22-7.16-.73-1.05-1.39-2.14-2-3.26-.33-.6-.69-.73-1.33-.64-1.43.21-2.87.42-4.32.47-.99.04-2.01-.09-2.96-.35-.53-.14-1.12-.61-1.39-1.09-1.64-2.93-2.62-6.13-3.28-9.4-.3-1.47-.36-2.99-.5-4.49-.22-2.55.8-4.64 2.49-6.44.71-.75 1.46-1.49 2.31-2.06.81-.55 1.12-1.17 1.12-2.13.02-6.83 1.13-13.52 2.67-20.16 1.82-7.84 4.22-15.49 7.59-22.8 3.74-8.12 8.45-15.58 15.35-21.45 5-4.26 10.68-7.13 17.23-8.22 4.98-.83 9.91-.7 14.8.41 4.06.92 8.06 2.1 12.1 3.13.41.1.97.04 1.32-.17 1.97-1.21 3.99-2.37 5.79-3.8.85-.68 1.42-1.84 1.85-2.9 1.39-3.41 2.65-6.87 3.97-10.31.29-.75-.26-.83-.74-1.05-1.62-.73-3.32-1.36-4.82-2.3-2.26-1.42-3.97-3.38-4.89-5.97-1.77-4.95 2.18-10.4 7.37-10.09.74.04 1.47.28 2.45.47-.08-1.29-.06-2.45-.25-3.58-.45-2.7-1.35-5.27-2.62-7.7-2.57-4.93-.06-9.94 4.01-12.35 3.05-1.8 6.21-1.84 9.37-.15.27.14.55.27.87.42.14-.23.31-.41.39-.63 1.06-2.94 3.29-4.36 6.19-5.22 3.17-.94 7.54.87 9.25 3.73.41.69.4 1.07-.26 1.61-1.47 1.22-2.31 2.9-2.9 4.69-.08.25.13.59.21.89.24-.19.57-.33.72-.57.81-1.31 1.35-2.85 2.39-3.92 2.98-3.06 10.46-3.17 13.08 2.89 2.04 4.71.72 10.53-3.95 12.82-.29.14-.59.64-.59.96.03 4.66.04 9.36 1.35 13.86.69 2.35 1.95 4.54 3.01 6.78.91 1.94 1.82 3.87 1.92 6.06.18 4.09-2.11 6.75-5.35 8.66-2.99 1.77-6.34 2.09-9.73 1.49-1.79-.32-3.52-.93-5.28-1.41-.19-.05-.39-.08-.62-.12-.07.17-.17.29-.16.41.04 2.52.04 5.04.19 7.55.04.63.54 1.28.96 1.82.32.43.89.67 1.26 1.07 1.67 1.81 3.68 2.2 6.12 2.18 11.61-.1 21.39 4.33 29.57 12.45 6.21 6.17 10.64 13.51 14.07 21.5 2.65 6.17 4.49 12.58 5.59 19.2.07.42-.1.87-.16 1.31-.09-.01-.17-.01-.26-.02-.29-1.43-.57-2.87-.86-4.3a80.65 80.65 0 0 0-5.9-18.03c-3.28-7.1-7.41-13.63-12.97-19.18-5.15-5.13-11.13-8.89-18.17-10.86-4.22-1.18-8.54-1.56-12.92-1.35-.69.03-.87.33-.84.98.25 5.57-.08 11.12-1.18 16.59-.3 1.5-.88 2.98-1.58 4.34-.8 1.56-2.21 1.85-3.38.59-1.19-1.29-1.95-1.15-3.44-.34-2.82 1.54-5.87 1.3-8.74-.16-.72-.37-1.05-.21-1.56.32-.88.91-1.79 1.84-2.86 2.5-1.37.85-2.34.73-3.28-.55-1.48-2.02-2.94-4.11-4-6.36-1.83-3.89-3.44-7.89-4.99-11.91-1.41-3.66-2.61-7.4-3.89-11.11-.23-.69-.51-1.23-1.3-1.42-4.49-1.08-8.97-2.17-13.45-3.26-.09-.02-.2.01-.45.03.31.27.5.51.75.65 4.27 2.35 6.84 6.12 8.67 10.47 2.74 6.52 3.41 13.41 3.25 20.39-.14 5.84-.82 11.62-1.86 17.38-1.12 6.18-2.57 12.27-4.41 18.27-.19.61-.15.92.5 1.19 1.59.64 2.39 1.88 2.19 3.59-.17 1.5-.42 3-.77 4.47-.34 1.44-.32 1.57 1.1 1.84.3.06.6.15.9.23.81.22 1.45.11 2.18-.46 2.77-2.19 6.04-2.59 9.42-2.2 3.34.38 6.5 1.41 9.08 3.65 1.22 1.06 2.18 2.43 3.39 3.82M50.36 146c-.01-.15-.01-.3-.02-.45.27-.07.54-.16.82-.19 7.41-.92 14.75-.1 22.06 1.06 3.88.61 7.73 1.43 11.55 2.32 3.25.76 6.46 1.69 9.66 2.66 1.86.56 1.83.67 2.41-1.15l.03-.1c2.01-7.03 3.7-14.13 4.73-21.38 1.18-8.31 1.77-16.61.35-24.94-.76-4.46-2.12-8.7-4.6-12.52-3.22-4.96-7.73-7.78-13.73-7.58-4.72.16-9.27 1.29-13.54 3.4-6.37 3.15-11.35 7.88-15.51 13.54-4.25 5.79-7.52 12.12-9.94 18.86-1.46 4.08-2.89 8.19-4.01 12.37-1.11 4.15-2 8.39-2.66 12.63-.6 3.8-.76 7.68-1.1 11.52-.02.25.07.51.12.84.35-.12.6-.21.86-.29 3.14-1.01 6.25-2.15 9.43-3 6.73-1.8 13.64-2.44 20.57-2.79 7.11-.36 14.22-.37 21.31.33.36.04.73-.04 1.1-.06-6.51-2.09-13.12-3.44-19.8-4.41-6.66-.96-13.36-1.22-20.09-.67zm82.77 49.8c.08-.1.16-.2.25-.31.31.21.66.38.92.63 2.86 2.74 5.59 5.63 8.61 8.19 2.21 1.88 4.78 3.36 7.22 4.97.35.23.89.15 1.35.21 0-.46.12-.97-.03-1.38-1.28-3.37-3.02-6.52-5.32-9.28-1.63-1.95-3.62-3.59-5.44-5.37-.26-.25-.47-.55-.7-.82.08-.09.17-.18.25-.27.29.19.62.34.87.58 1.45 1.32 2.92 2.63 4.32 4.01 1 .99 1.76 2.26 2.85 3.13 3.15 2.52 6.39 4.92 9.64 7.31.82.6 1.79 1.04 2.75 1.39.77.29 1.07-.07.76-.84-.37-.92-.77-1.85-1.27-2.71-3.38-5.79-7.4-11.06-12.65-15.31-.31-.25-.56-.59-.84-.89.07-.09.14-.17.22-.26.3.16.65.27.89.5 2.29 2.19 4.56 4.4 6.83 6.62.44.43.76 1.03 1.27 1.34 2.57 1.6 5.17 3.16 7.8 4.65.47.27 1.16.17 1.74.24-.12-.58-.09-1.26-.4-1.71-1.86-2.64-3.62-5.38-5.75-7.8-4.1-4.67-9-8.43-14.21-11.79-5.84-3.76-11.99-6.93-18.42-9.54-.5-.2-.98-.49-1.12.4-.28 1.86-1.37 3.21-2.87 4.25-1.56 1.08-3.29 1.65-5.18 1.88-5.81.7-10.97-.56-15.08-4.93-2.13-2.26-3.16-5.93-1.09-8.71.57-.76-.13-.85-.64-.95-5.36-1.03-10.75-1.75-16.23-1.76-5.37-.02-10.7.38-15.92 1.62-3.61.86-7.2 1.87-10.72 3.05-5.44 1.82-10.63 4.2-15.33 7.55-.63.45-.76.91-.5 1.58.8 2.01 1.47 4.09 2.41 6.04 3.49 7.25 8.97 11.63 17.33 11.85 7.55.2 15.1.49 22.65.74 4.41.15 8.83.3 13.24.48 1.47.06 1.5.11 1.69-1.31.72-5.62 2.05-11.1 3.81-16.49.31-.96.6-.96 1.33-.46 2.41 1.63 5.06 2.63 7.98 2.88 1.39.12 2.78.2 4.24.31-.12.41-.19.74-.31 1.06a66.504 66.504 0 0 0-3.79 14.67c-.12.84.04 1.21.96 1.41 4.38.97 8.67 2.3 12.65 4.4 4.75 2.51 9.41 5.2 14.12 7.78.73.4 1.62 1.06 2.36.31.66-.68 0-1.49-.37-2.16-2.18-3.89-5.09-7.19-8.39-10.16-.29-.25-.5-.55-.74-.82zM122.89 68.31c.03.16.05.31.08.47-.7.12-1.41.36-2.11.35-.85-.01-1.21.37-1.49 1.1-1.54 4.02-3.12 8.01-4.64 12.03-.16.43-.23 1.04-.06 1.43 1.26 2.83 2.43 5.71 3.94 8.4 1.87 3.33 4.23 6.31 7.59 8.32 2.4 1.44 4.95 1.85 7.65 1.03 2.87-.87 3.84-3.28 4.51-5.84.78-2.96.49-5.97.12-8.95-.05-.38-.45-.83-.81-1.03-2.81-1.54-4.96-3.63-5.74-6.83-.31-1.28-.5-2.61.31-3.89.22.12.35.17.44.25 3.54 3.09 7.65 5.05 12.26 5.83 3.46.59 6.92.39 10.01-1.52 2.91-1.81 5.43-4.84 4.5-8.98-.38-1.69-1.1-3.33-1.85-4.91-1.23-2.58-2.76-5.04-3.25-7.9-.38-2.2-.55-4.44-.8-6.66-.31-2.75-.31-2.75-3.02-3.36-2.36-.53-2.49-.84-1.14-2.73.01-.02-.01-.06-.05-.24-2.15-.1-4.32-.11-6.6.6.43.26.7.41.96.57 1.27.79 1.24 1.77-.07 2.49-.7.38-1.41.72-2.09 1.12-1.34.78-2.62 1.65-3.99 2.37-1.08.57-1.77.06-1.66-1.14.06-.7.28-1.38.42-2.08-.43.08-.71.26-.91.51-.98 1.16-2.05 2.26-2.88 3.51-1.18 1.78-2.13 3.7-3.26 5.51-1.06 1.7-2.18 1.87-3.64.51-1.19-1.1-2.19-2.39-3.36-3.51-1.07-1.02-2.14-2.09-3.4-2.83-2.51-1.5-5.13-1.63-7.53.3-2.25 1.82-3.14 4.18-2.49 7.08.45 2.01 1.58 3.59 3.06 4.92 2.9 2.59 6.13 4.34 10.22 3.66.25-.03.52.03.77.04zm-88.94 111.3c1.03-.99 1.72-1.75 2.51-2.39 5.79-4.7 12.1-8.51 19.12-11.09 5.88-2.16 11.86-3.89 18.11-4.68 5.6-.71 11.19-1.01 16.81-.38 2.15.24 4.3.54 6.45.84.76.11 1.23.01 1.38-.88.22-1.32.62-2.61.84-3.93.43-2.55-.5-3.98-3.07-4.29-4.65-.57-9.31-1.14-13.99-1.39-8.98-.48-17.93.05-26.83 1.34-4.89.71-9.69 1.73-14.36 3.37-2.87 1.01-5.51 2.35-7.61 4.61-1.54 1.65-2.36 3.53-2.37 5.87-.01 2.09.18 4.14.73 6.13.64 2.23 1.46 4.41 2.28 6.87zm79.77-96.03c-2.32 1.51-4.57 2.95-6.79 4.45-.19.13-.27.68-.18.96 1.14 3.38 2.23 6.79 3.52 10.12 1.67 4.29 3.43 8.56 5.33 12.76.89 1.96 2.11 3.79 3.35 5.56.98 1.39 2.1 1.47 3.48.45.71-.53 1.36-1.17 1.91-1.87 2.83-3.63 4.6-7.82 6.18-12.09.47-1.27.45-1.31-.9-1.51-2.04-.3-3.79-1.23-5.37-2.48-3.75-2.96-6.2-6.89-8.24-11.11-.8-1.68-1.49-3.4-2.29-5.24zm1.74 91.41c1.32-.2 2.69-.25 3.95-.64 1.19-.37 2.39-.96 3.35-1.74 2.21-1.79 2.06-4.81-.21-7.3-3.78-4.15-11.72-5.91-16.92-3.74-2.93 1.22-4.36 3.74-3.22 6.3.6 1.35 1.69 2.63 2.85 3.57 2.93 2.36 6.42 3.36 10.2 3.55zm24.44-84.44c-.09.06-.19.12-.28.19-.02.3-.02.6-.06.9-.27 1.76-.38 3.58-.86 5.28-.79 2.77-2.42 4.87-5.5 5.38-.78.13-.72.6-.51 1.15.79 2.05 1.46 4.17 2.42 6.14.99 2.03 2.14 4.01 3.45 5.85 1.12 1.56 2.46 1.37 3.22-.39.66-1.53 1.19-3.17 1.47-4.82.87-5.04 1.08-10.15.9-15.26-.01-.37-.03-.87-.25-1.07-1.29-1.16-2.66-2.24-4-3.35zm-98.93 84.3c-2.13 1.3-4.01 2.6-5.51 4.38-1.03 1.22-.79 1.86.77 2.14.34.06.69.09 1.03.07 1.71-.12 3.42-.27 5.14-.4.73-.05.74-.44.52-.99-.47-1.18-.93-2.36-1.38-3.55-.19-.51-.35-1.02-.57-1.65z"/><path d="M161.06 120.94c.16.22.37.42.48.66 1.81 3.92 3.1 8.02 4.17 12.19 1.55 6.05 2.56 12.21 3.17 18.42.69 6.97 1.11 13.96.64 20.98-.12 1.79-.26 3.58-.41 5.36-.03.32-.19.63-.45.93 1.19-19.99-.37-39.58-7.91-58.36.11-.07.21-.12.31-.18z"/><path class="st0" d="M50.36 146c6.73-.55 13.43-.29 20.09.68 6.68.97 13.29 2.32 19.8 4.41-.37.02-.74.09-1.1.06-7.1-.7-14.21-.7-21.31-.33-6.93.36-13.84.99-20.57 2.79-3.18.85-6.29 1.99-9.43 3-.25.08-.51.17-.86.29-.05-.33-.15-.59-.12-.84.34-3.84.5-7.72 1.1-11.52.66-4.25 1.55-8.48 2.66-12.63 1.12-4.18 2.55-8.29 4.01-12.37 2.42-6.75 5.69-13.07 9.94-18.86 4.16-5.67 9.15-10.39 15.51-13.54 4.27-2.11 8.82-3.24 13.54-3.4 6-.2 10.51 2.63 13.73 7.58 2.48 3.82 3.84 8.06 4.6 12.52 1.43 8.34.83 16.64-.35 24.94-1.03 7.25-2.71 14.35-4.73 21.38l-.03.1c-.58 1.82-.55 1.71-2.41 1.15-3.19-.97-6.41-1.91-9.66-2.66-3.82-.89-7.67-1.71-11.55-2.32-7.31-1.16-14.65-1.98-22.06-1.06-.28.03-.55.13-.82.19.01.14.01.29.02.44zM133.13 195.8c.24.27.44.58.71.82 3.3 2.97 6.21 6.27 8.39 10.16.37.67 1.03 1.48.37 2.16-.74.76-1.63.09-2.36-.31-4.71-2.58-9.37-5.26-14.12-7.78-3.98-2.11-8.26-3.43-12.65-4.4-.92-.2-1.08-.57-.96-1.41.71-5.04 1.96-9.93 3.79-14.67.12-.31.19-.65.31-1.06-1.47-.11-2.86-.19-4.24-.31-2.91-.25-5.57-1.25-7.98-2.88-.73-.5-1.02-.5-1.33.46-1.75 5.39-3.08 10.87-3.81 16.49-.18 1.42-.22 1.37-1.69 1.31-4.41-.18-8.83-.33-13.24-.48-7.55-.26-15.1-.55-22.65-.74-8.36-.22-13.84-4.6-17.33-11.85-.94-1.95-1.61-4.02-2.41-6.04-.26-.66-.13-1.13.5-1.58 4.7-3.35 9.89-5.74 15.33-7.55 3.52-1.17 7.11-2.18 10.72-3.05 5.22-1.25 10.55-1.64 15.92-1.62 5.48.02 10.87.73 16.23 1.76.51.1 1.21.19.64.95-2.07 2.77-1.04 6.45 1.09 8.71 4.11 4.37 9.27 5.64 15.08 4.93 1.89-.23 3.63-.8 5.18-1.88 1.5-1.04 2.58-2.39 2.87-4.25.14-.89.62-.6 1.12-.4 6.43 2.62 12.57 5.79 18.42 9.54 5.22 3.35 10.12 7.12 14.21 11.79 2.12 2.42 3.89 5.16 5.75 7.8.31.44.28 1.13.4 1.71-.59-.07-1.27.03-1.74-.24-2.63-1.49-5.23-3.05-7.8-4.65-.51-.31-.83-.91-1.27-1.34-2.27-2.22-4.54-4.43-6.83-6.62-.24-.23-.59-.33-.89-.5-.07.09-.14.17-.22.26.28.3.52.64.84.89 5.25 4.25 9.27 9.52 12.65 15.31.5.86.9 1.78 1.27 2.71.31.77.01 1.13-.76.84-.96-.35-1.93-.79-2.75-1.39-3.25-2.38-6.49-4.79-9.64-7.31-1.09-.87-1.85-2.13-2.85-3.13-1.39-1.38-2.86-2.69-4.32-4.01-.25-.23-.58-.39-.87-.58-.08.09-.17.18-.25.27.23.27.45.57.7.82 1.82 1.78 3.82 3.42 5.44 5.37 2.3 2.76 4.04 5.91 5.32 9.28.15.41.03.92.03 1.38-.45-.06-1 .02-1.35-.21-2.44-1.61-5.01-3.08-7.22-4.97-3.01-2.56-5.74-5.45-8.61-8.19-.27-.25-.61-.42-.92-.63-.05.1-.13.21-.22.31zM122.89 68.31c-.26-.01-.52-.07-.76-.03-4.09.68-7.32-1.07-10.22-3.66-1.49-1.33-2.61-2.91-3.06-4.92-.65-2.9.24-5.26 2.49-7.08 2.39-1.93 5.01-1.8 7.53-.3 1.25.75 2.33 1.82 3.4 2.83 1.17 1.12 2.18 2.41 3.36 3.51 1.46 1.36 2.58 1.18 3.64-.51 1.13-1.81 2.08-3.74 3.26-5.51.83-1.26 1.9-2.36 2.88-3.51.21-.24.49-.42.91-.51-.14.69-.36 1.38-.42 2.08-.11 1.2.58 1.71 1.66 1.14 1.37-.71 2.66-1.59 3.99-2.37.68-.4 1.4-.74 2.09-1.12 1.32-.72 1.34-1.7.07-2.49-.26-.16-.53-.31-.96-.57 2.28-.71 4.45-.7 6.6-.6.04.18.06.22.05.24-1.35 1.89-1.22 2.21 1.14 2.73 2.72.61 2.71.61 3.02 3.36.25 2.22.43 4.46.8 6.66.49 2.86 2.03 5.32 3.25 7.9.75 1.58 1.47 3.22 1.85 4.91.92 4.14-1.59 7.17-4.5 8.98-3.09 1.92-6.55 2.12-10.01 1.52-4.6-.79-8.72-2.74-12.26-5.83-.1-.08-.23-.13-.44-.25-.81 1.28-.62 2.61-.31 3.89.78 3.21 2.94 5.29 5.74 6.83.36.2.76.65.81 1.03.37 2.98.66 5.99-.12 8.95-.67 2.56-1.64 4.96-4.51 5.84-2.7.82-5.25.41-7.65-1.03-3.36-2.01-5.72-4.99-7.59-8.32-1.51-2.69-2.69-5.57-3.94-8.4-.18-.4-.1-1 .06-1.43 1.53-4.02 3.11-8.02 4.64-12.03.28-.73.65-1.11 1.49-1.1.7.01 1.41-.22 2.11-.35-.04-.17-.06-.32-.09-.48zm14.78-13.58-.12.45c.79.3 1.57.72 2.39.89 1.69.35 3.36.21 4.88-.68.71-.42.75-1.35.26-2.29-.43-.82-.97-.51-1.56-.25-.5.23-1.02.42-1.54.58-1.43.45-2.87.87-4.31 1.3zm11.97.26c.56-.06.82-.09 1.08-.12 1.02-.11 1.83-.59 2.38-1.46.44-.68.26-.98-.55-1.02-.89-.05-1.78-.12-2.67-.19-1.55-.11-2.06.58-1.31 1.95.52.95 1.19 1.84 1.87 2.7.97 1.22.98 1.52-.12 2.58-.19.18-.35.4-.69.79 1.98-.56 2.55-2.04 1.53-3.37-.43-.58-.91-1.13-1.52-1.86zm-35.98.94c-.04.14-.09.28-.13.41.28.1.55.28.83.3 3.34.23 5.42 2.08 6.66 5.06.17.4.42.77.63 1.15.13-.08.27-.15.4-.23-.41-1.97-1.41-3.64-3.01-4.92-1.58-1.26-3.37-1.94-5.38-1.77zm37.15 9.13c-3.14 1.43-5.15.23-6.5-2.74-.26 2.3 1.07 4.01 3.14 4.29 1.8.24 3.19-.34 3.36-1.55z"/><path class="st0" d="M33.95 179.61c-.82-2.46-1.64-4.64-2.26-6.87-.56-1.99-.74-4.03-.73-6.13.01-2.34.83-4.22 2.37-5.87 2.1-2.26 4.74-3.6 7.61-4.61 4.67-1.64 9.47-2.65 14.36-3.37 8.9-1.3 17.85-1.82 26.83-1.34 4.67.25 9.34.82 13.99 1.39 2.56.31 3.5 1.74 3.07 4.29-.22 1.32-.62 2.61-.84 3.93-.15.89-.62.99-1.38.88-2.15-.31-4.3-.6-6.45-.84-5.62-.63-11.21-.33-16.81.38-6.25.79-12.23 2.52-18.11 4.68-7.02 2.58-13.33 6.38-19.12 11.09-.81.64-1.5 1.4-2.53 2.39zM113.72 83.58c.8 1.84 1.49 3.56 2.3 5.22 2.04 4.22 4.5 8.15 8.24 11.11 1.59 1.25 3.33 2.18 5.37 2.48 1.35.2 1.37.24.9 1.51-1.58 4.28-3.35 8.46-6.18 12.09-.54.7-1.2 1.34-1.91 1.87-1.38 1.03-2.5.95-3.48-.45-1.24-1.77-2.46-3.6-3.35-5.56-1.9-4.2-3.66-8.46-5.33-12.76-1.3-3.33-2.38-6.74-3.52-10.12-.09-.28-.02-.82.18-.96 2.21-1.47 4.46-2.92 6.78-4.43zM115.46 174.99c-3.78-.2-7.26-1.19-10.2-3.55-1.17-.94-2.25-2.22-2.85-3.57-1.14-2.55.29-5.08 3.22-6.3 5.21-2.17 13.15-.41 16.92 3.74 2.27 2.49 2.42 5.51.21 7.3-.96.78-2.16 1.36-3.35 1.74-1.26.4-2.63.44-3.95.64zm-1.48-8.54c-.26-.22-.55-.62-.92-.74-1.88-.65-3.79-1.25-5.7-1.82-.29-.08-.65.1-.98.16.22.28.38.71.66.81 1.61.59 3.25 1.13 4.88 1.64.59.18.78.46.57 1.06-.32.91-.61 1.83-.84 2.76-.05.22.19.5.29.76.22-.12.58-.19.64-.37.48-1.33.89-2.68 1.4-4.26zM139.9 90.55c1.34 1.11 2.7 2.19 4 3.34.23.2.24.7.25 1.07.18 5.11-.03 10.21-.9 15.26-.28 1.64-.81 3.28-1.47 4.82-.76 1.76-2.1 1.95-3.22.39-1.32-1.83-2.46-3.82-3.45-5.85-.96-1.97-1.63-4.09-2.42-6.14-.21-.54-.27-1.02.51-1.15 3.08-.51 4.71-2.6 5.5-5.38.48-1.7.59-3.51.86-5.28.05-.3.04-.6.06-.9.1-.05.19-.12.28-.18z"/><path class="st0" d="M40.97 174.85c.22.63.38 1.14.56 1.63.45 1.19.9 2.37 1.38 3.55.22.56.21.94-.52.99-1.71.13-3.42.28-5.14.4-.34.02-.69-.01-1.03-.07-1.56-.28-1.8-.92-.77-2.14 1.52-1.76 3.4-3.06 5.52-4.36z"/><path d="M137.67 54.73c1.44-.43 2.88-.85 4.31-1.29.52-.16 1.04-.36 1.54-.58.59-.27 1.13-.57 1.56.25.5.94.45 1.88-.26 2.29-1.52.89-3.2 1.03-4.88.68-.82-.17-1.59-.59-2.39-.89.04-.16.08-.31.12-.46zM149.64 54.99c.6.73 1.08 1.28 1.52 1.86 1.01 1.33.45 2.81-1.53 3.37.34-.39.5-.61.69-.79 1.1-1.05 1.09-1.36.12-2.58-.68-.86-1.35-1.74-1.87-2.7-.75-1.37-.24-2.06 1.31-1.95.89.07 1.78.14 2.67.19.8.04.98.34.55 1.02-.55.87-1.35 1.35-2.38 1.46-.26.03-.52.05-1.08.12zM113.66 55.93c2.01-.17 3.8.51 5.38 1.77 1.6 1.28 2.6 2.95 3.01 4.92-.13.08-.27.15-.4.23-.21-.38-.46-.75-.63-1.15-1.24-2.98-3.32-4.83-6.66-5.06-.28-.02-.56-.19-.83-.3.04-.13.09-.27.13-.41zM150.81 65.06c-.16 1.21-1.56 1.79-3.37 1.55-2.06-.28-3.39-1.99-3.14-4.29 1.36 2.97 3.37 4.17 6.51 2.74zM113.98 166.45c-.51 1.58-.92 2.93-1.39 4.26-.06.18-.42.25-.64.37-.1-.25-.34-.54-.29-.76.23-.93.52-1.85.84-2.76.21-.6.02-.88-.57-1.06-1.64-.51-3.27-1.05-4.88-1.64-.28-.1-.44-.53-.66-.81.33-.06.69-.24.98-.16 1.91.57 3.81 1.17 5.7 1.82.36.12.64.52.91.74z"/></g><path d="M129.44 117.99s.99 42.01-5.11 52.22c0 0 14.69 4.84 19.97 9.4h4.57s3.76-25.08-13.08-62.61c.01 0-2.05 2.06-6.35.99z"/><path class="st1" d="m207.15 124.76-25.9 59.14h64.72l26.2-57.89c.66-1.45-.39-3.09-1.98-3.11l-59.3-.57c-1.62-.01-3.09.94-3.74 2.43zM144.31 179.61l36.94-.11-1.88 4.39h-28.69z"/><path class="st0" d="M173.59 182.52h-4.72c-.46 0-.82-.37-.82-.82 0-.46.37-.82.82-.82h4.72c.46 0 .82.37.82.82.01.45-.36.82-.82.82z"/><circle class="st0" cx="176.75" cy="181.7" r=".97"/><path d="M248.94 162.6c-1.26-1.27-1.27-1.99.07-3.2 2.19-1.98 4.88-3.08 7.6-4.09 1.26-.47 2.52-.87 3.92-.48 2.74.77 3.7 4.03 1.69 6.06-.54.54-.68.91-.36 1.65.58 1.34.07 2.9-1.23 3.95-.69.56-1.49.98-2.24 1.46.96 2.85.2 4.45-2.63 5.61-.22.09-.48.38-.51.61-.26 1.85-1.31 3.14-3.12 3.48-2.97.57-5.83.17-8.54-1.22-.09-.05-.18-.1-.27-.16-.71-.54-1.59-1.03-1.34-2.12.23-1.02 1.21-1.11 2.01-1.39.28-.09.58-.11 1.06-.19-.33-.31-.54-.52-.75-.71-1.04-.92-1-2.02.24-2.68.9-.47 1.94-.68 2.91-1 .18-.06.37-.1.73-.19-.89-.39-1.63-.64-2.3-1.02-1.25-.71-1.37-1.66-.21-2.51.99-.71 2.14-1.22 3.27-1.86zm5.27-.34c2.01-.26 3.73-.41 5.42-.72 1.97-.36 3.31-2.16 2.89-3.75-.51-1.94-2.18-2.82-4.28-2.21-.99.29-2.01.55-2.91 1.02-2 1.06-3.94 2.21-5.86 3.4-.34.21-.71.92-.59 1.18.16.37.76.7 1.2.76 1.46.19 2.94.24 4.13.32zm-1.76 5.52c.02-.09.03-.19.05-.28 1.03 0 2.07.04 3.1-.01 1.52-.08 3.09-.23 4.25-1.34.64-.61 1.18-1.44 1.49-2.27.35-.96-.42-1.8-1.25-1.71-2.5.27-4.99.59-7.5.68-2.21.08-4.17.8-6.04 1.87-.35.2-.83.71-.77.95.09.37.57.8.96.9 1.88.45 3.8.81 5.71 1.21zm.1 5.48c.02-.09.03-.17.05-.26.62 0 1.24.04 1.86-.01 1.41-.12 2.67-.62 3.31-1.95.28-.58.41-1.49.13-2-.24-.44-1.12-.62-1.76-.74-.52-.1-1.09.05-1.64.08-2.91.19-5.87.06-8.68 1.03-.54.19-.96.75-1.43 1.14.41.42.82.85 1.24 1.25.09.09.25.11.38.14 2.18.46 4.36.89 6.54 1.32zm-6.12 0c-.68.08-1.52.11-2.32.31-.48.12-.9.52-1.34.79.3.42.52.99.93 1.23 2.19 1.32 4.64 1.75 7.15 1.59 1.27-.08 2.51-.54 3.29-1.69.58-.86.36-1.59-.56-1.67-2.33-.22-4.67-.37-7.15-.56z"/><path class="st0" d="M254.21 162.26c-1.19-.08-2.67-.13-4.14-.31-.45-.06-1.04-.39-1.2-.76-.12-.27.25-.97.59-1.18 1.92-1.19 3.86-2.35 5.86-3.4.9-.48 1.93-.73 2.91-1.02 2.1-.61 3.77.27 4.28 2.21.42 1.58-.91 3.39-2.89 3.75-1.68.3-3.4.45-5.41.71zM252.45 167.78c-1.91-.4-3.83-.75-5.72-1.22-.39-.09-.87-.53-.96-.9-.06-.25.42-.76.77-.95 1.87-1.06 3.83-1.78 6.04-1.87 2.51-.1 5-.42 7.5-.68.83-.09 1.6.75 1.25 1.71-.3.83-.85 1.65-1.49 2.27-1.16 1.11-2.72 1.26-4.25 1.34-1.03.05-2.07.01-3.1.01-.01.1-.02.19-.04.29zM252.55 173.26c-2.18-.43-4.36-.87-6.54-1.3-.13-.03-.29-.05-.38-.14-.43-.41-.83-.83-1.24-1.25.48-.39.89-.95 1.43-1.14 2.81-.97 5.77-.84 8.68-1.03.55-.04 1.12-.18 1.64-.08.63.12 1.52.3 1.76.74.27.5.14 1.42-.13 2-.64 1.32-1.9 1.83-3.31 1.95-.62.05-1.24.01-1.86.01-.01.07-.03.16-.05.24zM246.43 173.26c2.48.19 4.82.34 7.15.55.92.09 1.14.82.56 1.67-.79 1.16-2.02 1.61-3.29 1.69-2.51.16-4.96-.27-7.15-1.59-.41-.24-.62-.81-.93-1.23.44-.27.86-.67 1.34-.79.8-.19 1.64-.21 2.32-.3z"/></svg>